<?xml version="1.0" encoding="utf-8" standalone="no"?>
<!DOCTYPE svg PUBLIC "-//W3C//DTD SVG 1.1//EN"
  "http://www.w3.org/Graphics/SVG/1.1/DTD/svg11.dtd">
<svg xmlns:xlink="http://www.w3.org/1999/xlink" width="864pt" height="576pt" viewBox="0 0 864 576" xmlns="http://www.w3.org/2000/svg" version="1.1">
 <metadata>
  <rdf:RDF xmlns:dc="http://purl.org/dc/elements/1.1/" xmlns:cc="http://creativecommons.org/ns#" xmlns:rdf="http://www.w3.org/1999/02/22-rdf-syntax-ns#">
   <cc:Work>
    <dc:type rdf:resource="http://purl.org/dc/dcmitype/StillImage"/>
    <dc:date>2022-08-25T09:46:38.669643</dc:date>
    <dc:format>image/svg+xml</dc:format>
    <dc:creator>
     <cc:Agent>
      <dc:title>Matplotlib v3.5.3, https://matplotlib.org/</dc:title>
     </cc:Agent>
    </dc:creator>
   </cc:Work>
  </rdf:RDF>
 </metadata>
 <defs>
  <style type="text/css">*{stroke-linejoin: round; stroke-linecap: butt}</style>
 </defs>
 <g id="figure_1">
  <g id="patch_1">
   <path d="M 0 576 L 864 576 L 864 0 L 0 0 L 0 576 z" style="fill: none"/>
  </g>
  <g id="axes_1">
   <g id="patch_2">
    <path d="M 108 504 L 777.6 504 L 777.6 69.12 L 108 69.12 z" style="fill: #ffffff"/>
   </g>
   <g id="PathCollection_1">
    <defs>
     <path id="m9c9e0bdd27" d="M 0 3 C 0.795609 3 1.55874 2.683901 2.12132 2.12132 C 2.683901 1.55874 3 0.795609 3 0 C 3 -0.795609 2.683901 -1.55874 2.12132 -2.12132 C 1.55874 -2.683901 0.795609 -3 0 -3 C -0.795609 -3 -1.55874 -2.683901 -2.12132 -2.12132 C -2.683901 -1.55874 -3 -0.795609 -3 0 C -3 0.795609 -2.683901 1.55874 -2.12132 2.12132 C -1.55874 2.683901 -0.795609 3 0 3 z" style="stroke: #1f77b4"/>
    </defs>
    <g clip-path="url(#p871214dcd6)">
     <use xlink:href="#m9c9e0bdd27" x="747.163636" y="352.453838" style="fill: #1f77b4; stroke: #1f77b4"/>
     <use xlink:href="#m9c9e0bdd27" x="747.163636" y="484.149265" style="fill: #1f77b4; stroke: #1f77b4"/>
     <use xlink:href="#m9c9e0bdd27" x="747.163636" y="484.232727" style="fill: #1f77b4; stroke: #1f77b4"/>
     <use xlink:href="#m9c9e0bdd27" x="715.125359" y="481.996804" style="fill: #1f77b4; stroke: #1f77b4"/>
     <use xlink:href="#m9c9e0bdd27" x="426.780861" y="483.687351" style="fill: #1f77b4; stroke: #1f77b4"/>
     <use xlink:href="#m9c9e0bdd27" x="458.819139" y="467.983849" style="fill: #1f77b4; stroke: #1f77b4"/>
     <use xlink:href="#m9c9e0bdd27" x="458.819139" y="479.844344" style="fill: #1f77b4; stroke: #1f77b4"/>
     <use xlink:href="#m9c9e0bdd27" x="433.188511" y="481.996804" style="fill: #1f77b4; stroke: #1f77b4"/>
     <use xlink:href="#m9c9e0bdd27" x="362.704306" y="481.996804" style="fill: #1f77b4; stroke: #1f77b4"/>
     <use xlink:href="#m9c9e0bdd27" x="234.551196" y="88.887273" style="fill: #1f77b4; stroke: #1f77b4"/>
     <use xlink:href="#m9c9e0bdd27" x="292.220102" y="481.996804" style="fill: #1f77b4; stroke: #1f77b4"/>
     <use xlink:href="#m9c9e0bdd27" x="234.551196" y="435.916583" style="fill: #1f77b4; stroke: #1f77b4"/>
     <use xlink:href="#m9c9e0bdd27" x="208.920576" y="483.797842" style="fill: #1f77b4; stroke: #1f77b4"/>
     <use xlink:href="#m9c9e0bdd27" x="189.697605" y="483.797842" style="fill: #1f77b4; stroke: #1f77b4"/>
     <use xlink:href="#m9c9e0bdd27" x="183.289955" y="326.097181" style="fill: #1f77b4; stroke: #1f77b4"/>
     <use xlink:href="#m9c9e0bdd27" x="138.436364" y="334.882733" style="fill: #1f77b4; stroke: #1f77b4"/>
     <use xlink:href="#m9c9e0bdd27" x="189.697605" y="483.797842" style="fill: #1f77b4; stroke: #1f77b4"/>
     <use xlink:href="#m9c9e0bdd27" x="189.697605" y="483.797842" style="fill: #1f77b4; stroke: #1f77b4"/>
     <use xlink:href="#m9c9e0bdd27" x="189.697605" y="220.670555" style="fill: #1f77b4; stroke: #1f77b4"/>
    </g>
   </g>
   <g id="matplotlib.axis_1">
    <g id="xtick_1">
     <g id="line2d_1">
      <defs>
       <path id="m959eeabb1b" d="M 0 0 L 0 3.5 " style="stroke: #000000; stroke-width: 0.8"/>
      </defs>
      <g>
       <use xlink:href="#m959eeabb1b" x="234.551196" y="504" style="stroke: #000000; stroke-width: 0.8"/>
      </g>
     </g>
     <g id="text_1">
      <!-- 2 -->
      <g transform="translate(231.369946 518.598438)scale(0.1 -0.1)">
       <defs>
        <path id="DejaVuSans-32" d="M 1228 531 L 3431 531 L 3431 0 L 469 0 L 469 531 Q 828 903 1448 1529 Q 2069 2156 2228 2338 Q 2531 2678 2651 2914 Q 2772 3150 2772 3378 Q 2772 3750 2511 3984 Q 2250 4219 1831 4219 Q 1534 4219 1204 4116 Q 875 4013 500 3803 L 500 4441 Q 881 4594 1212 4672 Q 1544 4750 1819 4750 Q 2544 4750 2975 4387 Q 3406 4025 3406 3419 Q 3406 3131 3298 2873 Q 3191 2616 2906 2266 Q 2828 2175 2409 1742 Q 1991 1309 1228 531 z" transform="scale(0.015625)"/>
       </defs>
       <use xlink:href="#DejaVuSans-32"/>
      </g>
     </g>
    </g>
    <g id="xtick_2">
     <g id="line2d_2">
      <g>
       <use xlink:href="#m959eeabb1b" x="362.704306" y="504" style="stroke: #000000; stroke-width: 0.8"/>
      </g>
     </g>
     <g id="text_2">
      <!-- 4 -->
      <g transform="translate(359.523056 518.598438)scale(0.1 -0.1)">
       <defs>
        <path id="DejaVuSans-34" d="M 2419 4116 L 825 1625 L 2419 1625 L 2419 4116 zM 2253 4666 L 3047 4666 L 3047 1625 L 3713 1625 L 3713 1100 L 3047 1100 L 3047 0 L 2419 0 L 2419 1100 L 313 1100 L 313 1709 L 2253 4666 z" transform="scale(0.015625)"/>
       </defs>
       <use xlink:href="#DejaVuSans-34"/>
      </g>
     </g>
    </g>
    <g id="xtick_3">
     <g id="line2d_3">
      <g>
       <use xlink:href="#m959eeabb1b" x="490.857416" y="504" style="stroke: #000000; stroke-width: 0.8"/>
      </g>
     </g>
     <g id="text_3">
      <!-- 6 -->
      <g transform="translate(487.676166 518.598438)scale(0.1 -0.1)">
       <defs>
        <path id="DejaVuSans-36" d="M 2113 2584 Q 1688 2584 1439 2293 Q 1191 2003 1191 1497 Q 1191 994 1439 701 Q 1688 409 2113 409 Q 2538 409 2786 701 Q 3034 994 3034 1497 Q 3034 2003 2786 2293 Q 2538 2584 2113 2584 zM 3366 4563 L 3366 3988 Q 3128 4100 2886 4159 Q 2644 4219 2406 4219 Q 1781 4219 1451 3797 Q 1122 3375 1075 2522 Q 1259 2794 1537 2939 Q 1816 3084 2150 3084 Q 2853 3084 3261 2657 Q 3669 2231 3669 1497 Q 3669 778 3244 343 Q 2819 -91 2113 -91 Q 1303 -91 875 529 Q 447 1150 447 2328 Q 447 3434 972 4092 Q 1497 4750 2381 4750 Q 2619 4750 2861 4703 Q 3103 4656 3366 4563 z" transform="scale(0.015625)"/>
       </defs>
       <use xlink:href="#DejaVuSans-36"/>
      </g>
     </g>
    </g>
    <g id="xtick_4">
     <g id="line2d_4">
      <g>
       <use xlink:href="#m959eeabb1b" x="619.010526" y="504" style="stroke: #000000; stroke-width: 0.8"/>
      </g>
     </g>
     <g id="text_4">
      <!-- 8 -->
      <g transform="translate(615.829276 518.598438)scale(0.1 -0.1)">
       <defs>
        <path id="DejaVuSans-38" d="M 2034 2216 Q 1584 2216 1326 1975 Q 1069 1734 1069 1313 Q 1069 891 1326 650 Q 1584 409 2034 409 Q 2484 409 2743 651 Q 3003 894 3003 1313 Q 3003 1734 2745 1975 Q 2488 2216 2034 2216 zM 1403 2484 Q 997 2584 770 2862 Q 544 3141 544 3541 Q 544 4100 942 4425 Q 1341 4750 2034 4750 Q 2731 4750 3128 4425 Q 3525 4100 3525 3541 Q 3525 3141 3298 2862 Q 3072 2584 2669 2484 Q 3125 2378 3379 2068 Q 3634 1759 3634 1313 Q 3634 634 3220 271 Q 2806 -91 2034 -91 Q 1263 -91 848 271 Q 434 634 434 1313 Q 434 1759 690 2068 Q 947 2378 1403 2484 zM 1172 3481 Q 1172 3119 1398 2916 Q 1625 2713 2034 2713 Q 2441 2713 2670 2916 Q 2900 3119 2900 3481 Q 2900 3844 2670 4047 Q 2441 4250 2034 4250 Q 1625 4250 1398 4047 Q 1172 3844 1172 3481 z" transform="scale(0.015625)"/>
       </defs>
       <use xlink:href="#DejaVuSans-38"/>
      </g>
     </g>
    </g>
    <g id="xtick_5">
     <g id="line2d_5">
      <g>
       <use xlink:href="#m959eeabb1b" x="747.163636" y="504" style="stroke: #000000; stroke-width: 0.8"/>
      </g>
     </g>
     <g id="text_5">
      <!-- 10 -->
      <g transform="translate(740.801136 518.598438)scale(0.1 -0.1)">
       <defs>
        <path id="DejaVuSans-31" d="M 794 531 L 1825 531 L 1825 4091 L 703 3866 L 703 4441 L 1819 4666 L 2450 4666 L 2450 531 L 3481 531 L 3481 0 L 794 0 L 794 531 z" transform="scale(0.015625)"/>
        <path id="DejaVuSans-30" d="M 2034 4250 Q 1547 4250 1301 3770 Q 1056 3291 1056 2328 Q 1056 1369 1301 889 Q 1547 409 2034 409 Q 2525 409 2770 889 Q 3016 1369 3016 2328 Q 3016 3291 2770 3770 Q 2525 4250 2034 4250 zM 2034 4750 Q 2819 4750 3233 4129 Q 3647 3509 3647 2328 Q 3647 1150 3233 529 Q 2819 -91 2034 -91 Q 1250 -91 836 529 Q 422 1150 422 2328 Q 422 3509 836 4129 Q 1250 4750 2034 4750 z" transform="scale(0.015625)"/>
       </defs>
       <use xlink:href="#DejaVuSans-31"/>
       <use xlink:href="#DejaVuSans-30" x="63.623047"/>
      </g>
     </g>
    </g>
    <g id="text_6">
     <!-- Basic Reproduction Number (R0) -->
     <g transform="translate(360.980469 532.276562)scale(0.1 -0.1)">
      <defs>
       <path id="DejaVuSans-42" d="M 1259 2228 L 1259 519 L 2272 519 Q 2781 519 3026 730 Q 3272 941 3272 1375 Q 3272 1813 3026 2020 Q 2781 2228 2272 2228 L 1259 2228 zM 1259 4147 L 1259 2741 L 2194 2741 Q 2656 2741 2882 2914 Q 3109 3088 3109 3444 Q 3109 3797 2882 3972 Q 2656 4147 2194 4147 L 1259 4147 zM 628 4666 L 2241 4666 Q 2963 4666 3353 4366 Q 3744 4066 3744 3513 Q 3744 3084 3544 2831 Q 3344 2578 2956 2516 Q 3422 2416 3680 2098 Q 3938 1781 3938 1306 Q 3938 681 3513 340 Q 3088 0 2303 0 L 628 0 L 628 4666 z" transform="scale(0.015625)"/>
       <path id="DejaVuSans-61" d="M 2194 1759 Q 1497 1759 1228 1600 Q 959 1441 959 1056 Q 959 750 1161 570 Q 1363 391 1709 391 Q 2188 391 2477 730 Q 2766 1069 2766 1631 L 2766 1759 L 2194 1759 zM 3341 1997 L 3341 0 L 2766 0 L 2766 531 Q 2569 213 2275 61 Q 1981 -91 1556 -91 Q 1019 -91 701 211 Q 384 513 384 1019 Q 384 1609 779 1909 Q 1175 2209 1959 2209 L 2766 2209 L 2766 2266 Q 2766 2663 2505 2880 Q 2244 3097 1772 3097 Q 1472 3097 1187 3025 Q 903 2953 641 2809 L 641 3341 Q 956 3463 1253 3523 Q 1550 3584 1831 3584 Q 2591 3584 2966 3190 Q 3341 2797 3341 1997 z" transform="scale(0.015625)"/>
       <path id="DejaVuSans-73" d="M 2834 3397 L 2834 2853 Q 2591 2978 2328 3040 Q 2066 3103 1784 3103 Q 1356 3103 1142 2972 Q 928 2841 928 2578 Q 928 2378 1081 2264 Q 1234 2150 1697 2047 L 1894 2003 Q 2506 1872 2764 1633 Q 3022 1394 3022 966 Q 3022 478 2636 193 Q 2250 -91 1575 -91 Q 1294 -91 989 -36 Q 684 19 347 128 L 347 722 Q 666 556 975 473 Q 1284 391 1588 391 Q 1994 391 2212 530 Q 2431 669 2431 922 Q 2431 1156 2273 1281 Q 2116 1406 1581 1522 L 1381 1569 Q 847 1681 609 1914 Q 372 2147 372 2553 Q 372 3047 722 3315 Q 1072 3584 1716 3584 Q 2034 3584 2315 3537 Q 2597 3491 2834 3397 z" transform="scale(0.015625)"/>
       <path id="DejaVuSans-69" d="M 603 3500 L 1178 3500 L 1178 0 L 603 0 L 603 3500 zM 603 4863 L 1178 4863 L 1178 4134 L 603 4134 L 603 4863 z" transform="scale(0.015625)"/>
       <path id="DejaVuSans-63" d="M 3122 3366 L 3122 2828 Q 2878 2963 2633 3030 Q 2388 3097 2138 3097 Q 1578 3097 1268 2742 Q 959 2388 959 1747 Q 959 1106 1268 751 Q 1578 397 2138 397 Q 2388 397 2633 464 Q 2878 531 3122 666 L 3122 134 Q 2881 22 2623 -34 Q 2366 -91 2075 -91 Q 1284 -91 818 406 Q 353 903 353 1747 Q 353 2603 823 3093 Q 1294 3584 2113 3584 Q 2378 3584 2631 3529 Q 2884 3475 3122 3366 z" transform="scale(0.015625)"/>
       <path id="DejaVuSans-20" transform="scale(0.015625)"/>
       <path id="DejaVuSans-52" d="M 2841 2188 Q 3044 2119 3236 1894 Q 3428 1669 3622 1275 L 4263 0 L 3584 0 L 2988 1197 Q 2756 1666 2539 1819 Q 2322 1972 1947 1972 L 1259 1972 L 1259 0 L 628 0 L 628 4666 L 2053 4666 Q 2853 4666 3247 4331 Q 3641 3997 3641 3322 Q 3641 2881 3436 2590 Q 3231 2300 2841 2188 zM 1259 4147 L 1259 2491 L 2053 2491 Q 2509 2491 2742 2702 Q 2975 2913 2975 3322 Q 2975 3731 2742 3939 Q 2509 4147 2053 4147 L 1259 4147 z" transform="scale(0.015625)"/>
       <path id="DejaVuSans-65" d="M 3597 1894 L 3597 1613 L 953 1613 Q 991 1019 1311 708 Q 1631 397 2203 397 Q 2534 397 2845 478 Q 3156 559 3463 722 L 3463 178 Q 3153 47 2828 -22 Q 2503 -91 2169 -91 Q 1331 -91 842 396 Q 353 884 353 1716 Q 353 2575 817 3079 Q 1281 3584 2069 3584 Q 2775 3584 3186 3129 Q 3597 2675 3597 1894 zM 3022 2063 Q 3016 2534 2758 2815 Q 2500 3097 2075 3097 Q 1594 3097 1305 2825 Q 1016 2553 972 2059 L 3022 2063 z" transform="scale(0.015625)"/>
       <path id="DejaVuSans-70" d="M 1159 525 L 1159 -1331 L 581 -1331 L 581 3500 L 1159 3500 L 1159 2969 Q 1341 3281 1617 3432 Q 1894 3584 2278 3584 Q 2916 3584 3314 3078 Q 3713 2572 3713 1747 Q 3713 922 3314 415 Q 2916 -91 2278 -91 Q 1894 -91 1617 61 Q 1341 213 1159 525 zM 3116 1747 Q 3116 2381 2855 2742 Q 2594 3103 2138 3103 Q 1681 3103 1420 2742 Q 1159 2381 1159 1747 Q 1159 1113 1420 752 Q 1681 391 2138 391 Q 2594 391 2855 752 Q 3116 1113 3116 1747 z" transform="scale(0.015625)"/>
       <path id="DejaVuSans-72" d="M 2631 2963 Q 2534 3019 2420 3045 Q 2306 3072 2169 3072 Q 1681 3072 1420 2755 Q 1159 2438 1159 1844 L 1159 0 L 581 0 L 581 3500 L 1159 3500 L 1159 2956 Q 1341 3275 1631 3429 Q 1922 3584 2338 3584 Q 2397 3584 2469 3576 Q 2541 3569 2628 3553 L 2631 2963 z" transform="scale(0.015625)"/>
       <path id="DejaVuSans-6f" d="M 1959 3097 Q 1497 3097 1228 2736 Q 959 2375 959 1747 Q 959 1119 1226 758 Q 1494 397 1959 397 Q 2419 397 2687 759 Q 2956 1122 2956 1747 Q 2956 2369 2687 2733 Q 2419 3097 1959 3097 zM 1959 3584 Q 2709 3584 3137 3096 Q 3566 2609 3566 1747 Q 3566 888 3137 398 Q 2709 -91 1959 -91 Q 1206 -91 779 398 Q 353 888 353 1747 Q 353 2609 779 3096 Q 1206 3584 1959 3584 z" transform="scale(0.015625)"/>
       <path id="DejaVuSans-64" d="M 2906 2969 L 2906 4863 L 3481 4863 L 3481 0 L 2906 0 L 2906 525 Q 2725 213 2448 61 Q 2172 -91 1784 -91 Q 1150 -91 751 415 Q 353 922 353 1747 Q 353 2572 751 3078 Q 1150 3584 1784 3584 Q 2172 3584 2448 3432 Q 2725 3281 2906 2969 zM 947 1747 Q 947 1113 1208 752 Q 1469 391 1925 391 Q 2381 391 2643 752 Q 2906 1113 2906 1747 Q 2906 2381 2643 2742 Q 2381 3103 1925 3103 Q 1469 3103 1208 2742 Q 947 2381 947 1747 z" transform="scale(0.015625)"/>
       <path id="DejaVuSans-75" d="M 544 1381 L 544 3500 L 1119 3500 L 1119 1403 Q 1119 906 1312 657 Q 1506 409 1894 409 Q 2359 409 2629 706 Q 2900 1003 2900 1516 L 2900 3500 L 3475 3500 L 3475 0 L 2900 0 L 2900 538 Q 2691 219 2414 64 Q 2138 -91 1772 -91 Q 1169 -91 856 284 Q 544 659 544 1381 zM 1991 3584 L 1991 3584 z" transform="scale(0.015625)"/>
       <path id="DejaVuSans-74" d="M 1172 4494 L 1172 3500 L 2356 3500 L 2356 3053 L 1172 3053 L 1172 1153 Q 1172 725 1289 603 Q 1406 481 1766 481 L 2356 481 L 2356 0 L 1766 0 Q 1100 0 847 248 Q 594 497 594 1153 L 594 3053 L 172 3053 L 172 3500 L 594 3500 L 594 4494 L 1172 4494 z" transform="scale(0.015625)"/>
       <path id="DejaVuSans-6e" d="M 3513 2113 L 3513 0 L 2938 0 L 2938 2094 Q 2938 2591 2744 2837 Q 2550 3084 2163 3084 Q 1697 3084 1428 2787 Q 1159 2491 1159 1978 L 1159 0 L 581 0 L 581 3500 L 1159 3500 L 1159 2956 Q 1366 3272 1645 3428 Q 1925 3584 2291 3584 Q 2894 3584 3203 3211 Q 3513 2838 3513 2113 z" transform="scale(0.015625)"/>
       <path id="DejaVuSans-4e" d="M 628 4666 L 1478 4666 L 3547 763 L 3547 4666 L 4159 4666 L 4159 0 L 3309 0 L 1241 3903 L 1241 0 L 628 0 L 628 4666 z" transform="scale(0.015625)"/>
       <path id="DejaVuSans-6d" d="M 3328 2828 Q 3544 3216 3844 3400 Q 4144 3584 4550 3584 Q 5097 3584 5394 3201 Q 5691 2819 5691 2113 L 5691 0 L 5113 0 L 5113 2094 Q 5113 2597 4934 2840 Q 4756 3084 4391 3084 Q 3944 3084 3684 2787 Q 3425 2491 3425 1978 L 3425 0 L 2847 0 L 2847 2094 Q 2847 2600 2669 2842 Q 2491 3084 2119 3084 Q 1678 3084 1418 2786 Q 1159 2488 1159 1978 L 1159 0 L 581 0 L 581 3500 L 1159 3500 L 1159 2956 Q 1356 3278 1631 3431 Q 1906 3584 2284 3584 Q 2666 3584 2933 3390 Q 3200 3197 3328 2828 z" transform="scale(0.015625)"/>
       <path id="DejaVuSans-62" d="M 3116 1747 Q 3116 2381 2855 2742 Q 2594 3103 2138 3103 Q 1681 3103 1420 2742 Q 1159 2381 1159 1747 Q 1159 1113 1420 752 Q 1681 391 2138 391 Q 2594 391 2855 752 Q 3116 1113 3116 1747 zM 1159 2969 Q 1341 3281 1617 3432 Q 1894 3584 2278 3584 Q 2916 3584 3314 3078 Q 3713 2572 3713 1747 Q 3713 922 3314 415 Q 2916 -91 2278 -91 Q 1894 -91 1617 61 Q 1341 213 1159 525 L 1159 0 L 581 0 L 581 4863 L 1159 4863 L 1159 2969 z" transform="scale(0.015625)"/>
       <path id="DejaVuSans-28" d="M 1984 4856 Q 1566 4138 1362 3434 Q 1159 2731 1159 2009 Q 1159 1288 1364 580 Q 1569 -128 1984 -844 L 1484 -844 Q 1016 -109 783 600 Q 550 1309 550 2009 Q 550 2706 781 3412 Q 1013 4119 1484 4856 L 1984 4856 z" transform="scale(0.015625)"/>
       <path id="DejaVuSans-29" d="M 513 4856 L 1013 4856 Q 1481 4119 1714 3412 Q 1947 2706 1947 2009 Q 1947 1309 1714 600 Q 1481 -109 1013 -844 L 513 -844 Q 928 -128 1133 580 Q 1338 1288 1338 2009 Q 1338 2731 1133 3434 Q 928 4138 513 4856 z" transform="scale(0.015625)"/>
      </defs>
      <use xlink:href="#DejaVuSans-42"/>
      <use xlink:href="#DejaVuSans-61" x="68.603516"/>
      <use xlink:href="#DejaVuSans-73" x="129.882812"/>
      <use xlink:href="#DejaVuSans-69" x="181.982422"/>
      <use xlink:href="#DejaVuSans-63" x="209.765625"/>
      <use xlink:href="#DejaVuSans-20" x="264.746094"/>
      <use xlink:href="#DejaVuSans-52" x="296.533203"/>
      <use xlink:href="#DejaVuSans-65" x="361.515625"/>
      <use xlink:href="#DejaVuSans-70" x="423.039062"/>
      <use xlink:href="#DejaVuSans-72" x="486.515625"/>
      <use xlink:href="#DejaVuSans-6f" x="525.378906"/>
      <use xlink:href="#DejaVuSans-64" x="586.560547"/>
      <use xlink:href="#DejaVuSans-75" x="650.037109"/>
      <use xlink:href="#DejaVuSans-63" x="713.416016"/>
      <use xlink:href="#DejaVuSans-74" x="768.396484"/>
      <use xlink:href="#DejaVuSans-69" x="807.605469"/>
      <use xlink:href="#DejaVuSans-6f" x="835.388672"/>
      <use xlink:href="#DejaVuSans-6e" x="896.570312"/>
      <use xlink:href="#DejaVuSans-20" x="959.949219"/>
      <use xlink:href="#DejaVuSans-4e" x="991.736328"/>
      <use xlink:href="#DejaVuSans-75" x="1066.541016"/>
      <use xlink:href="#DejaVuSans-6d" x="1129.919922"/>
      <use xlink:href="#DejaVuSans-62" x="1227.332031"/>
      <use xlink:href="#DejaVuSans-65" x="1290.808594"/>
      <use xlink:href="#DejaVuSans-72" x="1352.332031"/>
      <use xlink:href="#DejaVuSans-20" x="1393.445312"/>
      <use xlink:href="#DejaVuSans-28" x="1425.232422"/>
      <use xlink:href="#DejaVuSans-52" x="1464.246094"/>
      <use xlink:href="#DejaVuSans-30" x="1533.728516"/>
      <use xlink:href="#DejaVuSans-29" x="1597.351562"/>
     </g>
    </g>
   </g>
   <g id="matplotlib.axis_2">
    <g id="ytick_1">
     <g id="line2d_6">
      <defs>
       <path id="m04bda5437c" d="M 0 0 L -3.5 0 " style="stroke: #000000; stroke-width: 0.8"/>
      </defs>
      <g>
       <use xlink:href="#m04bda5437c" x="108" y="484.23712" style="stroke: #000000; stroke-width: 0.8"/>
      </g>
     </g>
     <g id="text_7">
      <!-- 0 -->
      <g transform="translate(94.6375 488.036339)scale(0.1 -0.1)">
       <use xlink:href="#DejaVuSans-30"/>
      </g>
     </g>
    </g>
    <g id="ytick_2">
     <g id="line2d_7">
      <g>
       <use xlink:href="#m04bda5437c" x="108" y="396.381598" style="stroke: #000000; stroke-width: 0.8"/>
      </g>
     </g>
     <g id="text_8">
      <!-- 20 -->
      <g transform="translate(88.275 400.180817)scale(0.1 -0.1)">
       <use xlink:href="#DejaVuSans-32"/>
       <use xlink:href="#DejaVuSans-30" x="63.623047"/>
      </g>
     </g>
    </g>
    <g id="ytick_3">
     <g id="line2d_8">
      <g>
       <use xlink:href="#m04bda5437c" x="108" y="308.526077" style="stroke: #000000; stroke-width: 0.8"/>
      </g>
     </g>
     <g id="text_9">
      <!-- 40 -->
      <g transform="translate(88.275 312.325296)scale(0.1 -0.1)">
       <use xlink:href="#DejaVuSans-34"/>
       <use xlink:href="#DejaVuSans-30" x="63.623047"/>
      </g>
     </g>
    </g>
    <g id="ytick_4">
     <g id="line2d_9">
      <g>
       <use xlink:href="#m04bda5437c" x="108" y="220.670555" style="stroke: #000000; stroke-width: 0.8"/>
      </g>
     </g>
     <g id="text_10">
      <!-- 60 -->
      <g transform="translate(88.275 224.469774)scale(0.1 -0.1)">
       <use xlink:href="#DejaVuSans-36"/>
       <use xlink:href="#DejaVuSans-30" x="63.623047"/>
      </g>
     </g>
    </g>
    <g id="ytick_5">
     <g id="line2d_10">
      <g>
       <use xlink:href="#m04bda5437c" x="108" y="132.815034" style="stroke: #000000; stroke-width: 0.8"/>
      </g>
     </g>
     <g id="text_11">
      <!-- 80 -->
      <g transform="translate(88.275 136.614252)scale(0.1 -0.1)">
       <use xlink:href="#DejaVuSans-38"/>
       <use xlink:href="#DejaVuSans-30" x="63.623047"/>
      </g>
     </g>
    </g>
    <g id="text_12">
     <!-- Case Fatality Rate (CFR) -->
     <g transform="translate(82.195312 346.974844)rotate(-90)scale(0.1 -0.1)">
      <defs>
       <path id="DejaVuSans-43" d="M 4122 4306 L 4122 3641 Q 3803 3938 3442 4084 Q 3081 4231 2675 4231 Q 1875 4231 1450 3742 Q 1025 3253 1025 2328 Q 1025 1406 1450 917 Q 1875 428 2675 428 Q 3081 428 3442 575 Q 3803 722 4122 1019 L 4122 359 Q 3791 134 3420 21 Q 3050 -91 2638 -91 Q 1578 -91 968 557 Q 359 1206 359 2328 Q 359 3453 968 4101 Q 1578 4750 2638 4750 Q 3056 4750 3426 4639 Q 3797 4528 4122 4306 z" transform="scale(0.015625)"/>
       <path id="DejaVuSans-46" d="M 628 4666 L 3309 4666 L 3309 4134 L 1259 4134 L 1259 2759 L 3109 2759 L 3109 2228 L 1259 2228 L 1259 0 L 628 0 L 628 4666 z" transform="scale(0.015625)"/>
       <path id="DejaVuSans-6c" d="M 603 4863 L 1178 4863 L 1178 0 L 603 0 L 603 4863 z" transform="scale(0.015625)"/>
       <path id="DejaVuSans-79" d="M 2059 -325 Q 1816 -950 1584 -1140 Q 1353 -1331 966 -1331 L 506 -1331 L 506 -850 L 844 -850 Q 1081 -850 1212 -737 Q 1344 -625 1503 -206 L 1606 56 L 191 3500 L 800 3500 L 1894 763 L 2988 3500 L 3597 3500 L 2059 -325 z" transform="scale(0.015625)"/>
      </defs>
      <use xlink:href="#DejaVuSans-43"/>
      <use xlink:href="#DejaVuSans-61" x="69.824219"/>
      <use xlink:href="#DejaVuSans-73" x="131.103516"/>
      <use xlink:href="#DejaVuSans-65" x="183.203125"/>
      <use xlink:href="#DejaVuSans-20" x="244.726562"/>
      <use xlink:href="#DejaVuSans-46" x="276.513672"/>
      <use xlink:href="#DejaVuSans-61" x="324.908203"/>
      <use xlink:href="#DejaVuSans-74" x="386.1875"/>
      <use xlink:href="#DejaVuSans-61" x="425.396484"/>
      <use xlink:href="#DejaVuSans-6c" x="486.675781"/>
      <use xlink:href="#DejaVuSans-69" x="514.458984"/>
      <use xlink:href="#DejaVuSans-74" x="542.242188"/>
      <use xlink:href="#DejaVuSans-79" x="581.451172"/>
      <use xlink:href="#DejaVuSans-20" x="640.630859"/>
      <use xlink:href="#DejaVuSans-52" x="672.417969"/>
      <use xlink:href="#DejaVuSans-61" x="739.650391"/>
      <use xlink:href="#DejaVuSans-74" x="800.929688"/>
      <use xlink:href="#DejaVuSans-65" x="840.138672"/>
      <use xlink:href="#DejaVuSans-20" x="901.662109"/>
      <use xlink:href="#DejaVuSans-28" x="933.449219"/>
      <use xlink:href="#DejaVuSans-43" x="972.462891"/>
      <use xlink:href="#DejaVuSans-46" x="1042.287109"/>
      <use xlink:href="#DejaVuSans-52" x="1099.806641"/>
      <use xlink:href="#DejaVuSans-29" x="1169.289062"/>
     </g>
    </g>
   </g>
   <g id="patch_3">
    <path d="M 108 504 L 108 69.12 " style="fill: none; stroke: #000000; stroke-width: 0.8; stroke-linejoin: miter; stroke-linecap: square"/>
   </g>
   <g id="patch_4">
    <path d="M 777.6 504 L 777.6 69.12 " style="fill: none; stroke: #000000; stroke-width: 0.8; stroke-linejoin: miter; stroke-linecap: square"/>
   </g>
   <g id="patch_5">
    <path d="M 108 504 L 777.6 504 " style="fill: none; stroke: #000000; stroke-width: 0.8; stroke-linejoin: miter; stroke-linecap: square"/>
   </g>
   <g id="patch_6">
    <path d="M 108 69.12 L 777.6 69.12 " style="fill: none; stroke: #000000; stroke-width: 0.8; stroke-linejoin: miter; stroke-linecap: square"/>
   </g>
   <g id="patch_7">
    <path d="M 653.450448 308.795693 Q 699.401884 330.20308 744.339867 351.138329 " style="fill: none; stroke: #000000; stroke-linecap: round"/>
    <path d="M 741.558613 347.63624 L 744.339867 351.138329 L 739.869444 351.262079 " style="fill: none; stroke: #000000; stroke-linecap: round"/>
   </g>
   <g id="text_13">
    <g id="patch_8">
     <path d="M 497.163636 307.453838 L 761.737074 307.453838 Q 766.737074 307.453838 766.737074 302.453838 L 766.737074 292.775713 Q 766.737074 287.775713 761.737074 287.775713 L 497.163636 287.775713 Q 492.163636 287.775713 492.163636 292.775713 L 492.163636 302.453838 Q 492.163636 307.453838 497.163636 307.453838 z" style="fill: #ffff00; opacity: 0.5; stroke: #000000; stroke-linejoin: miter"/>
    </g>
    <!-- Varicella (chickenpox), in newborns (most infectious) -->
    <g transform="translate(497.163636 300.37415)scale(0.1 -0.1)">
     <defs>
      <path id="DejaVuSans-56" d="M 1831 0 L 50 4666 L 709 4666 L 2188 738 L 3669 4666 L 4325 4666 L 2547 0 L 1831 0 z" transform="scale(0.015625)"/>
      <path id="DejaVuSans-68" d="M 3513 2113 L 3513 0 L 2938 0 L 2938 2094 Q 2938 2591 2744 2837 Q 2550 3084 2163 3084 Q 1697 3084 1428 2787 Q 1159 2491 1159 1978 L 1159 0 L 581 0 L 581 4863 L 1159 4863 L 1159 2956 Q 1366 3272 1645 3428 Q 1925 3584 2291 3584 Q 2894 3584 3203 3211 Q 3513 2838 3513 2113 z" transform="scale(0.015625)"/>
      <path id="DejaVuSans-6b" d="M 581 4863 L 1159 4863 L 1159 1991 L 2875 3500 L 3609 3500 L 1753 1863 L 3688 0 L 2938 0 L 1159 1709 L 1159 0 L 581 0 L 581 4863 z" transform="scale(0.015625)"/>
      <path id="DejaVuSans-78" d="M 3513 3500 L 2247 1797 L 3578 0 L 2900 0 L 1881 1375 L 863 0 L 184 0 L 1544 1831 L 300 3500 L 978 3500 L 1906 2253 L 2834 3500 L 3513 3500 z" transform="scale(0.015625)"/>
      <path id="DejaVuSans-2c" d="M 750 794 L 1409 794 L 1409 256 L 897 -744 L 494 -744 L 750 256 L 750 794 z" transform="scale(0.015625)"/>
      <path id="DejaVuSans-77" d="M 269 3500 L 844 3500 L 1563 769 L 2278 3500 L 2956 3500 L 3675 769 L 4391 3500 L 4966 3500 L 4050 0 L 3372 0 L 2619 2869 L 1863 0 L 1184 0 L 269 3500 z" transform="scale(0.015625)"/>
      <path id="DejaVuSans-66" d="M 2375 4863 L 2375 4384 L 1825 4384 Q 1516 4384 1395 4259 Q 1275 4134 1275 3809 L 1275 3500 L 2222 3500 L 2222 3053 L 1275 3053 L 1275 0 L 697 0 L 697 3053 L 147 3053 L 147 3500 L 697 3500 L 697 3744 Q 697 4328 969 4595 Q 1241 4863 1831 4863 L 2375 4863 z" transform="scale(0.015625)"/>
     </defs>
     <use xlink:href="#DejaVuSans-56"/>
     <use xlink:href="#DejaVuSans-61" x="60.658203"/>
     <use xlink:href="#DejaVuSans-72" x="121.9375"/>
     <use xlink:href="#DejaVuSans-69" x="163.050781"/>
     <use xlink:href="#DejaVuSans-63" x="190.833984"/>
     <use xlink:href="#DejaVuSans-65" x="245.814453"/>
     <use xlink:href="#DejaVuSans-6c" x="307.337891"/>
     <use xlink:href="#DejaVuSans-6c" x="335.121094"/>
     <use xlink:href="#DejaVuSans-61" x="362.904297"/>
     <use xlink:href="#DejaVuSans-20" x="424.183594"/>
     <use xlink:href="#DejaVuSans-28" x="455.970703"/>
     <use xlink:href="#DejaVuSans-63" x="494.984375"/>
     <use xlink:href="#DejaVuSans-68" x="549.964844"/>
     <use xlink:href="#DejaVuSans-69" x="613.34375"/>
     <use xlink:href="#DejaVuSans-63" x="641.126953"/>
     <use xlink:href="#DejaVuSans-6b" x="696.107422"/>
     <use xlink:href="#DejaVuSans-65" x="750.392578"/>
     <use xlink:href="#DejaVuSans-6e" x="811.916016"/>
     <use xlink:href="#DejaVuSans-70" x="875.294922"/>
     <use xlink:href="#DejaVuSans-6f" x="938.771484"/>
     <use xlink:href="#DejaVuSans-78" x="996.828125"/>
     <use xlink:href="#DejaVuSans-29" x="1056.007812"/>
     <use xlink:href="#DejaVuSans-2c" x="1095.021484"/>
     <use xlink:href="#DejaVuSans-20" x="1126.808594"/>
     <use xlink:href="#DejaVuSans-69" x="1158.595703"/>
     <use xlink:href="#DejaVuSans-6e" x="1186.378906"/>
     <use xlink:href="#DejaVuSans-20" x="1249.757812"/>
     <use xlink:href="#DejaVuSans-6e" x="1281.544922"/>
     <use xlink:href="#DejaVuSans-65" x="1344.923828"/>
     <use xlink:href="#DejaVuSans-77" x="1406.447266"/>
     <use xlink:href="#DejaVuSans-62" x="1488.234375"/>
     <use xlink:href="#DejaVuSans-6f" x="1551.710938"/>
     <use xlink:href="#DejaVuSans-72" x="1612.892578"/>
     <use xlink:href="#DejaVuSans-6e" x="1652.255859"/>
     <use xlink:href="#DejaVuSans-73" x="1715.634766"/>
     <use xlink:href="#DejaVuSans-20" x="1767.734375"/>
     <use xlink:href="#DejaVuSans-28" x="1799.521484"/>
     <use xlink:href="#DejaVuSans-6d" x="1838.535156"/>
     <use xlink:href="#DejaVuSans-6f" x="1935.947266"/>
     <use xlink:href="#DejaVuSans-73" x="1997.128906"/>
     <use xlink:href="#DejaVuSans-74" x="2049.228516"/>
     <use xlink:href="#DejaVuSans-20" x="2088.4375"/>
     <use xlink:href="#DejaVuSans-69" x="2120.224609"/>
     <use xlink:href="#DejaVuSans-6e" x="2148.007812"/>
     <use xlink:href="#DejaVuSans-66" x="2211.386719"/>
     <use xlink:href="#DejaVuSans-65" x="2246.591797"/>
     <use xlink:href="#DejaVuSans-63" x="2308.115234"/>
     <use xlink:href="#DejaVuSans-74" x="2363.095703"/>
     <use xlink:href="#DejaVuSans-69" x="2402.304688"/>
     <use xlink:href="#DejaVuSans-6f" x="2430.087891"/>
     <use xlink:href="#DejaVuSans-75" x="2491.269531"/>
     <use xlink:href="#DejaVuSans-73" x="2554.648438"/>
     <use xlink:href="#DejaVuSans-29" x="2606.748047"/>
    </g>
   </g>
   <g id="patch_9">
    <path d="M 656.581142 381.237785 Q 701.21309 431.985614 745.106677 481.893904 " style="fill: none; stroke: #000000; stroke-linecap: round"/>
    <path d="M 743.966848 477.569463 L 745.106677 481.893904 L 740.963227 480.211103 " style="fill: none; stroke: #000000; stroke-linecap: round"/>
   </g>
   <g id="text_14">
    <g id="patch_10">
     <path d="M 532.163636 379.232727 L 760.165199 379.232727 Q 765.165199 379.232727 765.165199 374.232727 L 765.165199 364.554602 Q 765.165199 359.554602 760.165199 359.554602 L 532.163636 359.554602 Q 527.163636 359.554602 527.163636 364.554602 L 527.163636 374.232727 Q 527.163636 379.232727 532.163636 379.232727 z" style="fill: #ffff00; opacity: 0.5; stroke: #000000; stroke-linejoin: miter"/>
    </g>
    <!-- Varicella (chickenpox), children (least deadly) -->
    <g transform="translate(532.163636 372.15304)scale(0.1 -0.1)">
     <use xlink:href="#DejaVuSans-56"/>
     <use xlink:href="#DejaVuSans-61" x="60.658203"/>
     <use xlink:href="#DejaVuSans-72" x="121.9375"/>
     <use xlink:href="#DejaVuSans-69" x="163.050781"/>
     <use xlink:href="#DejaVuSans-63" x="190.833984"/>
     <use xlink:href="#DejaVuSans-65" x="245.814453"/>
     <use xlink:href="#DejaVuSans-6c" x="307.337891"/>
     <use xlink:href="#DejaVuSans-6c" x="335.121094"/>
     <use xlink:href="#DejaVuSans-61" x="362.904297"/>
     <use xlink:href="#DejaVuSans-20" x="424.183594"/>
     <use xlink:href="#DejaVuSans-28" x="455.970703"/>
     <use xlink:href="#DejaVuSans-63" x="494.984375"/>
     <use xlink:href="#DejaVuSans-68" x="549.964844"/>
     <use xlink:href="#DejaVuSans-69" x="613.34375"/>
     <use xlink:href="#DejaVuSans-63" x="641.126953"/>
     <use xlink:href="#DejaVuSans-6b" x="696.107422"/>
     <use xlink:href="#DejaVuSans-65" x="750.392578"/>
     <use xlink:href="#DejaVuSans-6e" x="811.916016"/>
     <use xlink:href="#DejaVuSans-70" x="875.294922"/>
     <use xlink:href="#DejaVuSans-6f" x="938.771484"/>
     <use xlink:href="#DejaVuSans-78" x="996.828125"/>
     <use xlink:href="#DejaVuSans-29" x="1056.007812"/>
     <use xlink:href="#DejaVuSans-2c" x="1095.021484"/>
     <use xlink:href="#DejaVuSans-20" x="1126.808594"/>
     <use xlink:href="#DejaVuSans-63" x="1158.595703"/>
     <use xlink:href="#DejaVuSans-68" x="1213.576172"/>
     <use xlink:href="#DejaVuSans-69" x="1276.955078"/>
     <use xlink:href="#DejaVuSans-6c" x="1304.738281"/>
     <use xlink:href="#DejaVuSans-64" x="1332.521484"/>
     <use xlink:href="#DejaVuSans-72" x="1395.998047"/>
     <use xlink:href="#DejaVuSans-65" x="1434.861328"/>
     <use xlink:href="#DejaVuSans-6e" x="1496.384766"/>
     <use xlink:href="#DejaVuSans-20" x="1559.763672"/>
     <use xlink:href="#DejaVuSans-28" x="1591.550781"/>
     <use xlink:href="#DejaVuSans-6c" x="1630.564453"/>
     <use xlink:href="#DejaVuSans-65" x="1658.347656"/>
     <use xlink:href="#DejaVuSans-61" x="1719.871094"/>
     <use xlink:href="#DejaVuSans-73" x="1781.150391"/>
     <use xlink:href="#DejaVuSans-74" x="1833.25"/>
     <use xlink:href="#DejaVuSans-20" x="1872.458984"/>
     <use xlink:href="#DejaVuSans-64" x="1904.246094"/>
     <use xlink:href="#DejaVuSans-65" x="1967.722656"/>
     <use xlink:href="#DejaVuSans-61" x="2029.246094"/>
     <use xlink:href="#DejaVuSans-64" x="2090.525391"/>
     <use xlink:href="#DejaVuSans-6c" x="2154.001953"/>
     <use xlink:href="#DejaVuSans-79" x="2181.785156"/>
     <use xlink:href="#DejaVuSans-29" x="2240.964844"/>
    </g>
   </g>
   <g id="patch_11">
    <path d="M 701.288119 454.284282 Q 707.759967 467.245773 713.732366 479.206988 " style="fill: none; stroke: #000000; stroke-linecap: round"/>
    <path d="M 713.734822 474.734853 L 713.732366 479.206988 L 710.156131 476.521742 " style="fill: none; stroke: #000000; stroke-linecap: round"/>
   </g>
   <g id="text_15">
    <g id="patch_12">
     <path d="M 625.125359 451.996804 L 765.340984 451.996804 Q 770.340984 451.996804 770.340984 446.996804 L 770.340984 437.318679 Q 770.340984 432.318679 765.340984 432.318679 L 625.125359 432.318679 Q 620.125359 432.318679 620.125359 437.318679 L 620.125359 446.996804 Q 620.125359 451.996804 625.125359 451.996804 z" style="fill: #ffc0cb; opacity: 0.5; stroke: #000000; stroke-linejoin: miter"/>
    </g>
    <!-- COVID-19 (Omicron variant) -->
    <g transform="translate(625.125359 444.917117)scale(0.1 -0.1)">
     <defs>
      <path id="DejaVuSans-4f" d="M 2522 4238 Q 1834 4238 1429 3725 Q 1025 3213 1025 2328 Q 1025 1447 1429 934 Q 1834 422 2522 422 Q 3209 422 3611 934 Q 4013 1447 4013 2328 Q 4013 3213 3611 3725 Q 3209 4238 2522 4238 zM 2522 4750 Q 3503 4750 4090 4092 Q 4678 3434 4678 2328 Q 4678 1225 4090 567 Q 3503 -91 2522 -91 Q 1538 -91 948 565 Q 359 1222 359 2328 Q 359 3434 948 4092 Q 1538 4750 2522 4750 z" transform="scale(0.015625)"/>
      <path id="DejaVuSans-49" d="M 628 4666 L 1259 4666 L 1259 0 L 628 0 L 628 4666 z" transform="scale(0.015625)"/>
      <path id="DejaVuSans-44" d="M 1259 4147 L 1259 519 L 2022 519 Q 2988 519 3436 956 Q 3884 1394 3884 2338 Q 3884 3275 3436 3711 Q 2988 4147 2022 4147 L 1259 4147 zM 628 4666 L 1925 4666 Q 3281 4666 3915 4102 Q 4550 3538 4550 2338 Q 4550 1131 3912 565 Q 3275 0 1925 0 L 628 0 L 628 4666 z" transform="scale(0.015625)"/>
      <path id="DejaVuSans-2d" d="M 313 2009 L 1997 2009 L 1997 1497 L 313 1497 L 313 2009 z" transform="scale(0.015625)"/>
      <path id="DejaVuSans-39" d="M 703 97 L 703 672 Q 941 559 1184 500 Q 1428 441 1663 441 Q 2288 441 2617 861 Q 2947 1281 2994 2138 Q 2813 1869 2534 1725 Q 2256 1581 1919 1581 Q 1219 1581 811 2004 Q 403 2428 403 3163 Q 403 3881 828 4315 Q 1253 4750 1959 4750 Q 2769 4750 3195 4129 Q 3622 3509 3622 2328 Q 3622 1225 3098 567 Q 2575 -91 1691 -91 Q 1453 -91 1209 -44 Q 966 3 703 97 zM 1959 2075 Q 2384 2075 2632 2365 Q 2881 2656 2881 3163 Q 2881 3666 2632 3958 Q 2384 4250 1959 4250 Q 1534 4250 1286 3958 Q 1038 3666 1038 3163 Q 1038 2656 1286 2365 Q 1534 2075 1959 2075 z" transform="scale(0.015625)"/>
      <path id="DejaVuSans-76" d="M 191 3500 L 800 3500 L 1894 563 L 2988 3500 L 3597 3500 L 2284 0 L 1503 0 L 191 3500 z" transform="scale(0.015625)"/>
     </defs>
     <use xlink:href="#DejaVuSans-43"/>
     <use xlink:href="#DejaVuSans-4f" x="69.824219"/>
     <use xlink:href="#DejaVuSans-56" x="146.785156"/>
     <use xlink:href="#DejaVuSans-49" x="215.193359"/>
     <use xlink:href="#DejaVuSans-44" x="244.685547"/>
     <use xlink:href="#DejaVuSans-2d" x="321.6875"/>
     <use xlink:href="#DejaVuSans-31" x="357.771484"/>
     <use xlink:href="#DejaVuSans-39" x="421.394531"/>
     <use xlink:href="#DejaVuSans-20" x="485.017578"/>
     <use xlink:href="#DejaVuSans-28" x="516.804688"/>
     <use xlink:href="#DejaVuSans-4f" x="555.818359"/>
     <use xlink:href="#DejaVuSans-6d" x="634.529297"/>
     <use xlink:href="#DejaVuSans-69" x="731.941406"/>
     <use xlink:href="#DejaVuSans-63" x="759.724609"/>
     <use xlink:href="#DejaVuSans-72" x="814.705078"/>
     <use xlink:href="#DejaVuSans-6f" x="853.568359"/>
     <use xlink:href="#DejaVuSans-6e" x="914.75"/>
     <use xlink:href="#DejaVuSans-20" x="978.128906"/>
     <use xlink:href="#DejaVuSans-76" x="1009.916016"/>
     <use xlink:href="#DejaVuSans-61" x="1069.095703"/>
     <use xlink:href="#DejaVuSans-72" x="1130.375"/>
     <use xlink:href="#DejaVuSans-69" x="1171.488281"/>
     <use xlink:href="#DejaVuSans-61" x="1199.271484"/>
     <use xlink:href="#DejaVuSans-6e" x="1260.550781"/>
     <use xlink:href="#DejaVuSans-74" x="1323.929688"/>
     <use xlink:href="#DejaVuSans-29" x="1363.138672"/>
    </g>
   </g>
   <g id="patch_13">
    <path d="M 407.362146 476.157718 Q 416.138732 479.560851 423.872905 482.559787 " style="fill: none; stroke: #000000; stroke-linecap: round"/>
    <path d="M 420.866505 479.248963 L 423.872905 482.559787 L 419.420406 482.978413 " style="fill: none; stroke: #000000; stroke-linecap: round"/>
   </g>
   <g id="text_16">
    <g id="patch_14">
     <path d="M 376.780861 478.687351 L 400.241799 478.687351 Q 405.241799 478.687351 405.241799 473.687351 L 405.241799 464.009226 Q 405.241799 459.009226 400.241799 459.009226 L 376.780861 459.009226 Q 371.780861 459.009226 371.780861 464.009226 L 371.780861 473.687351 Q 371.780861 478.687351 376.780861 478.687351 z" style="fill: #ffff00; opacity: 0.5; stroke: #000000; stroke-linejoin: miter"/>
    </g>
    <!-- Polio -->
    <g transform="translate(376.780861 471.607663)scale(0.1 -0.1)">
     <defs>
      <path id="DejaVuSans-50" d="M 1259 4147 L 1259 2394 L 2053 2394 Q 2494 2394 2734 2622 Q 2975 2850 2975 3272 Q 2975 3691 2734 3919 Q 2494 4147 2053 4147 L 1259 4147 zM 628 4666 L 2053 4666 Q 2838 4666 3239 4311 Q 3641 3956 3641 3272 Q 3641 2581 3239 2228 Q 2838 1875 2053 1875 L 1259 1875 L 1259 0 L 628 0 L 628 4666 z" transform="scale(0.015625)"/>
     </defs>
     <use xlink:href="#DejaVuSans-50"/>
     <use xlink:href="#DejaVuSans-6f" x="56.677734"/>
     <use xlink:href="#DejaVuSans-6c" x="117.859375"/>
     <use xlink:href="#DejaVuSans-69" x="145.642578"/>
     <use xlink:href="#DejaVuSans-6f" x="173.425781"/>
    </g>
   </g>
   <g id="patch_15">
    <path d="M 594.454786 404.331277 Q 527.541393 435.733122 461.640124 466.659986 " style="fill: none; stroke: #000000; stroke-linecap: round"/>
    <path d="M 466.110877 466.771186 L 461.640124 466.659986 L 464.411536 463.150104 " style="fill: none; stroke: #000000; stroke-linecap: round"/>
   </g>
   <g id="text_17">
    <g id="patch_16">
     <path d="M 468.819139 402.983849 L 767.764451 402.983849 Q 772.764451 402.983849 772.764451 397.983849 L 772.764451 388.305724 Q 772.764451 383.305724 767.764451 383.305724 L 468.819139 383.305724 Q 463.819139 383.305724 463.819139 388.305724 L 463.819139 397.983849 Q 463.819139 402.983849 468.819139 402.983849 z" style="fill: #ffff00; opacity: 0.5; stroke: #000000; stroke-linejoin: miter"/>
    </g>
    <!-- Pertussis (whooping cough), infants in developing countries -->
    <g transform="translate(468.819139 395.904161)scale(0.1 -0.1)">
     <defs>
      <path id="DejaVuSans-67" d="M 2906 1791 Q 2906 2416 2648 2759 Q 2391 3103 1925 3103 Q 1463 3103 1205 2759 Q 947 2416 947 1791 Q 947 1169 1205 825 Q 1463 481 1925 481 Q 2391 481 2648 825 Q 2906 1169 2906 1791 zM 3481 434 Q 3481 -459 3084 -895 Q 2688 -1331 1869 -1331 Q 1566 -1331 1297 -1286 Q 1028 -1241 775 -1147 L 775 -588 Q 1028 -725 1275 -790 Q 1522 -856 1778 -856 Q 2344 -856 2625 -561 Q 2906 -266 2906 331 L 2906 616 Q 2728 306 2450 153 Q 2172 0 1784 0 Q 1141 0 747 490 Q 353 981 353 1791 Q 353 2603 747 3093 Q 1141 3584 1784 3584 Q 2172 3584 2450 3431 Q 2728 3278 2906 2969 L 2906 3500 L 3481 3500 L 3481 434 z" transform="scale(0.015625)"/>
     </defs>
     <use xlink:href="#DejaVuSans-50"/>
     <use xlink:href="#DejaVuSans-65" x="56.677734"/>
     <use xlink:href="#DejaVuSans-72" x="118.201172"/>
     <use xlink:href="#DejaVuSans-74" x="159.314453"/>
     <use xlink:href="#DejaVuSans-75" x="198.523438"/>
     <use xlink:href="#DejaVuSans-73" x="261.902344"/>
     <use xlink:href="#DejaVuSans-73" x="314.001953"/>
     <use xlink:href="#DejaVuSans-69" x="366.101562"/>
     <use xlink:href="#DejaVuSans-73" x="393.884766"/>
     <use xlink:href="#DejaVuSans-20" x="445.984375"/>
     <use xlink:href="#DejaVuSans-28" x="477.771484"/>
     <use xlink:href="#DejaVuSans-77" x="516.785156"/>
     <use xlink:href="#DejaVuSans-68" x="598.572266"/>
     <use xlink:href="#DejaVuSans-6f" x="661.951172"/>
     <use xlink:href="#DejaVuSans-6f" x="723.132812"/>
     <use xlink:href="#DejaVuSans-70" x="784.314453"/>
     <use xlink:href="#DejaVuSans-69" x="847.791016"/>
     <use xlink:href="#DejaVuSans-6e" x="875.574219"/>
     <use xlink:href="#DejaVuSans-67" x="938.953125"/>
     <use xlink:href="#DejaVuSans-20" x="1002.429688"/>
     <use xlink:href="#DejaVuSans-63" x="1034.216797"/>
     <use xlink:href="#DejaVuSans-6f" x="1089.197266"/>
     <use xlink:href="#DejaVuSans-75" x="1150.378906"/>
     <use xlink:href="#DejaVuSans-67" x="1213.757812"/>
     <use xlink:href="#DejaVuSans-68" x="1277.234375"/>
     <use xlink:href="#DejaVuSans-29" x="1340.613281"/>
     <use xlink:href="#DejaVuSans-2c" x="1379.626953"/>
     <use xlink:href="#DejaVuSans-20" x="1411.414062"/>
     <use xlink:href="#DejaVuSans-69" x="1443.201172"/>
     <use xlink:href="#DejaVuSans-6e" x="1470.984375"/>
     <use xlink:href="#DejaVuSans-66" x="1534.363281"/>
     <use xlink:href="#DejaVuSans-61" x="1569.568359"/>
     <use xlink:href="#DejaVuSans-6e" x="1630.847656"/>
     <use xlink:href="#DejaVuSans-74" x="1694.226562"/>
     <use xlink:href="#DejaVuSans-73" x="1733.435547"/>
     <use xlink:href="#DejaVuSans-20" x="1785.535156"/>
     <use xlink:href="#DejaVuSans-69" x="1817.322266"/>
     <use xlink:href="#DejaVuSans-6e" x="1845.105469"/>
     <use xlink:href="#DejaVuSans-20" x="1908.484375"/>
     <use xlink:href="#DejaVuSans-64" x="1940.271484"/>
     <use xlink:href="#DejaVuSans-65" x="2003.748047"/>
     <use xlink:href="#DejaVuSans-76" x="2065.271484"/>
     <use xlink:href="#DejaVuSans-65" x="2124.451172"/>
     <use xlink:href="#DejaVuSans-6c" x="2185.974609"/>
     <use xlink:href="#DejaVuSans-6f" x="2213.757812"/>
     <use xlink:href="#DejaVuSans-70" x="2274.939453"/>
     <use xlink:href="#DejaVuSans-69" x="2338.416016"/>
     <use xlink:href="#DejaVuSans-6e" x="2366.199219"/>
     <use xlink:href="#DejaVuSans-67" x="2429.578125"/>
     <use xlink:href="#DejaVuSans-20" x="2493.054688"/>
     <use xlink:href="#DejaVuSans-63" x="2524.841797"/>
     <use xlink:href="#DejaVuSans-6f" x="2579.822266"/>
     <use xlink:href="#DejaVuSans-75" x="2641.003906"/>
     <use xlink:href="#DejaVuSans-6e" x="2704.382812"/>
     <use xlink:href="#DejaVuSans-74" x="2767.761719"/>
     <use xlink:href="#DejaVuSans-72" x="2806.970703"/>
     <use xlink:href="#DejaVuSans-69" x="2848.083984"/>
     <use xlink:href="#DejaVuSans-65" x="2875.867188"/>
     <use xlink:href="#DejaVuSans-73" x="2937.390625"/>
    </g>
   </g>
   <g id="patch_17">
    <path d="M 588.264375 428.581995 Q 524.472065 453.844753 461.719247 478.695856 " style="fill: none; stroke: #000000; stroke-linecap: round"/>
    <path d="M 466.174631 479.082573 L 461.719247 478.695856 L 464.701851 475.363578 " style="fill: none; stroke: #000000; stroke-linecap: round"/>
   </g>
   <g id="text_18">
    <g id="patch_18">
     <path d="M 463.819139 427.344344 L 768.650389 427.344344 Q 773.650389 427.344344 773.650389 422.344344 L 773.650389 412.666219 Q 773.650389 407.666219 768.650389 407.666219 L 463.819139 407.666219 Q 458.819139 407.666219 458.819139 412.666219 L 458.819139 422.344344 Q 458.819139 427.344344 463.819139 427.344344 z" style="fill: #ffff00; opacity: 0.5; stroke: #000000; stroke-linejoin: miter"/>
    </g>
    <!-- Pertussis (whooping cough), children in developing countries -->
    <g transform="translate(463.819139 420.264656)scale(0.1 -0.1)">
     <use xlink:href="#DejaVuSans-50"/>
     <use xlink:href="#DejaVuSans-65" x="56.677734"/>
     <use xlink:href="#DejaVuSans-72" x="118.201172"/>
     <use xlink:href="#DejaVuSans-74" x="159.314453"/>
     <use xlink:href="#DejaVuSans-75" x="198.523438"/>
     <use xlink:href="#DejaVuSans-73" x="261.902344"/>
     <use xlink:href="#DejaVuSans-73" x="314.001953"/>
     <use xlink:href="#DejaVuSans-69" x="366.101562"/>
     <use xlink:href="#DejaVuSans-73" x="393.884766"/>
     <use xlink:href="#DejaVuSans-20" x="445.984375"/>
     <use xlink:href="#DejaVuSans-28" x="477.771484"/>
     <use xlink:href="#DejaVuSans-77" x="516.785156"/>
     <use xlink:href="#DejaVuSans-68" x="598.572266"/>
     <use xlink:href="#DejaVuSans-6f" x="661.951172"/>
     <use xlink:href="#DejaVuSans-6f" x="723.132812"/>
     <use xlink:href="#DejaVuSans-70" x="784.314453"/>
     <use xlink:href="#DejaVuSans-69" x="847.791016"/>
     <use xlink:href="#DejaVuSans-6e" x="875.574219"/>
     <use xlink:href="#DejaVuSans-67" x="938.953125"/>
     <use xlink:href="#DejaVuSans-20" x="1002.429688"/>
     <use xlink:href="#DejaVuSans-63" x="1034.216797"/>
     <use xlink:href="#DejaVuSans-6f" x="1089.197266"/>
     <use xlink:href="#DejaVuSans-75" x="1150.378906"/>
     <use xlink:href="#DejaVuSans-67" x="1213.757812"/>
     <use xlink:href="#DejaVuSans-68" x="1277.234375"/>
     <use xlink:href="#DejaVuSans-29" x="1340.613281"/>
     <use xlink:href="#DejaVuSans-2c" x="1379.626953"/>
     <use xlink:href="#DejaVuSans-20" x="1411.414062"/>
     <use xlink:href="#DejaVuSans-63" x="1443.201172"/>
     <use xlink:href="#DejaVuSans-68" x="1498.181641"/>
     <use xlink:href="#DejaVuSans-69" x="1561.560547"/>
     <use xlink:href="#DejaVuSans-6c" x="1589.34375"/>
     <use xlink:href="#DejaVuSans-64" x="1617.126953"/>
     <use xlink:href="#DejaVuSans-72" x="1680.603516"/>
     <use xlink:href="#DejaVuSans-65" x="1719.466797"/>
     <use xlink:href="#DejaVuSans-6e" x="1780.990234"/>
     <use xlink:href="#DejaVuSans-20" x="1844.369141"/>
     <use xlink:href="#DejaVuSans-69" x="1876.15625"/>
     <use xlink:href="#DejaVuSans-6e" x="1903.939453"/>
     <use xlink:href="#DejaVuSans-20" x="1967.318359"/>
     <use xlink:href="#DejaVuSans-64" x="1999.105469"/>
     <use xlink:href="#DejaVuSans-65" x="2062.582031"/>
     <use xlink:href="#DejaVuSans-76" x="2124.105469"/>
     <use xlink:href="#DejaVuSans-65" x="2183.285156"/>
     <use xlink:href="#DejaVuSans-6c" x="2244.808594"/>
     <use xlink:href="#DejaVuSans-6f" x="2272.591797"/>
     <use xlink:href="#DejaVuSans-70" x="2333.773438"/>
     <use xlink:href="#DejaVuSans-69" x="2397.25"/>
     <use xlink:href="#DejaVuSans-6e" x="2425.033203"/>
     <use xlink:href="#DejaVuSans-67" x="2488.412109"/>
     <use xlink:href="#DejaVuSans-20" x="2551.888672"/>
     <use xlink:href="#DejaVuSans-63" x="2583.675781"/>
     <use xlink:href="#DejaVuSans-6f" x="2638.65625"/>
     <use xlink:href="#DejaVuSans-75" x="2699.837891"/>
     <use xlink:href="#DejaVuSans-6e" x="2763.216797"/>
     <use xlink:href="#DejaVuSans-74" x="2826.595703"/>
     <use xlink:href="#DejaVuSans-72" x="2865.804688"/>
     <use xlink:href="#DejaVuSans-69" x="2906.917969"/>
     <use xlink:href="#DejaVuSans-65" x="2934.701172"/>
     <use xlink:href="#DejaVuSans-73" x="2996.224609"/>
    </g>
   </g>
   <g id="patch_19">
    <path d="M 435.286192 371.50205 Q 434.256332 425.74962 433.247694 478.879357 " style="fill: none; stroke: #000000; stroke-linecap: round"/>
    <path d="M 435.323257 474.918039 L 433.247694 478.879357 L 431.323978 474.842115 " style="fill: none; stroke: #000000; stroke-linecap: round"/>
   </g>
   <g id="text_19">
    <g id="patch_20">
     <path d="M 373.188511 368.996804 L 497.852573 368.996804 Q 502.852573 368.996804 502.852573 363.996804 L 502.852573 354.318679 Q 502.852573 349.318679 497.852573 349.318679 L 373.188511 349.318679 Q 368.188511 349.318679 368.188511 354.318679 L 368.188511 363.996804 Q 368.188511 368.996804 373.188511 368.996804 z" style="fill: #ffc0cb; opacity: 0.5; stroke: #000000; stroke-linejoin: miter"/>
    </g>
    <!-- COVID-19 (Delta variant) -->
    <g transform="translate(373.188511 361.917117)scale(0.1 -0.1)">
     <use xlink:href="#DejaVuSans-43"/>
     <use xlink:href="#DejaVuSans-4f" x="69.824219"/>
     <use xlink:href="#DejaVuSans-56" x="146.785156"/>
     <use xlink:href="#DejaVuSans-49" x="215.193359"/>
     <use xlink:href="#DejaVuSans-44" x="244.685547"/>
     <use xlink:href="#DejaVuSans-2d" x="321.6875"/>
     <use xlink:href="#DejaVuSans-31" x="357.771484"/>
     <use xlink:href="#DejaVuSans-39" x="421.394531"/>
     <use xlink:href="#DejaVuSans-20" x="485.017578"/>
     <use xlink:href="#DejaVuSans-28" x="516.804688"/>
     <use xlink:href="#DejaVuSans-44" x="555.818359"/>
     <use xlink:href="#DejaVuSans-65" x="632.820312"/>
     <use xlink:href="#DejaVuSans-6c" x="694.34375"/>
     <use xlink:href="#DejaVuSans-74" x="722.126953"/>
     <use xlink:href="#DejaVuSans-61" x="761.335938"/>
     <use xlink:href="#DejaVuSans-20" x="822.615234"/>
     <use xlink:href="#DejaVuSans-76" x="854.402344"/>
     <use xlink:href="#DejaVuSans-61" x="913.582031"/>
     <use xlink:href="#DejaVuSans-72" x="974.861328"/>
     <use xlink:href="#DejaVuSans-69" x="1015.974609"/>
     <use xlink:href="#DejaVuSans-61" x="1043.757812"/>
     <use xlink:href="#DejaVuSans-6e" x="1105.037109"/>
     <use xlink:href="#DejaVuSans-74" x="1168.416016"/>
     <use xlink:href="#DejaVuSans-29" x="1207.625"/>
    </g>
   </g>
   <g id="patch_21">
    <path d="M 356.961326 414.482923 Q 359.748164 447.24471 362.440241 478.892485 " style="fill: none; stroke: #000000; stroke-linecap: round"/>
    <path d="M 364.094014 474.737364 L 362.440241 478.892485 L 360.108408 475.076394 " style="fill: none; stroke: #000000; stroke-linecap: round"/>
   </g>
   <g id="text_20">
    <g id="patch_22">
     <path d="M 292.704306 411.996804 L 419.121494 411.996804 Q 424.121494 411.996804 424.121494 406.996804 L 424.121494 397.318679 Q 424.121494 392.318679 419.121494 392.318679 L 292.704306 392.318679 Q 287.704306 392.318679 287.704306 397.318679 L 287.704306 406.996804 Q 287.704306 411.996804 292.704306 411.996804 z" style="fill: #ffc0cb; opacity: 0.5; stroke: #000000; stroke-linejoin: miter"/>
    </g>
    <!-- COVID-19 (Alpha variant) -->
    <g transform="translate(292.704306 404.917117)scale(0.1 -0.1)">
     <defs>
      <path id="DejaVuSans-41" d="M 2188 4044 L 1331 1722 L 3047 1722 L 2188 4044 zM 1831 4666 L 2547 4666 L 4325 0 L 3669 0 L 3244 1197 L 1141 1197 L 716 0 L 50 0 L 1831 4666 z" transform="scale(0.015625)"/>
     </defs>
     <use xlink:href="#DejaVuSans-43"/>
     <use xlink:href="#DejaVuSans-4f" x="69.824219"/>
     <use xlink:href="#DejaVuSans-56" x="146.785156"/>
     <use xlink:href="#DejaVuSans-49" x="215.193359"/>
     <use xlink:href="#DejaVuSans-44" x="244.685547"/>
     <use xlink:href="#DejaVuSans-2d" x="321.6875"/>
     <use xlink:href="#DejaVuSans-31" x="357.771484"/>
     <use xlink:href="#DejaVuSans-39" x="421.394531"/>
     <use xlink:href="#DejaVuSans-20" x="485.017578"/>
     <use xlink:href="#DejaVuSans-28" x="516.804688"/>
     <use xlink:href="#DejaVuSans-41" x="555.818359"/>
     <use xlink:href="#DejaVuSans-6c" x="624.226562"/>
     <use xlink:href="#DejaVuSans-70" x="652.009766"/>
     <use xlink:href="#DejaVuSans-68" x="715.486328"/>
     <use xlink:href="#DejaVuSans-61" x="778.865234"/>
     <use xlink:href="#DejaVuSans-20" x="840.144531"/>
     <use xlink:href="#DejaVuSans-76" x="871.931641"/>
     <use xlink:href="#DejaVuSans-61" x="931.111328"/>
     <use xlink:href="#DejaVuSans-72" x="992.390625"/>
     <use xlink:href="#DejaVuSans-69" x="1033.503906"/>
     <use xlink:href="#DejaVuSans-61" x="1061.287109"/>
     <use xlink:href="#DejaVuSans-6e" x="1122.566406"/>
     <use xlink:href="#DejaVuSans-74" x="1185.945312"/>
     <use xlink:href="#DejaVuSans-29" x="1225.154297"/>
    </g>
   </g>
   <g id="patch_23">
    <path d="M 272.545782 98.230951 Q 254.520152 93.798065 237.580209 89.632172 " style="fill: none; stroke: #000000; stroke-linecap: round"/>
    <path d="M 240.986866 92.529531 L 237.580209 89.632172 L 241.94209 88.645262 " style="fill: none; stroke: #000000; stroke-linecap: round"/>
   </g>
   <g id="text_21">
    <g id="patch_24">
     <path d="M 234.551196 118.887273 L 398.513696 118.887273 Q 403.513696 118.887273 403.513696 113.887273 L 403.513696 104.209148 Q 403.513696 99.209148 398.513696 99.209148 L 234.551196 99.209148 Q 229.551196 99.209148 229.551196 104.209148 L 229.551196 113.887273 Q 229.551196 118.887273 234.551196 118.887273 z" style="fill: #ffff00; opacity: 0.5; stroke: #000000; stroke-linejoin: miter"/>
    </g>
    <!-- AIDS/HIV infection (most deadly) -->
    <g transform="translate(234.551196 111.807585)scale(0.1 -0.1)">
     <defs>
      <path id="DejaVuSans-53" d="M 3425 4513 L 3425 3897 Q 3066 4069 2747 4153 Q 2428 4238 2131 4238 Q 1616 4238 1336 4038 Q 1056 3838 1056 3469 Q 1056 3159 1242 3001 Q 1428 2844 1947 2747 L 2328 2669 Q 3034 2534 3370 2195 Q 3706 1856 3706 1288 Q 3706 609 3251 259 Q 2797 -91 1919 -91 Q 1588 -91 1214 -16 Q 841 59 441 206 L 441 856 Q 825 641 1194 531 Q 1563 422 1919 422 Q 2459 422 2753 634 Q 3047 847 3047 1241 Q 3047 1584 2836 1778 Q 2625 1972 2144 2069 L 1759 2144 Q 1053 2284 737 2584 Q 422 2884 422 3419 Q 422 4038 858 4394 Q 1294 4750 2059 4750 Q 2388 4750 2728 4690 Q 3069 4631 3425 4513 z" transform="scale(0.015625)"/>
      <path id="DejaVuSans-2f" d="M 1625 4666 L 2156 4666 L 531 -594 L 0 -594 L 1625 4666 z" transform="scale(0.015625)"/>
      <path id="DejaVuSans-48" d="M 628 4666 L 1259 4666 L 1259 2753 L 3553 2753 L 3553 4666 L 4184 4666 L 4184 0 L 3553 0 L 3553 2222 L 1259 2222 L 1259 0 L 628 0 L 628 4666 z" transform="scale(0.015625)"/>
     </defs>
     <use xlink:href="#DejaVuSans-41"/>
     <use xlink:href="#DejaVuSans-49" x="68.408203"/>
     <use xlink:href="#DejaVuSans-44" x="97.900391"/>
     <use xlink:href="#DejaVuSans-53" x="174.902344"/>
     <use xlink:href="#DejaVuSans-2f" x="238.378906"/>
     <use xlink:href="#DejaVuSans-48" x="272.070312"/>
     <use xlink:href="#DejaVuSans-49" x="347.265625"/>
     <use xlink:href="#DejaVuSans-56" x="376.757812"/>
     <use xlink:href="#DejaVuSans-20" x="445.166016"/>
     <use xlink:href="#DejaVuSans-69" x="476.953125"/>
     <use xlink:href="#DejaVuSans-6e" x="504.736328"/>
     <use xlink:href="#DejaVuSans-66" x="568.115234"/>
     <use xlink:href="#DejaVuSans-65" x="603.320312"/>
     <use xlink:href="#DejaVuSans-63" x="664.84375"/>
     <use xlink:href="#DejaVuSans-74" x="719.824219"/>
     <use xlink:href="#DejaVuSans-69" x="759.033203"/>
     <use xlink:href="#DejaVuSans-6f" x="786.816406"/>
     <use xlink:href="#DejaVuSans-6e" x="847.998047"/>
     <use xlink:href="#DejaVuSans-20" x="911.376953"/>
     <use xlink:href="#DejaVuSans-28" x="943.164062"/>
     <use xlink:href="#DejaVuSans-6d" x="982.177734"/>
     <use xlink:href="#DejaVuSans-6f" x="1079.589844"/>
     <use xlink:href="#DejaVuSans-73" x="1140.771484"/>
     <use xlink:href="#DejaVuSans-74" x="1192.871094"/>
     <use xlink:href="#DejaVuSans-20" x="1232.080078"/>
     <use xlink:href="#DejaVuSans-64" x="1263.867188"/>
     <use xlink:href="#DejaVuSans-65" x="1327.34375"/>
     <use xlink:href="#DejaVuSans-61" x="1388.867188"/>
     <use xlink:href="#DejaVuSans-64" x="1450.146484"/>
     <use xlink:href="#DejaVuSans-6c" x="1513.623047"/>
     <use xlink:href="#DejaVuSans-79" x="1541.40625"/>
     <use xlink:href="#DejaVuSans-29" x="1600.585938"/>
    </g>
   </g>
   <g id="patch_25">
    <path d="M 253.003521 468.16042 Q 271.669934 474.746299 289.282011 480.960188 " style="fill: none; stroke: #000000; stroke-linecap: round"/>
    <path d="M 286.175343 477.743262 L 289.282011 480.960188 L 284.844469 481.515367 " style="fill: none; stroke: #000000; stroke-linecap: round"/>
   </g>
   <g id="text_22">
    <g id="patch_26">
     <path d="M 127.220102 466.996804 L 316.416977 466.996804 Q 321.416977 466.996804 321.416977 461.996804 L 321.416977 452.318679 Q 321.416977 447.318679 316.416977 447.318679 L 127.220102 447.318679 Q 122.220102 447.318679 122.220102 452.318679 L 122.220102 461.996804 Q 122.220102 466.996804 127.220102 466.996804 z" style="fill: #ffc0cb; opacity: 0.5; stroke: #000000; stroke-linejoin: miter"/>
    </g>
    <!-- Coronavirus disease 2019 (COVID-19) -->
    <g transform="translate(127.220102 459.917117)scale(0.1 -0.1)">
     <use xlink:href="#DejaVuSans-43"/>
     <use xlink:href="#DejaVuSans-6f" x="69.824219"/>
     <use xlink:href="#DejaVuSans-72" x="131.005859"/>
     <use xlink:href="#DejaVuSans-6f" x="169.869141"/>
     <use xlink:href="#DejaVuSans-6e" x="231.050781"/>
     <use xlink:href="#DejaVuSans-61" x="294.429688"/>
     <use xlink:href="#DejaVuSans-76" x="355.708984"/>
     <use xlink:href="#DejaVuSans-69" x="414.888672"/>
     <use xlink:href="#DejaVuSans-72" x="442.671875"/>
     <use xlink:href="#DejaVuSans-75" x="483.785156"/>
     <use xlink:href="#DejaVuSans-73" x="547.164062"/>
     <use xlink:href="#DejaVuSans-20" x="599.263672"/>
     <use xlink:href="#DejaVuSans-64" x="631.050781"/>
     <use xlink:href="#DejaVuSans-69" x="694.527344"/>
     <use xlink:href="#DejaVuSans-73" x="722.310547"/>
     <use xlink:href="#DejaVuSans-65" x="774.410156"/>
     <use xlink:href="#DejaVuSans-61" x="835.933594"/>
     <use xlink:href="#DejaVuSans-73" x="897.212891"/>
     <use xlink:href="#DejaVuSans-65" x="949.3125"/>
     <use xlink:href="#DejaVuSans-20" x="1010.835938"/>
     <use xlink:href="#DejaVuSans-32" x="1042.623047"/>
     <use xlink:href="#DejaVuSans-30" x="1106.246094"/>
     <use xlink:href="#DejaVuSans-31" x="1169.869141"/>
     <use xlink:href="#DejaVuSans-39" x="1233.492188"/>
     <use xlink:href="#DejaVuSans-20" x="1297.115234"/>
     <use xlink:href="#DejaVuSans-28" x="1328.902344"/>
     <use xlink:href="#DejaVuSans-43" x="1367.916016"/>
     <use xlink:href="#DejaVuSans-4f" x="1437.740234"/>
     <use xlink:href="#DejaVuSans-56" x="1514.701172"/>
     <use xlink:href="#DejaVuSans-49" x="1583.109375"/>
     <use xlink:href="#DejaVuSans-44" x="1612.601562"/>
     <use xlink:href="#DejaVuSans-2d" x="1689.603516"/>
     <use xlink:href="#DejaVuSans-31" x="1725.6875"/>
     <use xlink:href="#DejaVuSans-39" x="1789.310547"/>
     <use xlink:href="#DejaVuSans-29" x="1852.933594"/>
    </g>
   </g>
   <g id="patch_27">
    <path d="M 240.608789 365.410456 Q 237.665584 399.667293 234.818084 432.810201 " style="fill: none; stroke: #000000; stroke-linecap: round"/>
    <path d="M 237.153145 428.996083 L 234.818084 432.810201 L 233.167826 428.653682 " style="fill: none; stroke: #000000; stroke-linecap: round"/>
   </g>
   <g id="text_23">
    <g id="patch_28">
     <path d="M 134.551196 362.916583 L 348.785571 362.916583 Q 353.785571 362.916583 353.785571 357.916583 L 353.785571 348.238458 Q 353.785571 343.238458 348.785571 343.238458 L 134.551196 343.238458 Q 129.551196 343.238458 129.551196 348.238458 L 129.551196 357.916583 Q 129.551196 362.916583 134.551196 362.916583 z" style="fill: #ffff00; opacity: 0.5; stroke: #000000; stroke-linejoin: miter"/>
    </g>
    <!-- Severe acute respiratory syndrome (SARS) -->
    <g transform="translate(134.551196 355.836896)scale(0.1 -0.1)">
     <use xlink:href="#DejaVuSans-53"/>
     <use xlink:href="#DejaVuSans-65" x="63.476562"/>
     <use xlink:href="#DejaVuSans-76" x="125"/>
     <use xlink:href="#DejaVuSans-65" x="184.179688"/>
     <use xlink:href="#DejaVuSans-72" x="245.703125"/>
     <use xlink:href="#DejaVuSans-65" x="284.566406"/>
     <use xlink:href="#DejaVuSans-20" x="346.089844"/>
     <use xlink:href="#DejaVuSans-61" x="377.876953"/>
     <use xlink:href="#DejaVuSans-63" x="439.15625"/>
     <use xlink:href="#DejaVuSans-75" x="494.136719"/>
     <use xlink:href="#DejaVuSans-74" x="557.515625"/>
     <use xlink:href="#DejaVuSans-65" x="596.724609"/>
     <use xlink:href="#DejaVuSans-20" x="658.248047"/>
     <use xlink:href="#DejaVuSans-72" x="690.035156"/>
     <use xlink:href="#DejaVuSans-65" x="728.898438"/>
     <use xlink:href="#DejaVuSans-73" x="790.421875"/>
     <use xlink:href="#DejaVuSans-70" x="842.521484"/>
     <use xlink:href="#DejaVuSans-69" x="905.998047"/>
     <use xlink:href="#DejaVuSans-72" x="933.78125"/>
     <use xlink:href="#DejaVuSans-61" x="974.894531"/>
     <use xlink:href="#DejaVuSans-74" x="1036.173828"/>
     <use xlink:href="#DejaVuSans-6f" x="1075.382812"/>
     <use xlink:href="#DejaVuSans-72" x="1136.564453"/>
     <use xlink:href="#DejaVuSans-79" x="1177.677734"/>
     <use xlink:href="#DejaVuSans-20" x="1236.857422"/>
     <use xlink:href="#DejaVuSans-73" x="1268.644531"/>
     <use xlink:href="#DejaVuSans-79" x="1320.744141"/>
     <use xlink:href="#DejaVuSans-6e" x="1379.923828"/>
     <use xlink:href="#DejaVuSans-64" x="1443.302734"/>
     <use xlink:href="#DejaVuSans-72" x="1506.779297"/>
     <use xlink:href="#DejaVuSans-6f" x="1545.642578"/>
     <use xlink:href="#DejaVuSans-6d" x="1606.824219"/>
     <use xlink:href="#DejaVuSans-65" x="1704.236328"/>
     <use xlink:href="#DejaVuSans-20" x="1765.759766"/>
     <use xlink:href="#DejaVuSans-28" x="1797.546875"/>
     <use xlink:href="#DejaVuSans-53" x="1836.560547"/>
     <use xlink:href="#DejaVuSans-41" x="1901.912109"/>
     <use xlink:href="#DejaVuSans-52" x="1970.320312"/>
     <use xlink:href="#DejaVuSans-53" x="2039.802734"/>
     <use xlink:href="#DejaVuSans-29" x="2103.279297"/>
    </g>
   </g>
   <g id="patch_29">
    <path d="M 312.617502 444.997178 Q 261.704172 464.047608 211.837974 482.706229 " style="fill: none; stroke: #000000; stroke-linecap: round"/>
    <path d="M 216.285197 483.177616 L 211.837974 482.706229 L 214.883418 479.431282 " style="fill: none; stroke: #000000; stroke-linecap: round"/>
   </g>
   <g id="text_24">
    <g id="patch_30">
     <path d="M 258.920576 443.797842 L 425.315888 443.797842 Q 430.315888 443.797842 430.315888 438.797842 L 430.315888 429.119717 Q 430.315888 424.119717 425.315888 424.119717 L 258.920576 424.119717 Q 253.920576 424.119717 253.920576 429.119717 L 253.920576 438.797842 Q 253.920576 443.797842 258.920576 443.797842 z" style="fill: #ffff00; opacity: 0.5; stroke: #000000; stroke-linejoin: miter"/>
    </g>
    <!-- Influenza (2009 pandemic strain) -->
    <g transform="translate(258.920576 436.718155)scale(0.1 -0.1)">
     <defs>
      <path id="DejaVuSans-7a" d="M 353 3500 L 3084 3500 L 3084 2975 L 922 459 L 3084 459 L 3084 0 L 275 0 L 275 525 L 2438 3041 L 353 3041 L 353 3500 z" transform="scale(0.015625)"/>
     </defs>
     <use xlink:href="#DejaVuSans-49"/>
     <use xlink:href="#DejaVuSans-6e" x="29.492188"/>
     <use xlink:href="#DejaVuSans-66" x="92.871094"/>
     <use xlink:href="#DejaVuSans-6c" x="128.076172"/>
     <use xlink:href="#DejaVuSans-75" x="155.859375"/>
     <use xlink:href="#DejaVuSans-65" x="219.238281"/>
     <use xlink:href="#DejaVuSans-6e" x="280.761719"/>
     <use xlink:href="#DejaVuSans-7a" x="344.140625"/>
     <use xlink:href="#DejaVuSans-61" x="396.630859"/>
     <use xlink:href="#DejaVuSans-20" x="457.910156"/>
     <use xlink:href="#DejaVuSans-28" x="489.697266"/>
     <use xlink:href="#DejaVuSans-32" x="528.710938"/>
     <use xlink:href="#DejaVuSans-30" x="592.333984"/>
     <use xlink:href="#DejaVuSans-30" x="655.957031"/>
     <use xlink:href="#DejaVuSans-39" x="719.580078"/>
     <use xlink:href="#DejaVuSans-20" x="783.203125"/>
     <use xlink:href="#DejaVuSans-70" x="814.990234"/>
     <use xlink:href="#DejaVuSans-61" x="878.466797"/>
     <use xlink:href="#DejaVuSans-6e" x="939.746094"/>
     <use xlink:href="#DejaVuSans-64" x="1003.125"/>
     <use xlink:href="#DejaVuSans-65" x="1066.601562"/>
     <use xlink:href="#DejaVuSans-6d" x="1128.125"/>
     <use xlink:href="#DejaVuSans-69" x="1225.537109"/>
     <use xlink:href="#DejaVuSans-63" x="1253.320312"/>
     <use xlink:href="#DejaVuSans-20" x="1308.300781"/>
     <use xlink:href="#DejaVuSans-73" x="1340.087891"/>
     <use xlink:href="#DejaVuSans-74" x="1392.1875"/>
     <use xlink:href="#DejaVuSans-72" x="1431.396484"/>
     <use xlink:href="#DejaVuSans-61" x="1472.509766"/>
     <use xlink:href="#DejaVuSans-69" x="1533.789062"/>
     <use xlink:href="#DejaVuSans-6e" x="1561.572266"/>
     <use xlink:href="#DejaVuSans-29" x="1624.951172"/>
    </g>
   </g>
   <g id="patch_31">
    <path d="M 199.154789 421.276001 Q 194.575985 451.546662 190.164396 480.711864 " style="fill: none; stroke: #000000; stroke-linecap: round"/>
    <path d="M 192.740144 477.055975 L 190.164396 480.711864 L 188.785134 476.457732 " style="fill: none; stroke: #000000; stroke-linecap: round"/>
   </g>
   <g id="text_25">
    <g id="patch_32">
     <path d="M 124.697605 418.797842 L 277.33823 418.797842 Q 282.33823 418.797842 282.33823 413.797842 L 282.33823 404.119717 Q 282.33823 399.119717 277.33823 399.119717 L 124.697605 399.119717 Q 119.697605 399.119717 119.697605 404.119717 L 119.697605 413.797842 Q 119.697605 418.797842 124.697605 418.797842 z" style="fill: #ffff00; opacity: 0.5; stroke: #000000; stroke-linejoin: miter"/>
    </g>
    <!-- Seasonal Influenza, Worldwide -->
    <g transform="translate(124.697605 411.718155)scale(0.1 -0.1)">
     <defs>
      <path id="DejaVuSans-57" d="M 213 4666 L 850 4666 L 1831 722 L 2809 4666 L 3519 4666 L 4500 722 L 5478 4666 L 6119 4666 L 4947 0 L 4153 0 L 3169 4050 L 2175 0 L 1381 0 L 213 4666 z" transform="scale(0.015625)"/>
     </defs>
     <use xlink:href="#DejaVuSans-53"/>
     <use xlink:href="#DejaVuSans-65" x="63.476562"/>
     <use xlink:href="#DejaVuSans-61" x="125"/>
     <use xlink:href="#DejaVuSans-73" x="186.279297"/>
     <use xlink:href="#DejaVuSans-6f" x="238.378906"/>
     <use xlink:href="#DejaVuSans-6e" x="299.560547"/>
     <use xlink:href="#DejaVuSans-61" x="362.939453"/>
     <use xlink:href="#DejaVuSans-6c" x="424.21875"/>
     <use xlink:href="#DejaVuSans-20" x="452.001953"/>
     <use xlink:href="#DejaVuSans-49" x="483.789062"/>
     <use xlink:href="#DejaVuSans-6e" x="513.28125"/>
     <use xlink:href="#DejaVuSans-66" x="576.660156"/>
     <use xlink:href="#DejaVuSans-6c" x="611.865234"/>
     <use xlink:href="#DejaVuSans-75" x="639.648438"/>
     <use xlink:href="#DejaVuSans-65" x="703.027344"/>
     <use xlink:href="#DejaVuSans-6e" x="764.550781"/>
     <use xlink:href="#DejaVuSans-7a" x="827.929688"/>
     <use xlink:href="#DejaVuSans-61" x="880.419922"/>
     <use xlink:href="#DejaVuSans-2c" x="941.699219"/>
     <use xlink:href="#DejaVuSans-20" x="973.486328"/>
     <use xlink:href="#DejaVuSans-57" x="1005.273438"/>
     <use xlink:href="#DejaVuSans-6f" x="1098.275391"/>
     <use xlink:href="#DejaVuSans-72" x="1159.457031"/>
     <use xlink:href="#DejaVuSans-6c" x="1200.570312"/>
     <use xlink:href="#DejaVuSans-64" x="1228.353516"/>
     <use xlink:href="#DejaVuSans-77" x="1291.830078"/>
     <use xlink:href="#DejaVuSans-69" x="1373.617188"/>
     <use xlink:href="#DejaVuSans-64" x="1401.400391"/>
     <use xlink:href="#DejaVuSans-65" x="1464.876953"/>
    </g>
   </g>
   <g id="patch_33">
    <path d="M 252.072777 302.254223 Q 218.628053 313.847541 186.239697 325.074679 " style="fill: none; stroke: #000000; stroke-linecap: round"/>
    <path d="M 190.674115 325.65428 L 186.239697 325.074679 L 189.364029 321.874905 " style="fill: none; stroke: #000000; stroke-linecap: round"/>
   </g>
   <g id="text_26">
    <g id="patch_34">
     <path d="M 233.289955 301.097181 L 334.29933 301.097181 Q 339.29933 301.097181 339.29933 296.097181 L 339.29933 286.419056 Q 339.29933 281.419056 334.29933 281.419056 L 233.289955 281.419056 Q 228.289955 281.419056 228.289955 286.419056 L 228.289955 296.097181 Q 228.289955 301.097181 233.289955 301.097181 z" style="fill: #ffff00; opacity: 0.5; stroke: #000000; stroke-linejoin: miter"/>
    </g>
    <!-- Hantavirus infection -->
    <g transform="translate(233.289955 294.017494)scale(0.1 -0.1)">
     <use xlink:href="#DejaVuSans-48"/>
     <use xlink:href="#DejaVuSans-61" x="75.195312"/>
     <use xlink:href="#DejaVuSans-6e" x="136.474609"/>
     <use xlink:href="#DejaVuSans-74" x="199.853516"/>
     <use xlink:href="#DejaVuSans-61" x="239.0625"/>
     <use xlink:href="#DejaVuSans-76" x="300.341797"/>
     <use xlink:href="#DejaVuSans-69" x="359.521484"/>
     <use xlink:href="#DejaVuSans-72" x="387.304688"/>
     <use xlink:href="#DejaVuSans-75" x="428.417969"/>
     <use xlink:href="#DejaVuSans-73" x="491.796875"/>
     <use xlink:href="#DejaVuSans-20" x="543.896484"/>
     <use xlink:href="#DejaVuSans-69" x="575.683594"/>
     <use xlink:href="#DejaVuSans-6e" x="603.466797"/>
     <use xlink:href="#DejaVuSans-66" x="666.845703"/>
     <use xlink:href="#DejaVuSans-65" x="702.050781"/>
     <use xlink:href="#DejaVuSans-63" x="763.574219"/>
     <use xlink:href="#DejaVuSans-74" x="818.554688"/>
     <use xlink:href="#DejaVuSans-69" x="857.763672"/>
     <use xlink:href="#DejaVuSans-6f" x="885.546875"/>
     <use xlink:href="#DejaVuSans-6e" x="946.728516"/>
    </g>
   </g>
   <g id="patch_35">
    <path d="M 261.822991 261.408542 Q 200.990085 297.633282 141.117796 333.285996 " style="fill: none; stroke: #000000; stroke-linecap: round"/>
    <path d="M 145.577877 332.957851 L 141.117796 333.285996 L 143.531329 329.521044 " style="fill: none; stroke: #000000; stroke-linecap: round"/>
   </g>
   <g id="text_27">
    <g id="patch_36">
     <path d="M 123.436364 259.882733 L 438.380114 259.882733 Q 443.380114 259.882733 443.380114 254.882733 L 443.380114 245.204608 Q 443.380114 240.204608 438.380114 240.204608 L 123.436364 240.204608 Q 118.436364 240.204608 118.436364 245.204608 L 118.436364 254.882733 Q 118.436364 259.882733 123.436364 259.882733 z" style="fill: #ffff00; opacity: 0.5; stroke: #000000; stroke-linejoin: miter"/>
    </g>
    <!-- Middle Eastern Respiratory Syndrome (MERS) (least infectious) -->
    <g transform="translate(123.436364 252.803046)scale(0.1 -0.1)">
     <defs>
      <path id="DejaVuSans-4d" d="M 628 4666 L 1569 4666 L 2759 1491 L 3956 4666 L 4897 4666 L 4897 0 L 4281 0 L 4281 4097 L 3078 897 L 2444 897 L 1241 4097 L 1241 0 L 628 0 L 628 4666 z" transform="scale(0.015625)"/>
      <path id="DejaVuSans-45" d="M 628 4666 L 3578 4666 L 3578 4134 L 1259 4134 L 1259 2753 L 3481 2753 L 3481 2222 L 1259 2222 L 1259 531 L 3634 531 L 3634 0 L 628 0 L 628 4666 z" transform="scale(0.015625)"/>
     </defs>
     <use xlink:href="#DejaVuSans-4d"/>
     <use xlink:href="#DejaVuSans-69" x="86.279297"/>
     <use xlink:href="#DejaVuSans-64" x="114.0625"/>
     <use xlink:href="#DejaVuSans-64" x="177.539062"/>
     <use xlink:href="#DejaVuSans-6c" x="241.015625"/>
     <use xlink:href="#DejaVuSans-65" x="268.798828"/>
     <use xlink:href="#DejaVuSans-20" x="330.322266"/>
     <use xlink:href="#DejaVuSans-45" x="362.109375"/>
     <use xlink:href="#DejaVuSans-61" x="425.292969"/>
     <use xlink:href="#DejaVuSans-73" x="486.572266"/>
     <use xlink:href="#DejaVuSans-74" x="538.671875"/>
     <use xlink:href="#DejaVuSans-65" x="577.880859"/>
     <use xlink:href="#DejaVuSans-72" x="639.404297"/>
     <use xlink:href="#DejaVuSans-6e" x="678.767578"/>
     <use xlink:href="#DejaVuSans-20" x="742.146484"/>
     <use xlink:href="#DejaVuSans-52" x="773.933594"/>
     <use xlink:href="#DejaVuSans-65" x="838.916016"/>
     <use xlink:href="#DejaVuSans-73" x="900.439453"/>
     <use xlink:href="#DejaVuSans-70" x="952.539062"/>
     <use xlink:href="#DejaVuSans-69" x="1016.015625"/>
     <use xlink:href="#DejaVuSans-72" x="1043.798828"/>
     <use xlink:href="#DejaVuSans-61" x="1084.912109"/>
     <use xlink:href="#DejaVuSans-74" x="1146.191406"/>
     <use xlink:href="#DejaVuSans-6f" x="1185.400391"/>
     <use xlink:href="#DejaVuSans-72" x="1246.582031"/>
     <use xlink:href="#DejaVuSans-79" x="1287.695312"/>
     <use xlink:href="#DejaVuSans-20" x="1346.875"/>
     <use xlink:href="#DejaVuSans-53" x="1378.662109"/>
     <use xlink:href="#DejaVuSans-79" x="1442.138672"/>
     <use xlink:href="#DejaVuSans-6e" x="1501.318359"/>
     <use xlink:href="#DejaVuSans-64" x="1564.697266"/>
     <use xlink:href="#DejaVuSans-72" x="1628.173828"/>
     <use xlink:href="#DejaVuSans-6f" x="1667.037109"/>
     <use xlink:href="#DejaVuSans-6d" x="1728.21875"/>
     <use xlink:href="#DejaVuSans-65" x="1825.630859"/>
     <use xlink:href="#DejaVuSans-20" x="1887.154297"/>
     <use xlink:href="#DejaVuSans-28" x="1918.941406"/>
     <use xlink:href="#DejaVuSans-4d" x="1957.955078"/>
     <use xlink:href="#DejaVuSans-45" x="2044.234375"/>
     <use xlink:href="#DejaVuSans-52" x="2107.417969"/>
     <use xlink:href="#DejaVuSans-53" x="2176.900391"/>
     <use xlink:href="#DejaVuSans-29" x="2240.376953"/>
     <use xlink:href="#DejaVuSans-20" x="2279.390625"/>
     <use xlink:href="#DejaVuSans-28" x="2311.177734"/>
     <use xlink:href="#DejaVuSans-6c" x="2350.191406"/>
     <use xlink:href="#DejaVuSans-65" x="2377.974609"/>
     <use xlink:href="#DejaVuSans-61" x="2439.498047"/>
     <use xlink:href="#DejaVuSans-73" x="2500.777344"/>
     <use xlink:href="#DejaVuSans-74" x="2552.876953"/>
     <use xlink:href="#DejaVuSans-20" x="2592.085938"/>
     <use xlink:href="#DejaVuSans-69" x="2623.873047"/>
     <use xlink:href="#DejaVuSans-6e" x="2651.65625"/>
     <use xlink:href="#DejaVuSans-66" x="2715.035156"/>
     <use xlink:href="#DejaVuSans-65" x="2750.240234"/>
     <use xlink:href="#DejaVuSans-63" x="2811.763672"/>
     <use xlink:href="#DejaVuSans-74" x="2866.744141"/>
     <use xlink:href="#DejaVuSans-69" x="2905.953125"/>
     <use xlink:href="#DejaVuSans-6f" x="2933.736328"/>
     <use xlink:href="#DejaVuSans-75" x="2994.917969"/>
     <use xlink:href="#DejaVuSans-73" x="3058.296875"/>
     <use xlink:href="#DejaVuSans-29" x="3110.396484"/>
    </g>
   </g>
   <g id="patch_37">
    <path d="M 187.215455 396.293352 Q 188.428162 439.045523 189.609167 480.68011 " style="fill: none; stroke: #000000; stroke-linecap: round"/>
    <path d="M 191.494945 476.625009 L 189.609167 480.68011 L 187.496553 476.738427 " style="fill: none; stroke: #000000; stroke-linecap: round"/>
   </g>
   <g id="text_28">
    <g id="patch_38">
     <path d="M 124.697605 393.797842 L 249.033542 393.797842 Q 254.033542 393.797842 254.033542 388.797842 L 254.033542 379.119717 Q 254.033542 374.119717 249.033542 374.119717 L 124.697605 374.119717 Q 119.697605 374.119717 119.697605 379.119717 L 119.697605 388.797842 Q 119.697605 393.797842 124.697605 393.797842 z" style="fill: #ffff00; opacity: 0.5; stroke: #000000; stroke-linejoin: miter"/>
    </g>
    <!-- Hong Kong (196869) flu -->
    <g transform="translate(124.697605 386.718155)scale(0.1 -0.1)">
     <defs>
      <path id="DejaVuSans-4b" d="M 628 4666 L 1259 4666 L 1259 2694 L 3353 4666 L 4166 4666 L 1850 2491 L 4331 0 L 3500 0 L 1259 2247 L 1259 0 L 628 0 L 628 4666 z" transform="scale(0.015625)"/>
      <path id="DejaVuSans-2013" d="M 313 1978 L 2888 1978 L 2888 1528 L 313 1528 L 313 1978 z" transform="scale(0.015625)"/>
     </defs>
     <use xlink:href="#DejaVuSans-48"/>
     <use xlink:href="#DejaVuSans-6f" x="75.195312"/>
     <use xlink:href="#DejaVuSans-6e" x="136.376953"/>
     <use xlink:href="#DejaVuSans-67" x="199.755859"/>
     <use xlink:href="#DejaVuSans-20" x="263.232422"/>
     <use xlink:href="#DejaVuSans-4b" x="295.019531"/>
     <use xlink:href="#DejaVuSans-6f" x="355.595703"/>
     <use xlink:href="#DejaVuSans-6e" x="416.777344"/>
     <use xlink:href="#DejaVuSans-67" x="480.15625"/>
     <use xlink:href="#DejaVuSans-20" x="543.632812"/>
     <use xlink:href="#DejaVuSans-28" x="575.419922"/>
     <use xlink:href="#DejaVuSans-31" x="614.433594"/>
     <use xlink:href="#DejaVuSans-39" x="678.056641"/>
     <use xlink:href="#DejaVuSans-36" x="741.679688"/>
     <use xlink:href="#DejaVuSans-38" x="805.302734"/>
     <use xlink:href="#DejaVuSans-2013" x="868.925781"/>
     <use xlink:href="#DejaVuSans-36" x="918.925781"/>
     <use xlink:href="#DejaVuSans-39" x="982.548828"/>
     <use xlink:href="#DejaVuSans-29" x="1046.171875"/>
     <use xlink:href="#DejaVuSans-20" x="1085.185547"/>
     <use xlink:href="#DejaVuSans-66" x="1116.972656"/>
     <use xlink:href="#DejaVuSans-6c" x="1152.177734"/>
     <use xlink:href="#DejaVuSans-75" x="1179.960938"/>
    </g>
   </g>
   <g id="patch_39">
    <path d="M 177.350013 446.200485 Q 183.21105 464.046838 188.723236 480.830975 " style="fill: none; stroke: #000000; stroke-linecap: round"/>
    <path d="M 189.375306 476.406632 L 188.723236 480.830975 L 185.575004 477.654714 " style="fill: none; stroke: #000000; stroke-linecap: round"/>
   </g>
   <g id="text_29">
    <g id="patch_40">
     <path d="M 124.697605 443.797842 L 221.961667 443.797842 Q 226.961667 443.797842 226.961667 438.797842 L 226.961667 429.119717 Q 226.961667 424.119717 221.961667 424.119717 L 124.697605 424.119717 Q 119.697605 424.119717 119.697605 429.119717 L 119.697605 438.797842 Q 119.697605 443.797842 124.697605 443.797842 z" style="fill: #ffff00; opacity: 0.5; stroke: #000000; stroke-linejoin: miter"/>
    </g>
    <!-- Asian (195658) flu -->
    <g transform="translate(124.697605 436.718155)scale(0.1 -0.1)">
     <defs>
      <path id="DejaVuSans-35" d="M 691 4666 L 3169 4666 L 3169 4134 L 1269 4134 L 1269 2991 Q 1406 3038 1543 3061 Q 1681 3084 1819 3084 Q 2600 3084 3056 2656 Q 3513 2228 3513 1497 Q 3513 744 3044 326 Q 2575 -91 1722 -91 Q 1428 -91 1123 -41 Q 819 9 494 109 L 494 744 Q 775 591 1075 516 Q 1375 441 1709 441 Q 2250 441 2565 725 Q 2881 1009 2881 1497 Q 2881 1984 2565 2268 Q 2250 2553 1709 2553 Q 1456 2553 1204 2497 Q 953 2441 691 2322 L 691 4666 z" transform="scale(0.015625)"/>
     </defs>
     <use xlink:href="#DejaVuSans-41"/>
     <use xlink:href="#DejaVuSans-73" x="68.408203"/>
     <use xlink:href="#DejaVuSans-69" x="120.507812"/>
     <use xlink:href="#DejaVuSans-61" x="148.291016"/>
     <use xlink:href="#DejaVuSans-6e" x="209.570312"/>
     <use xlink:href="#DejaVuSans-20" x="272.949219"/>
     <use xlink:href="#DejaVuSans-28" x="304.736328"/>
     <use xlink:href="#DejaVuSans-31" x="343.75"/>
     <use xlink:href="#DejaVuSans-39" x="407.373047"/>
     <use xlink:href="#DejaVuSans-35" x="470.996094"/>
     <use xlink:href="#DejaVuSans-36" x="534.619141"/>
     <use xlink:href="#DejaVuSans-2013" x="598.242188"/>
     <use xlink:href="#DejaVuSans-35" x="648.242188"/>
     <use xlink:href="#DejaVuSans-38" x="711.865234"/>
     <use xlink:href="#DejaVuSans-29" x="775.488281"/>
     <use xlink:href="#DejaVuSans-20" x="814.501953"/>
     <use xlink:href="#DejaVuSans-66" x="846.289062"/>
     <use xlink:href="#DejaVuSans-6c" x="881.494141"/>
     <use xlink:href="#DejaVuSans-75" x="909.277344"/>
    </g>
   </g>
   <g id="patch_41">
    <path d="M 278.360754 196.693766 Q 234.993792 208.421305 192.706096 219.856982 " style="fill: none; stroke: #000000; stroke-linecap: round"/>
    <path d="M 197.089496 220.743438 L 192.706096 219.856982 L 196.045301 216.882136 " style="fill: none; stroke: #000000; stroke-linecap: round"/>
   </g>
   <g id="text_30">
    <g id="patch_42">
     <path d="M 239.697605 195.670555 L 397.358542 195.670555 Q 402.358542 195.670555 402.358542 190.670555 L 402.358542 180.99243 Q 402.358542 175.99243 397.358542 175.99243 L 239.697605 175.99243 Q 234.697605 175.99243 234.697605 180.99243 L 234.697605 190.670555 Q 234.697605 195.670555 239.697605 195.670555 z" style="fill: #ffff00; opacity: 0.5; stroke: #000000; stroke-linejoin: miter"/>
    </g>
    <!-- Influenza A virus subtype H5N1 -->
    <g transform="translate(239.697605 188.590868)scale(0.1 -0.1)">
     <use xlink:href="#DejaVuSans-49"/>
     <use xlink:href="#DejaVuSans-6e" x="29.492188"/>
     <use xlink:href="#DejaVuSans-66" x="92.871094"/>
     <use xlink:href="#DejaVuSans-6c" x="128.076172"/>
     <use xlink:href="#DejaVuSans-75" x="155.859375"/>
     <use xlink:href="#DejaVuSans-65" x="219.238281"/>
     <use xlink:href="#DejaVuSans-6e" x="280.761719"/>
     <use xlink:href="#DejaVuSans-7a" x="344.140625"/>
     <use xlink:href="#DejaVuSans-61" x="396.630859"/>
     <use xlink:href="#DejaVuSans-20" x="457.910156"/>
     <use xlink:href="#DejaVuSans-41" x="489.697266"/>
     <use xlink:href="#DejaVuSans-20" x="558.105469"/>
     <use xlink:href="#DejaVuSans-76" x="589.892578"/>
     <use xlink:href="#DejaVuSans-69" x="649.072266"/>
     <use xlink:href="#DejaVuSans-72" x="676.855469"/>
     <use xlink:href="#DejaVuSans-75" x="717.96875"/>
     <use xlink:href="#DejaVuSans-73" x="781.347656"/>
     <use xlink:href="#DejaVuSans-20" x="833.447266"/>
     <use xlink:href="#DejaVuSans-73" x="865.234375"/>
     <use xlink:href="#DejaVuSans-75" x="917.333984"/>
     <use xlink:href="#DejaVuSans-62" x="980.712891"/>
     <use xlink:href="#DejaVuSans-74" x="1044.189453"/>
     <use xlink:href="#DejaVuSans-79" x="1083.398438"/>
     <use xlink:href="#DejaVuSans-70" x="1142.578125"/>
     <use xlink:href="#DejaVuSans-65" x="1206.054688"/>
     <use xlink:href="#DejaVuSans-20" x="1267.578125"/>
     <use xlink:href="#DejaVuSans-48" x="1299.365234"/>
     <use xlink:href="#DejaVuSans-35" x="1374.560547"/>
     <use xlink:href="#DejaVuSans-4e" x="1438.183594"/>
     <use xlink:href="#DejaVuSans-31" x="1512.988281"/>
    </g>
   </g>
   <g id="text_31">
    <!-- $r^2 = 0.086$ -->
    <g style="opacity: 0.25" transform="translate(664.825359 103.191575)scale(0.2 -0.2)">
     <defs>
      <path id="DejaVuSans-Oblique-72" d="M 2853 2969 Q 2766 3016 2653 3041 Q 2541 3066 2413 3066 Q 1953 3066 1609 2717 Q 1266 2369 1153 1784 L 800 0 L 225 0 L 909 3500 L 1484 3500 L 1375 2956 Q 1603 3259 1920 3421 Q 2238 3584 2597 3584 Q 2691 3584 2781 3573 Q 2872 3563 2963 3538 L 2853 2969 z" transform="scale(0.015625)"/>
      <path id="DejaVuSans-3d" d="M 678 2906 L 4684 2906 L 4684 2381 L 678 2381 L 678 2906 zM 678 1631 L 4684 1631 L 4684 1100 L 678 1100 L 678 1631 z" transform="scale(0.015625)"/>
      <path id="DejaVuSans-2e" d="M 684 794 L 1344 794 L 1344 0 L 684 0 L 684 794 z" transform="scale(0.015625)"/>
     </defs>
     <use xlink:href="#DejaVuSans-Oblique-72" transform="translate(0 0.765625)"/>
     <use xlink:href="#DejaVuSans-32" transform="translate(45.763177 39.046875)scale(0.7)"/>
     <use xlink:href="#DejaVuSans-3d" transform="translate(112.516107 0.765625)"/>
     <use xlink:href="#DejaVuSans-30" transform="translate(215.787591 0.765625)"/>
     <use xlink:href="#DejaVuSans-2e" transform="translate(279.410638 0.765625)"/>
     <use xlink:href="#DejaVuSans-30" transform="translate(311.197747 0.765625)"/>
     <use xlink:href="#DejaVuSans-38" transform="translate(374.820794 0.765625)"/>
     <use xlink:href="#DejaVuSans-36" transform="translate(438.443841 0.765625)"/>
    </g>
   </g>
  </g>
  <g id="text_32">
   <!-- Relative Deadliness and Infectiousness of Pandemics -->
   <g transform="translate(273.015938 60.958125)scale(0.12 -0.12)">
    <use xlink:href="#DejaVuSans-52"/>
    <use xlink:href="#DejaVuSans-65" x="64.982422"/>
    <use xlink:href="#DejaVuSans-6c" x="126.505859"/>
    <use xlink:href="#DejaVuSans-61" x="154.289062"/>
    <use xlink:href="#DejaVuSans-74" x="215.568359"/>
    <use xlink:href="#DejaVuSans-69" x="254.777344"/>
    <use xlink:href="#DejaVuSans-76" x="282.560547"/>
    <use xlink:href="#DejaVuSans-65" x="341.740234"/>
    <use xlink:href="#DejaVuSans-20" x="403.263672"/>
    <use xlink:href="#DejaVuSans-44" x="435.050781"/>
    <use xlink:href="#DejaVuSans-65" x="512.052734"/>
    <use xlink:href="#DejaVuSans-61" x="573.576172"/>
    <use xlink:href="#DejaVuSans-64" x="634.855469"/>
    <use xlink:href="#DejaVuSans-6c" x="698.332031"/>
    <use xlink:href="#DejaVuSans-69" x="726.115234"/>
    <use xlink:href="#DejaVuSans-6e" x="753.898438"/>
    <use xlink:href="#DejaVuSans-65" x="817.277344"/>
    <use xlink:href="#DejaVuSans-73" x="878.800781"/>
    <use xlink:href="#DejaVuSans-73" x="930.900391"/>
    <use xlink:href="#DejaVuSans-20" x="983"/>
    <use xlink:href="#DejaVuSans-61" x="1014.787109"/>
    <use xlink:href="#DejaVuSans-6e" x="1076.066406"/>
    <use xlink:href="#DejaVuSans-64" x="1139.445312"/>
    <use xlink:href="#DejaVuSans-20" x="1202.921875"/>
    <use xlink:href="#DejaVuSans-49" x="1234.708984"/>
    <use xlink:href="#DejaVuSans-6e" x="1264.201172"/>
    <use xlink:href="#DejaVuSans-66" x="1327.580078"/>
    <use xlink:href="#DejaVuSans-65" x="1362.785156"/>
    <use xlink:href="#DejaVuSans-63" x="1424.308594"/>
    <use xlink:href="#DejaVuSans-74" x="1479.289062"/>
    <use xlink:href="#DejaVuSans-69" x="1518.498047"/>
    <use xlink:href="#DejaVuSans-6f" x="1546.28125"/>
    <use xlink:href="#DejaVuSans-75" x="1607.462891"/>
    <use xlink:href="#DejaVuSans-73" x="1670.841797"/>
    <use xlink:href="#DejaVuSans-6e" x="1722.941406"/>
    <use xlink:href="#DejaVuSans-65" x="1786.320312"/>
    <use xlink:href="#DejaVuSans-73" x="1847.84375"/>
    <use xlink:href="#DejaVuSans-73" x="1899.943359"/>
    <use xlink:href="#DejaVuSans-20" x="1952.042969"/>
    <use xlink:href="#DejaVuSans-6f" x="1983.830078"/>
    <use xlink:href="#DejaVuSans-66" x="2045.011719"/>
    <use xlink:href="#DejaVuSans-20" x="2080.216797"/>
    <use xlink:href="#DejaVuSans-50" x="2112.003906"/>
    <use xlink:href="#DejaVuSans-61" x="2167.806641"/>
    <use xlink:href="#DejaVuSans-6e" x="2229.085938"/>
    <use xlink:href="#DejaVuSans-64" x="2292.464844"/>
    <use xlink:href="#DejaVuSans-65" x="2355.941406"/>
    <use xlink:href="#DejaVuSans-6d" x="2417.464844"/>
    <use xlink:href="#DejaVuSans-69" x="2514.876953"/>
    <use xlink:href="#DejaVuSans-63" x="2542.660156"/>
    <use xlink:href="#DejaVuSans-73" x="2597.640625"/>
   </g>
  </g>
 </g>
 <defs>
  <clipPath id="p871214dcd6">
   <rect x="108" y="69.12" width="669.6" height="434.88"/>
  </clipPath>
 </defs>
</svg>
