<?xml version="1.0" encoding="utf-8" standalone="no"?>
<!DOCTYPE svg PUBLIC "-//W3C//DTD SVG 1.1//EN"
  "http://www.w3.org/Graphics/SVG/1.1/DTD/svg11.dtd">
<!-- Created with matplotlib (https://matplotlib.org/) -->
<svg height="668.132156pt" version="1.1" viewBox="0 0 1284.209375 668.132156" width="1284.209375pt" xmlns="http://www.w3.org/2000/svg" xmlns:xlink="http://www.w3.org/1999/xlink">
 <defs>
  <style type="text/css">
*{stroke-linecap:butt;stroke-linejoin:round;}
  </style>
 </defs>
 <g id="figure_1">
  <g id="patch_1">
   <path d="M 0 668.132156 
L 1284.209375 668.132156 
L 1284.209375 0 
L 0 0 
z
" style="fill:#ffffff;"/>
  </g>
  <g id="axes_1">
   <g id="patch_2">
    <path d="M 43.803125 644.254031 
L 1227.703125 644.254031 
L 1227.703125 22.32 
L 43.803125 22.32 
z
" style="fill:#ffffff;"/>
   </g>
   <g id="PolyCollection_1">
    <path clip-path="url(#pe7e1085bf4)" d="M 43.803125 -316.012113 
L 43.803125 605.694121 
L 55.2973 537.281378 
L 66.791475 468.868635 
L 78.285649 389.261079 
L 89.779824 307.165786 
L 101.273999 276.069085 
L 112.768174 307.165786 
L 124.262348 338.262488 
L 135.756523 370.603058 
L 147.250698 409.162968 
L 158.744873 453.942218 
L 170.239047 477.575711 
L 181.733222 507.428545 
L 193.227397 524.842697 
L 204.721572 534.793642 
L 216.215746 545.988454 
L 227.709921 534.793642 
L 239.204096 517.379489 
L 250.698271 524.842697 
L 262.192445 532.305906 
L 273.68662 555.939399 
L 285.180795 577.085156 
L 296.67497 598.230913 
L 308.169144 596.987045 
L 319.663319 590.767705 
L 331.157494 585.792232 
L 342.651669 594.499309 
L 354.145843 610.669594 
L 365.640018 621.864406 
L 377.134193 592.011573 
L 388.628368 569.621948 
L 400.122542 539.769114 
L 411.616717 542.25685 
L 423.110892 562.158739 
L 434.605067 589.523837 
L 446.099242 598.230913 
L 457.593416 580.81676 
L 469.087591 555.939399 
L 480.581766 538.525246 
L 492.075941 542.25685 
L 503.570115 567.134212 
L 515.06429 583.304496 
L 526.558465 575.841288 
L 538.05264 549.720059 
L 549.546814 519.867225 
L 561.040989 514.891753 
L 572.535164 527.330434 
L 584.029339 547.232323 
L 595.523513 557.183267 
L 607.017688 580.81676 
L 618.511863 557.183267 
L 630.006038 542.25685 
L 641.500212 548.476191 
L 652.994387 568.37808 
L 664.488562 595.743177 
L 675.982737 606.93799 
L 687.476911 583.304496 
L 698.971086 559.671003 
L 710.465261 522.354961 
L 721.959436 513.647885 
L 733.45361 549.720059 
L 744.947785 585.792232 
L 756.44196 616.888934 
L 767.936135 625.59601 
L 779.430309 615.645066 
L 790.924484 589.523837 
L 802.418659 572.109684 
L 813.912834 580.81676 
L 825.407008 608.181858 
L 836.901183 604.450253 
L 848.395358 590.767705 
L 859.889533 529.81817 
L 871.383708 466.380898 
L 882.877882 432.796461 
L 894.372057 466.380898 
L 905.866232 473.844107 
L 917.360407 498.721468 
L 928.854581 519.867225 
L 940.348756 483.795051 
L 951.842931 470.112503 
L 963.337106 452.69835 
L 974.83128 471.356371 
L 986.325455 532.305906 
L 997.81963 545.988454 
L 1009.313805 545.988454 
L 1020.807979 542.25685 
L 1032.302154 497.4776 
L 1043.796329 498.721468 
L 1055.290504 509.916281 
L 1066.784678 509.916281 
L 1078.278853 528.574302 
L 1089.773028 492.502128 
L 1101.267203 446.479009 
L 1112.761377 422.845516 
L 1124.255552 436.528065 
L 1135.749727 472.600239 
L 1147.243902 506.184676 
L 1158.738076 543.500718 
L 1170.232251 554.695531 
L 1181.726426 547.232323 
L 1193.220601 537.281378 
L 1204.714775 519.867225 
L 1216.20895 511.160149 
L 1227.703125 502.453072 
L 1227.703125 453.942218 
L 1227.703125 453.942218 
L 1216.20895 462.649294 
L 1204.714775 471.356371 
L 1193.220601 487.526655 
L 1181.726426 497.4776 
L 1170.232251 504.940808 
L 1158.738076 493.745996 
L 1147.243902 456.429954 
L 1135.749727 422.845516 
L 1124.255552 384.285606 
L 1112.761377 368.115321 
L 1101.267203 388.01721 
L 1089.773028 430.308725 
L 1078.278853 465.13703 
L 1066.784678 445.235141 
L 1055.290504 445.235141 
L 1043.796329 431.552593 
L 1032.302154 429.064857 
L 1020.807979 471.356371 
L 1009.313805 475.087975 
L 997.81963 475.087975 
L 986.325455 461.405426 
L 974.83128 399.212023 
L 963.337106 378.066266 
L 951.842931 391.748815 
L 940.348756 401.699759 
L 928.854581 435.284197 
L 917.360407 412.894572 
L 905.866232 386.773342 
L 894.372057 375.57853 
L 882.877882 337.01862 
L 871.383708 364.383717 
L 859.889533 421.601648 
L 848.395358 480.063447 
L 836.901183 494.989864 
L 825.407008 499.965336 
L 813.912834 473.844107 
L 802.418659 465.13703 
L 790.924484 481.307315 
L 779.430309 508.672413 
L 767.936135 521.111093 
L 756.44196 514.891753 
L 744.947785 485.038919 
L 733.45361 450.210614 
L 721.959436 412.894572 
L 710.465261 417.870044 
L 698.971086 452.69835 
L 687.476911 475.087975 
L 675.982737 499.965336 
L 664.488562 490.014392 
L 652.994387 463.893162 
L 641.500212 443.991273 
L 630.006038 436.528065 
L 618.511863 448.966746 
L 607.017688 472.600239 
L 595.523513 450.210614 
L 584.029339 439.015801 
L 572.535164 417.870044 
L 561.040989 402.943627 
L 549.546814 404.187495 
L 538.05264 431.552593 
L 526.558465 455.186086 
L 515.06429 463.893162 
L 503.570115 447.722877 
L 492.075941 422.845516 
L 480.581766 416.626176 
L 469.087591 430.308725 
L 457.593416 453.942218 
L 446.099242 471.356371 
L 434.605067 463.893162 
L 423.110892 437.771933 
L 411.616717 416.626176 
L 400.122542 410.406836 
L 388.628368 436.528065 
L 377.134193 456.429954 
L 365.640018 490.014392 
L 354.145843 480.063447 
L 342.651669 463.893162 
L 331.157494 455.186086 
L 319.663319 460.161558 
L 308.169144 466.380898 
L 296.67497 470.112503 
L 285.180795 448.966746 
L 273.68662 429.064857 
L 262.192445 404.187495 
L 250.698271 394.236551 
L 239.204096 383.041738 
L 227.709921 396.724287 
L 216.215746 405.431363 
L 204.721572 392.992683 
L 193.227397 381.79787 
L 181.733222 361.895981 
L 170.239047 329.555412 
L 158.744873 300.946446 
L 147.250698 247.460119 
L 135.756523 195.217661 
L 124.262348 141.731334 
L 112.768174 78.294063 
L 101.273999 -2.557361 
L 89.779824 -49.824348 
L 78.285649 -68.482369 
L 66.791475 -97.091334 
L 55.2973 -206.551724 
L 43.803125 -316.012113 
z
" style="fill-opacity:0.1;"/>
   </g>
   <g id="line2d_1">
    <path clip-path="url(#pe7e1085bf4)" d="M 55.2973 271.093613 
L 66.791475 207.656341 
L 78.285649 154.170015 
L 89.779824 118.097841 
L 101.273999 130.536521 
L 112.768174 185.266716 
L 124.262348 232.533703 
L 135.756523 277.312953 
L 147.250698 323.336071 
L 158.744873 374.334662 
L 170.239047 402.943627 
L 181.733222 429.064857 
L 193.227397 450.210614 
L 204.721572 458.91769 
L 216.215746 470.112503 
L 227.709921 461.405426 
L 239.204096 446.479009 
L 250.698271 457.673822 
L 262.192445 466.380898 
L 273.68662 490.014392 
L 285.180795 507.428545 
L 296.67497 531.062038 
L 308.169144 527.330434 
L 319.663319 522.354961 
L 331.157494 518.623357 
L 342.651669 526.086565 
L 354.145843 542.25685 
L 365.640018 549.720059 
L 377.134193 518.623357 
L 388.628368 498.721468 
L 400.122542 471.356371 
L 411.616717 477.575711 
L 423.110892 497.4776 
L 434.605067 521.111093 
L 446.099242 529.81817 
L 457.593416 513.647885 
L 469.087591 487.526655 
L 480.581766 476.331843 
L 492.075941 481.307315 
L 503.570115 502.453072 
L 515.06429 521.111093 
L 526.558465 509.916281 
L 538.05264 488.770524 
L 549.546814 457.673822 
L 561.040989 453.942218 
L 572.535164 467.624766 
L 584.029339 487.526655 
L 595.523513 501.209204 
L 607.017688 522.354961 
L 618.511863 497.4776 
L 630.006038 487.526655 
L 641.500212 492.502128 
L 652.994387 511.160149 
L 664.488562 537.281378 
L 675.982737 549.720059 
L 687.476911 526.086565 
L 698.971086 502.453072 
L 710.465261 466.380898 
L 721.959436 458.91769 
L 733.45361 494.989864 
L 744.947785 531.062038 
L 756.44196 562.158739 
L 767.936135 567.134212 
L 779.430309 558.427135 
L 790.924484 533.549774 
L 802.418659 517.379489 
L 813.912834 523.598829 
L 825.407008 548.476191 
L 836.901183 547.232323 
L 848.395358 531.062038 
L 859.889533 472.600239 
L 871.383708 412.894572 
L 882.877882 380.554002 
L 894.372057 416.626176 
L 905.866232 429.064857 
L 917.360407 451.454482 
L 928.854581 472.600239 
L 940.348756 439.015801 
L 951.842931 427.820988 
L 963.337106 412.894572 
L 974.83128 431.552593 
L 986.325455 493.745996 
L 997.81963 507.428545 
L 1009.313805 508.672413 
L 1020.807979 502.453072 
L 1032.302154 461.405426 
L 1043.796329 460.161558 
L 1055.290504 476.331843 
L 1066.784678 473.844107 
L 1078.278853 493.745996 
L 1089.773028 457.673822 
L 1101.267203 414.13844 
L 1112.761377 394.236551 
L 1124.255552 407.919099 
L 1135.749727 446.479009 
L 1147.243902 478.819579 
L 1158.738076 514.891753 
L 1170.232251 527.330434 
L 1181.726426 519.867225 
L 1193.220601 509.916281 
L 1204.714775 493.745996 
L 1216.20895 482.551183 
" style="fill:none;stroke:#000000;stroke-linecap:square;stroke-opacity:0.25;stroke-width:1.5;"/>
   </g>
   <g id="matplotlib.axis_1">
    <g id="xtick_1">
     <g id="line2d_2">
      <defs>
       <path d="M 0 0 
L 0 3.5 
" id="ma0cc88a58a" style="stroke:#000000;stroke-width:0.8;"/>
      </defs>
      <g>
       <use style="stroke:#000000;stroke-width:0.8;" x="227.709921" xlink:href="#ma0cc88a58a" y="644.254031"/>
      </g>
     </g>
     <g id="text_1">
      <!-- 2020-04-01 -->
      <defs>
       <path d="M 19.1875 8.296875 
L 53.609375 8.296875 
L 53.609375 0 
L 7.328125 0 
L 7.328125 8.296875 
Q 12.9375 14.109375 22.625 23.890625 
Q 32.328125 33.6875 34.8125 36.53125 
Q 39.546875 41.84375 41.421875 45.53125 
Q 43.3125 49.21875 43.3125 52.78125 
Q 43.3125 58.59375 39.234375 62.25 
Q 35.15625 65.921875 28.609375 65.921875 
Q 23.96875 65.921875 18.8125 64.3125 
Q 13.671875 62.703125 7.8125 59.421875 
L 7.8125 69.390625 
Q 13.765625 71.78125 18.9375 73 
Q 24.125 74.21875 28.421875 74.21875 
Q 39.75 74.21875 46.484375 68.546875 
Q 53.21875 62.890625 53.21875 53.421875 
Q 53.21875 48.921875 51.53125 44.890625 
Q 49.859375 40.875 45.40625 35.40625 
Q 44.1875 33.984375 37.640625 27.21875 
Q 31.109375 20.453125 19.1875 8.296875 
z
" id="DejaVuSans-50"/>
       <path d="M 31.78125 66.40625 
Q 24.171875 66.40625 20.328125 58.90625 
Q 16.5 51.421875 16.5 36.375 
Q 16.5 21.390625 20.328125 13.890625 
Q 24.171875 6.390625 31.78125 6.390625 
Q 39.453125 6.390625 43.28125 13.890625 
Q 47.125 21.390625 47.125 36.375 
Q 47.125 51.421875 43.28125 58.90625 
Q 39.453125 66.40625 31.78125 66.40625 
z
M 31.78125 74.21875 
Q 44.046875 74.21875 50.515625 64.515625 
Q 56.984375 54.828125 56.984375 36.375 
Q 56.984375 17.96875 50.515625 8.265625 
Q 44.046875 -1.421875 31.78125 -1.421875 
Q 19.53125 -1.421875 13.0625 8.265625 
Q 6.59375 17.96875 6.59375 36.375 
Q 6.59375 54.828125 13.0625 64.515625 
Q 19.53125 74.21875 31.78125 74.21875 
z
" id="DejaVuSans-48"/>
       <path d="M 4.890625 31.390625 
L 31.203125 31.390625 
L 31.203125 23.390625 
L 4.890625 23.390625 
z
" id="DejaVuSans-45"/>
       <path d="M 37.796875 64.3125 
L 12.890625 25.390625 
L 37.796875 25.390625 
z
M 35.203125 72.90625 
L 47.609375 72.90625 
L 47.609375 25.390625 
L 58.015625 25.390625 
L 58.015625 17.1875 
L 47.609375 17.1875 
L 47.609375 0 
L 37.796875 0 
L 37.796875 17.1875 
L 4.890625 17.1875 
L 4.890625 26.703125 
z
" id="DejaVuSans-52"/>
       <path d="M 12.40625 8.296875 
L 28.515625 8.296875 
L 28.515625 63.921875 
L 10.984375 60.40625 
L 10.984375 69.390625 
L 28.421875 72.90625 
L 38.28125 72.90625 
L 38.28125 8.296875 
L 54.390625 8.296875 
L 54.390625 0 
L 12.40625 0 
z
" id="DejaVuSans-49"/>
      </defs>
      <g transform="translate(198.652109 658.852469)scale(0.1 -0.1)">
       <use xlink:href="#DejaVuSans-50"/>
       <use x="63.623047" xlink:href="#DejaVuSans-48"/>
       <use x="127.246094" xlink:href="#DejaVuSans-50"/>
       <use x="190.869141" xlink:href="#DejaVuSans-48"/>
       <use x="254.492188" xlink:href="#DejaVuSans-45"/>
       <use x="290.576172" xlink:href="#DejaVuSans-48"/>
       <use x="354.199219" xlink:href="#DejaVuSans-52"/>
       <use x="417.822266" xlink:href="#DejaVuSans-45"/>
       <use x="453.90625" xlink:href="#DejaVuSans-48"/>
       <use x="517.529297" xlink:href="#DejaVuSans-49"/>
      </g>
     </g>
    </g>
    <g id="xtick_2">
     <g id="line2d_3">
      <g>
       <use style="stroke:#000000;stroke-width:0.8;" x="388.628368" xlink:href="#ma0cc88a58a" y="644.254031"/>
      </g>
     </g>
     <g id="text_2">
      <!-- 2020-04-15 -->
      <defs>
       <path d="M 10.796875 72.90625 
L 49.515625 72.90625 
L 49.515625 64.59375 
L 19.828125 64.59375 
L 19.828125 46.734375 
Q 21.96875 47.46875 24.109375 47.828125 
Q 26.265625 48.1875 28.421875 48.1875 
Q 40.625 48.1875 47.75 41.5 
Q 54.890625 34.8125 54.890625 23.390625 
Q 54.890625 11.625 47.5625 5.09375 
Q 40.234375 -1.421875 26.90625 -1.421875 
Q 22.3125 -1.421875 17.546875 -0.640625 
Q 12.796875 0.140625 7.71875 1.703125 
L 7.71875 11.625 
Q 12.109375 9.234375 16.796875 8.0625 
Q 21.484375 6.890625 26.703125 6.890625 
Q 35.15625 6.890625 40.078125 11.328125 
Q 45.015625 15.765625 45.015625 23.390625 
Q 45.015625 31 40.078125 35.4375 
Q 35.15625 39.890625 26.703125 39.890625 
Q 22.75 39.890625 18.8125 39.015625 
Q 14.890625 38.140625 10.796875 36.28125 
z
" id="DejaVuSans-53"/>
      </defs>
      <g transform="translate(359.570555 658.852469)scale(0.1 -0.1)">
       <use xlink:href="#DejaVuSans-50"/>
       <use x="63.623047" xlink:href="#DejaVuSans-48"/>
       <use x="127.246094" xlink:href="#DejaVuSans-50"/>
       <use x="190.869141" xlink:href="#DejaVuSans-48"/>
       <use x="254.492188" xlink:href="#DejaVuSans-45"/>
       <use x="290.576172" xlink:href="#DejaVuSans-48"/>
       <use x="354.199219" xlink:href="#DejaVuSans-52"/>
       <use x="417.822266" xlink:href="#DejaVuSans-45"/>
       <use x="453.90625" xlink:href="#DejaVuSans-49"/>
       <use x="517.529297" xlink:href="#DejaVuSans-53"/>
      </g>
     </g>
    </g>
    <g id="xtick_3">
     <g id="line2d_4">
      <g>
       <use style="stroke:#000000;stroke-width:0.8;" x="572.535164" xlink:href="#ma0cc88a58a" y="644.254031"/>
      </g>
     </g>
     <g id="text_3">
      <!-- 2020-05-01 -->
      <g transform="translate(543.477351 658.852469)scale(0.1 -0.1)">
       <use xlink:href="#DejaVuSans-50"/>
       <use x="63.623047" xlink:href="#DejaVuSans-48"/>
       <use x="127.246094" xlink:href="#DejaVuSans-50"/>
       <use x="190.869141" xlink:href="#DejaVuSans-48"/>
       <use x="254.492188" xlink:href="#DejaVuSans-45"/>
       <use x="290.576172" xlink:href="#DejaVuSans-48"/>
       <use x="354.199219" xlink:href="#DejaVuSans-53"/>
       <use x="417.822266" xlink:href="#DejaVuSans-45"/>
       <use x="453.90625" xlink:href="#DejaVuSans-48"/>
       <use x="517.529297" xlink:href="#DejaVuSans-49"/>
      </g>
     </g>
    </g>
    <g id="xtick_4">
     <g id="line2d_5">
      <g>
       <use style="stroke:#000000;stroke-width:0.8;" x="733.45361" xlink:href="#ma0cc88a58a" y="644.254031"/>
      </g>
     </g>
     <g id="text_4">
      <!-- 2020-05-15 -->
      <g transform="translate(704.395798 658.852469)scale(0.1 -0.1)">
       <use xlink:href="#DejaVuSans-50"/>
       <use x="63.623047" xlink:href="#DejaVuSans-48"/>
       <use x="127.246094" xlink:href="#DejaVuSans-50"/>
       <use x="190.869141" xlink:href="#DejaVuSans-48"/>
       <use x="254.492188" xlink:href="#DejaVuSans-45"/>
       <use x="290.576172" xlink:href="#DejaVuSans-48"/>
       <use x="354.199219" xlink:href="#DejaVuSans-53"/>
       <use x="417.822266" xlink:href="#DejaVuSans-45"/>
       <use x="453.90625" xlink:href="#DejaVuSans-49"/>
       <use x="517.529297" xlink:href="#DejaVuSans-53"/>
      </g>
     </g>
    </g>
    <g id="xtick_5">
     <g id="line2d_6">
      <g>
       <use style="stroke:#000000;stroke-width:0.8;" x="928.854581" xlink:href="#ma0cc88a58a" y="644.254031"/>
      </g>
     </g>
     <g id="text_5">
      <!-- 2020-06-01 -->
      <defs>
       <path d="M 33.015625 40.375 
Q 26.375 40.375 22.484375 35.828125 
Q 18.609375 31.296875 18.609375 23.390625 
Q 18.609375 15.53125 22.484375 10.953125 
Q 26.375 6.390625 33.015625 6.390625 
Q 39.65625 6.390625 43.53125 10.953125 
Q 47.40625 15.53125 47.40625 23.390625 
Q 47.40625 31.296875 43.53125 35.828125 
Q 39.65625 40.375 33.015625 40.375 
z
M 52.59375 71.296875 
L 52.59375 62.3125 
Q 48.875 64.0625 45.09375 64.984375 
Q 41.3125 65.921875 37.59375 65.921875 
Q 27.828125 65.921875 22.671875 59.328125 
Q 17.53125 52.734375 16.796875 39.40625 
Q 19.671875 43.65625 24.015625 45.921875 
Q 28.375 48.1875 33.59375 48.1875 
Q 44.578125 48.1875 50.953125 41.515625 
Q 57.328125 34.859375 57.328125 23.390625 
Q 57.328125 12.15625 50.6875 5.359375 
Q 44.046875 -1.421875 33.015625 -1.421875 
Q 20.359375 -1.421875 13.671875 8.265625 
Q 6.984375 17.96875 6.984375 36.375 
Q 6.984375 53.65625 15.1875 63.9375 
Q 23.390625 74.21875 37.203125 74.21875 
Q 40.921875 74.21875 44.703125 73.484375 
Q 48.484375 72.75 52.59375 71.296875 
z
" id="DejaVuSans-54"/>
      </defs>
      <g transform="translate(899.796769 658.852469)scale(0.1 -0.1)">
       <use xlink:href="#DejaVuSans-50"/>
       <use x="63.623047" xlink:href="#DejaVuSans-48"/>
       <use x="127.246094" xlink:href="#DejaVuSans-50"/>
       <use x="190.869141" xlink:href="#DejaVuSans-48"/>
       <use x="254.492188" xlink:href="#DejaVuSans-45"/>
       <use x="290.576172" xlink:href="#DejaVuSans-48"/>
       <use x="354.199219" xlink:href="#DejaVuSans-54"/>
       <use x="417.822266" xlink:href="#DejaVuSans-45"/>
       <use x="453.90625" xlink:href="#DejaVuSans-48"/>
       <use x="517.529297" xlink:href="#DejaVuSans-49"/>
      </g>
     </g>
    </g>
    <g id="xtick_6">
     <g id="line2d_7">
      <g>
       <use style="stroke:#000000;stroke-width:0.8;" x="1089.773028" xlink:href="#ma0cc88a58a" y="644.254031"/>
      </g>
     </g>
     <g id="text_6">
      <!-- 2020-06-15 -->
      <g transform="translate(1060.715215 658.852469)scale(0.1 -0.1)">
       <use xlink:href="#DejaVuSans-50"/>
       <use x="63.623047" xlink:href="#DejaVuSans-48"/>
       <use x="127.246094" xlink:href="#DejaVuSans-50"/>
       <use x="190.869141" xlink:href="#DejaVuSans-48"/>
       <use x="254.492188" xlink:href="#DejaVuSans-45"/>
       <use x="290.576172" xlink:href="#DejaVuSans-48"/>
       <use x="354.199219" xlink:href="#DejaVuSans-54"/>
       <use x="417.822266" xlink:href="#DejaVuSans-45"/>
       <use x="453.90625" xlink:href="#DejaVuSans-49"/>
       <use x="517.529297" xlink:href="#DejaVuSans-53"/>
      </g>
     </g>
    </g>
    <g id="xtick_7">
     <g id="line2d_8">
      <defs>
       <path d="M 0 0 
L 0 2 
" id="m7195580005" style="stroke:#000000;stroke-width:0.6;"/>
      </defs>
      <g>
       <use style="stroke:#000000;stroke-width:0.6;" x="43.803125" xlink:href="#m7195580005" y="644.254031"/>
      </g>
     </g>
    </g>
    <g id="xtick_8">
     <g id="line2d_9">
      <g>
       <use style="stroke:#000000;stroke-width:0.6;" x="55.2973" xlink:href="#m7195580005" y="644.254031"/>
      </g>
     </g>
    </g>
    <g id="xtick_9">
     <g id="line2d_10">
      <g>
       <use style="stroke:#000000;stroke-width:0.6;" x="66.791475" xlink:href="#m7195580005" y="644.254031"/>
      </g>
     </g>
    </g>
    <g id="xtick_10">
     <g id="line2d_11">
      <g>
       <use style="stroke:#000000;stroke-width:0.6;" x="78.285649" xlink:href="#m7195580005" y="644.254031"/>
      </g>
     </g>
    </g>
    <g id="xtick_11">
     <g id="line2d_12">
      <g>
       <use style="stroke:#000000;stroke-width:0.6;" x="89.779824" xlink:href="#m7195580005" y="644.254031"/>
      </g>
     </g>
    </g>
    <g id="xtick_12">
     <g id="line2d_13">
      <g>
       <use style="stroke:#000000;stroke-width:0.6;" x="101.273999" xlink:href="#m7195580005" y="644.254031"/>
      </g>
     </g>
    </g>
    <g id="xtick_13">
     <g id="line2d_14">
      <g>
       <use style="stroke:#000000;stroke-width:0.6;" x="112.768174" xlink:href="#m7195580005" y="644.254031"/>
      </g>
     </g>
    </g>
    <g id="xtick_14">
     <g id="line2d_15">
      <g>
       <use style="stroke:#000000;stroke-width:0.6;" x="124.262348" xlink:href="#m7195580005" y="644.254031"/>
      </g>
     </g>
    </g>
    <g id="xtick_15">
     <g id="line2d_16">
      <g>
       <use style="stroke:#000000;stroke-width:0.6;" x="135.756523" xlink:href="#m7195580005" y="644.254031"/>
      </g>
     </g>
    </g>
    <g id="xtick_16">
     <g id="line2d_17">
      <g>
       <use style="stroke:#000000;stroke-width:0.6;" x="147.250698" xlink:href="#m7195580005" y="644.254031"/>
      </g>
     </g>
    </g>
    <g id="xtick_17">
     <g id="line2d_18">
      <g>
       <use style="stroke:#000000;stroke-width:0.6;" x="158.744873" xlink:href="#m7195580005" y="644.254031"/>
      </g>
     </g>
    </g>
    <g id="xtick_18">
     <g id="line2d_19">
      <g>
       <use style="stroke:#000000;stroke-width:0.6;" x="170.239047" xlink:href="#m7195580005" y="644.254031"/>
      </g>
     </g>
    </g>
    <g id="xtick_19">
     <g id="line2d_20">
      <g>
       <use style="stroke:#000000;stroke-width:0.6;" x="181.733222" xlink:href="#m7195580005" y="644.254031"/>
      </g>
     </g>
    </g>
    <g id="xtick_20">
     <g id="line2d_21">
      <g>
       <use style="stroke:#000000;stroke-width:0.6;" x="193.227397" xlink:href="#m7195580005" y="644.254031"/>
      </g>
     </g>
    </g>
    <g id="xtick_21">
     <g id="line2d_22">
      <g>
       <use style="stroke:#000000;stroke-width:0.6;" x="204.721572" xlink:href="#m7195580005" y="644.254031"/>
      </g>
     </g>
    </g>
    <g id="xtick_22">
     <g id="line2d_23">
      <g>
       <use style="stroke:#000000;stroke-width:0.6;" x="216.215746" xlink:href="#m7195580005" y="644.254031"/>
      </g>
     </g>
    </g>
    <g id="xtick_23">
     <g id="line2d_24">
      <g>
       <use style="stroke:#000000;stroke-width:0.6;" x="239.204096" xlink:href="#m7195580005" y="644.254031"/>
      </g>
     </g>
    </g>
    <g id="xtick_24">
     <g id="line2d_25">
      <g>
       <use style="stroke:#000000;stroke-width:0.6;" x="250.698271" xlink:href="#m7195580005" y="644.254031"/>
      </g>
     </g>
    </g>
    <g id="xtick_25">
     <g id="line2d_26">
      <g>
       <use style="stroke:#000000;stroke-width:0.6;" x="262.192445" xlink:href="#m7195580005" y="644.254031"/>
      </g>
     </g>
    </g>
    <g id="xtick_26">
     <g id="line2d_27">
      <g>
       <use style="stroke:#000000;stroke-width:0.6;" x="273.68662" xlink:href="#m7195580005" y="644.254031"/>
      </g>
     </g>
    </g>
    <g id="xtick_27">
     <g id="line2d_28">
      <g>
       <use style="stroke:#000000;stroke-width:0.6;" x="285.180795" xlink:href="#m7195580005" y="644.254031"/>
      </g>
     </g>
    </g>
    <g id="xtick_28">
     <g id="line2d_29">
      <g>
       <use style="stroke:#000000;stroke-width:0.6;" x="296.67497" xlink:href="#m7195580005" y="644.254031"/>
      </g>
     </g>
    </g>
    <g id="xtick_29">
     <g id="line2d_30">
      <g>
       <use style="stroke:#000000;stroke-width:0.6;" x="308.169144" xlink:href="#m7195580005" y="644.254031"/>
      </g>
     </g>
    </g>
    <g id="xtick_30">
     <g id="line2d_31">
      <g>
       <use style="stroke:#000000;stroke-width:0.6;" x="319.663319" xlink:href="#m7195580005" y="644.254031"/>
      </g>
     </g>
    </g>
    <g id="xtick_31">
     <g id="line2d_32">
      <g>
       <use style="stroke:#000000;stroke-width:0.6;" x="331.157494" xlink:href="#m7195580005" y="644.254031"/>
      </g>
     </g>
    </g>
    <g id="xtick_32">
     <g id="line2d_33">
      <g>
       <use style="stroke:#000000;stroke-width:0.6;" x="342.651669" xlink:href="#m7195580005" y="644.254031"/>
      </g>
     </g>
    </g>
    <g id="xtick_33">
     <g id="line2d_34">
      <g>
       <use style="stroke:#000000;stroke-width:0.6;" x="354.145843" xlink:href="#m7195580005" y="644.254031"/>
      </g>
     </g>
    </g>
    <g id="xtick_34">
     <g id="line2d_35">
      <g>
       <use style="stroke:#000000;stroke-width:0.6;" x="365.640018" xlink:href="#m7195580005" y="644.254031"/>
      </g>
     </g>
    </g>
    <g id="xtick_35">
     <g id="line2d_36">
      <g>
       <use style="stroke:#000000;stroke-width:0.6;" x="377.134193" xlink:href="#m7195580005" y="644.254031"/>
      </g>
     </g>
    </g>
    <g id="xtick_36">
     <g id="line2d_37">
      <g>
       <use style="stroke:#000000;stroke-width:0.6;" x="400.122542" xlink:href="#m7195580005" y="644.254031"/>
      </g>
     </g>
    </g>
    <g id="xtick_37">
     <g id="line2d_38">
      <g>
       <use style="stroke:#000000;stroke-width:0.6;" x="411.616717" xlink:href="#m7195580005" y="644.254031"/>
      </g>
     </g>
    </g>
    <g id="xtick_38">
     <g id="line2d_39">
      <g>
       <use style="stroke:#000000;stroke-width:0.6;" x="423.110892" xlink:href="#m7195580005" y="644.254031"/>
      </g>
     </g>
    </g>
    <g id="xtick_39">
     <g id="line2d_40">
      <g>
       <use style="stroke:#000000;stroke-width:0.6;" x="434.605067" xlink:href="#m7195580005" y="644.254031"/>
      </g>
     </g>
    </g>
    <g id="xtick_40">
     <g id="line2d_41">
      <g>
       <use style="stroke:#000000;stroke-width:0.6;" x="446.099242" xlink:href="#m7195580005" y="644.254031"/>
      </g>
     </g>
    </g>
    <g id="xtick_41">
     <g id="line2d_42">
      <g>
       <use style="stroke:#000000;stroke-width:0.6;" x="457.593416" xlink:href="#m7195580005" y="644.254031"/>
      </g>
     </g>
    </g>
    <g id="xtick_42">
     <g id="line2d_43">
      <g>
       <use style="stroke:#000000;stroke-width:0.6;" x="469.087591" xlink:href="#m7195580005" y="644.254031"/>
      </g>
     </g>
    </g>
    <g id="xtick_43">
     <g id="line2d_44">
      <g>
       <use style="stroke:#000000;stroke-width:0.6;" x="480.581766" xlink:href="#m7195580005" y="644.254031"/>
      </g>
     </g>
    </g>
    <g id="xtick_44">
     <g id="line2d_45">
      <g>
       <use style="stroke:#000000;stroke-width:0.6;" x="492.075941" xlink:href="#m7195580005" y="644.254031"/>
      </g>
     </g>
    </g>
    <g id="xtick_45">
     <g id="line2d_46">
      <g>
       <use style="stroke:#000000;stroke-width:0.6;" x="503.570115" xlink:href="#m7195580005" y="644.254031"/>
      </g>
     </g>
    </g>
    <g id="xtick_46">
     <g id="line2d_47">
      <g>
       <use style="stroke:#000000;stroke-width:0.6;" x="515.06429" xlink:href="#m7195580005" y="644.254031"/>
      </g>
     </g>
    </g>
    <g id="xtick_47">
     <g id="line2d_48">
      <g>
       <use style="stroke:#000000;stroke-width:0.6;" x="526.558465" xlink:href="#m7195580005" y="644.254031"/>
      </g>
     </g>
    </g>
    <g id="xtick_48">
     <g id="line2d_49">
      <g>
       <use style="stroke:#000000;stroke-width:0.6;" x="538.05264" xlink:href="#m7195580005" y="644.254031"/>
      </g>
     </g>
    </g>
    <g id="xtick_49">
     <g id="line2d_50">
      <g>
       <use style="stroke:#000000;stroke-width:0.6;" x="549.546814" xlink:href="#m7195580005" y="644.254031"/>
      </g>
     </g>
    </g>
    <g id="xtick_50">
     <g id="line2d_51">
      <g>
       <use style="stroke:#000000;stroke-width:0.6;" x="561.040989" xlink:href="#m7195580005" y="644.254031"/>
      </g>
     </g>
    </g>
    <g id="xtick_51">
     <g id="line2d_52">
      <g>
       <use style="stroke:#000000;stroke-width:0.6;" x="584.029339" xlink:href="#m7195580005" y="644.254031"/>
      </g>
     </g>
    </g>
    <g id="xtick_52">
     <g id="line2d_53">
      <g>
       <use style="stroke:#000000;stroke-width:0.6;" x="595.523513" xlink:href="#m7195580005" y="644.254031"/>
      </g>
     </g>
    </g>
    <g id="xtick_53">
     <g id="line2d_54">
      <g>
       <use style="stroke:#000000;stroke-width:0.6;" x="607.017688" xlink:href="#m7195580005" y="644.254031"/>
      </g>
     </g>
    </g>
    <g id="xtick_54">
     <g id="line2d_55">
      <g>
       <use style="stroke:#000000;stroke-width:0.6;" x="618.511863" xlink:href="#m7195580005" y="644.254031"/>
      </g>
     </g>
    </g>
    <g id="xtick_55">
     <g id="line2d_56">
      <g>
       <use style="stroke:#000000;stroke-width:0.6;" x="630.006038" xlink:href="#m7195580005" y="644.254031"/>
      </g>
     </g>
    </g>
    <g id="xtick_56">
     <g id="line2d_57">
      <g>
       <use style="stroke:#000000;stroke-width:0.6;" x="641.500212" xlink:href="#m7195580005" y="644.254031"/>
      </g>
     </g>
    </g>
    <g id="xtick_57">
     <g id="line2d_58">
      <g>
       <use style="stroke:#000000;stroke-width:0.6;" x="652.994387" xlink:href="#m7195580005" y="644.254031"/>
      </g>
     </g>
    </g>
    <g id="xtick_58">
     <g id="line2d_59">
      <g>
       <use style="stroke:#000000;stroke-width:0.6;" x="664.488562" xlink:href="#m7195580005" y="644.254031"/>
      </g>
     </g>
    </g>
    <g id="xtick_59">
     <g id="line2d_60">
      <g>
       <use style="stroke:#000000;stroke-width:0.6;" x="675.982737" xlink:href="#m7195580005" y="644.254031"/>
      </g>
     </g>
    </g>
    <g id="xtick_60">
     <g id="line2d_61">
      <g>
       <use style="stroke:#000000;stroke-width:0.6;" x="687.476911" xlink:href="#m7195580005" y="644.254031"/>
      </g>
     </g>
    </g>
    <g id="xtick_61">
     <g id="line2d_62">
      <g>
       <use style="stroke:#000000;stroke-width:0.6;" x="698.971086" xlink:href="#m7195580005" y="644.254031"/>
      </g>
     </g>
    </g>
    <g id="xtick_62">
     <g id="line2d_63">
      <g>
       <use style="stroke:#000000;stroke-width:0.6;" x="710.465261" xlink:href="#m7195580005" y="644.254031"/>
      </g>
     </g>
    </g>
    <g id="xtick_63">
     <g id="line2d_64">
      <g>
       <use style="stroke:#000000;stroke-width:0.6;" x="721.959436" xlink:href="#m7195580005" y="644.254031"/>
      </g>
     </g>
    </g>
    <g id="xtick_64">
     <g id="line2d_65">
      <g>
       <use style="stroke:#000000;stroke-width:0.6;" x="744.947785" xlink:href="#m7195580005" y="644.254031"/>
      </g>
     </g>
    </g>
    <g id="xtick_65">
     <g id="line2d_66">
      <g>
       <use style="stroke:#000000;stroke-width:0.6;" x="756.44196" xlink:href="#m7195580005" y="644.254031"/>
      </g>
     </g>
    </g>
    <g id="xtick_66">
     <g id="line2d_67">
      <g>
       <use style="stroke:#000000;stroke-width:0.6;" x="767.936135" xlink:href="#m7195580005" y="644.254031"/>
      </g>
     </g>
    </g>
    <g id="xtick_67">
     <g id="line2d_68">
      <g>
       <use style="stroke:#000000;stroke-width:0.6;" x="779.430309" xlink:href="#m7195580005" y="644.254031"/>
      </g>
     </g>
    </g>
    <g id="xtick_68">
     <g id="line2d_69">
      <g>
       <use style="stroke:#000000;stroke-width:0.6;" x="790.924484" xlink:href="#m7195580005" y="644.254031"/>
      </g>
     </g>
    </g>
    <g id="xtick_69">
     <g id="line2d_70">
      <g>
       <use style="stroke:#000000;stroke-width:0.6;" x="802.418659" xlink:href="#m7195580005" y="644.254031"/>
      </g>
     </g>
    </g>
    <g id="xtick_70">
     <g id="line2d_71">
      <g>
       <use style="stroke:#000000;stroke-width:0.6;" x="813.912834" xlink:href="#m7195580005" y="644.254031"/>
      </g>
     </g>
    </g>
    <g id="xtick_71">
     <g id="line2d_72">
      <g>
       <use style="stroke:#000000;stroke-width:0.6;" x="825.407008" xlink:href="#m7195580005" y="644.254031"/>
      </g>
     </g>
    </g>
    <g id="xtick_72">
     <g id="line2d_73">
      <g>
       <use style="stroke:#000000;stroke-width:0.6;" x="836.901183" xlink:href="#m7195580005" y="644.254031"/>
      </g>
     </g>
    </g>
    <g id="xtick_73">
     <g id="line2d_74">
      <g>
       <use style="stroke:#000000;stroke-width:0.6;" x="848.395358" xlink:href="#m7195580005" y="644.254031"/>
      </g>
     </g>
    </g>
    <g id="xtick_74">
     <g id="line2d_75">
      <g>
       <use style="stroke:#000000;stroke-width:0.6;" x="859.889533" xlink:href="#m7195580005" y="644.254031"/>
      </g>
     </g>
    </g>
    <g id="xtick_75">
     <g id="line2d_76">
      <g>
       <use style="stroke:#000000;stroke-width:0.6;" x="871.383708" xlink:href="#m7195580005" y="644.254031"/>
      </g>
     </g>
    </g>
    <g id="xtick_76">
     <g id="line2d_77">
      <g>
       <use style="stroke:#000000;stroke-width:0.6;" x="882.877882" xlink:href="#m7195580005" y="644.254031"/>
      </g>
     </g>
    </g>
    <g id="xtick_77">
     <g id="line2d_78">
      <g>
       <use style="stroke:#000000;stroke-width:0.6;" x="894.372057" xlink:href="#m7195580005" y="644.254031"/>
      </g>
     </g>
    </g>
    <g id="xtick_78">
     <g id="line2d_79">
      <g>
       <use style="stroke:#000000;stroke-width:0.6;" x="905.866232" xlink:href="#m7195580005" y="644.254031"/>
      </g>
     </g>
    </g>
    <g id="xtick_79">
     <g id="line2d_80">
      <g>
       <use style="stroke:#000000;stroke-width:0.6;" x="917.360407" xlink:href="#m7195580005" y="644.254031"/>
      </g>
     </g>
    </g>
    <g id="xtick_80">
     <g id="line2d_81">
      <g>
       <use style="stroke:#000000;stroke-width:0.6;" x="940.348756" xlink:href="#m7195580005" y="644.254031"/>
      </g>
     </g>
    </g>
    <g id="xtick_81">
     <g id="line2d_82">
      <g>
       <use style="stroke:#000000;stroke-width:0.6;" x="951.842931" xlink:href="#m7195580005" y="644.254031"/>
      </g>
     </g>
    </g>
    <g id="xtick_82">
     <g id="line2d_83">
      <g>
       <use style="stroke:#000000;stroke-width:0.6;" x="963.337106" xlink:href="#m7195580005" y="644.254031"/>
      </g>
     </g>
    </g>
    <g id="xtick_83">
     <g id="line2d_84">
      <g>
       <use style="stroke:#000000;stroke-width:0.6;" x="974.83128" xlink:href="#m7195580005" y="644.254031"/>
      </g>
     </g>
    </g>
    <g id="xtick_84">
     <g id="line2d_85">
      <g>
       <use style="stroke:#000000;stroke-width:0.6;" x="986.325455" xlink:href="#m7195580005" y="644.254031"/>
      </g>
     </g>
    </g>
    <g id="xtick_85">
     <g id="line2d_86">
      <g>
       <use style="stroke:#000000;stroke-width:0.6;" x="997.81963" xlink:href="#m7195580005" y="644.254031"/>
      </g>
     </g>
    </g>
    <g id="xtick_86">
     <g id="line2d_87">
      <g>
       <use style="stroke:#000000;stroke-width:0.6;" x="1009.313805" xlink:href="#m7195580005" y="644.254031"/>
      </g>
     </g>
    </g>
    <g id="xtick_87">
     <g id="line2d_88">
      <g>
       <use style="stroke:#000000;stroke-width:0.6;" x="1020.807979" xlink:href="#m7195580005" y="644.254031"/>
      </g>
     </g>
    </g>
    <g id="xtick_88">
     <g id="line2d_89">
      <g>
       <use style="stroke:#000000;stroke-width:0.6;" x="1032.302154" xlink:href="#m7195580005" y="644.254031"/>
      </g>
     </g>
    </g>
    <g id="xtick_89">
     <g id="line2d_90">
      <g>
       <use style="stroke:#000000;stroke-width:0.6;" x="1043.796329" xlink:href="#m7195580005" y="644.254031"/>
      </g>
     </g>
    </g>
    <g id="xtick_90">
     <g id="line2d_91">
      <g>
       <use style="stroke:#000000;stroke-width:0.6;" x="1055.290504" xlink:href="#m7195580005" y="644.254031"/>
      </g>
     </g>
    </g>
    <g id="xtick_91">
     <g id="line2d_92">
      <g>
       <use style="stroke:#000000;stroke-width:0.6;" x="1066.784678" xlink:href="#m7195580005" y="644.254031"/>
      </g>
     </g>
    </g>
    <g id="xtick_92">
     <g id="line2d_93">
      <g>
       <use style="stroke:#000000;stroke-width:0.6;" x="1078.278853" xlink:href="#m7195580005" y="644.254031"/>
      </g>
     </g>
    </g>
    <g id="xtick_93">
     <g id="line2d_94">
      <g>
       <use style="stroke:#000000;stroke-width:0.6;" x="1101.267203" xlink:href="#m7195580005" y="644.254031"/>
      </g>
     </g>
    </g>
    <g id="xtick_94">
     <g id="line2d_95">
      <g>
       <use style="stroke:#000000;stroke-width:0.6;" x="1112.761377" xlink:href="#m7195580005" y="644.254031"/>
      </g>
     </g>
    </g>
    <g id="xtick_95">
     <g id="line2d_96">
      <g>
       <use style="stroke:#000000;stroke-width:0.6;" x="1124.255552" xlink:href="#m7195580005" y="644.254031"/>
      </g>
     </g>
    </g>
    <g id="xtick_96">
     <g id="line2d_97">
      <g>
       <use style="stroke:#000000;stroke-width:0.6;" x="1135.749727" xlink:href="#m7195580005" y="644.254031"/>
      </g>
     </g>
    </g>
    <g id="xtick_97">
     <g id="line2d_98">
      <g>
       <use style="stroke:#000000;stroke-width:0.6;" x="1147.243902" xlink:href="#m7195580005" y="644.254031"/>
      </g>
     </g>
    </g>
    <g id="xtick_98">
     <g id="line2d_99">
      <g>
       <use style="stroke:#000000;stroke-width:0.6;" x="1158.738076" xlink:href="#m7195580005" y="644.254031"/>
      </g>
     </g>
    </g>
    <g id="xtick_99">
     <g id="line2d_100">
      <g>
       <use style="stroke:#000000;stroke-width:0.6;" x="1170.232251" xlink:href="#m7195580005" y="644.254031"/>
      </g>
     </g>
    </g>
    <g id="xtick_100">
     <g id="line2d_101">
      <g>
       <use style="stroke:#000000;stroke-width:0.6;" x="1181.726426" xlink:href="#m7195580005" y="644.254031"/>
      </g>
     </g>
    </g>
    <g id="xtick_101">
     <g id="line2d_102">
      <g>
       <use style="stroke:#000000;stroke-width:0.6;" x="1193.220601" xlink:href="#m7195580005" y="644.254031"/>
      </g>
     </g>
    </g>
    <g id="xtick_102">
     <g id="line2d_103">
      <g>
       <use style="stroke:#000000;stroke-width:0.6;" x="1204.714775" xlink:href="#m7195580005" y="644.254031"/>
      </g>
     </g>
    </g>
    <g id="xtick_103">
     <g id="line2d_104">
      <g>
       <use style="stroke:#000000;stroke-width:0.6;" x="1216.20895" xlink:href="#m7195580005" y="644.254031"/>
      </g>
     </g>
    </g>
    <g id="xtick_104">
     <g id="line2d_105">
      <g>
       <use style="stroke:#000000;stroke-width:0.6;" x="1227.703125" xlink:href="#m7195580005" y="644.254031"/>
      </g>
     </g>
    </g>
   </g>
   <g id="matplotlib.axis_2">
    <g id="ytick_1">
     <g id="line2d_106">
      <path clip-path="url(#pe7e1085bf4)" d="M 43.803125 644.254031 
L 1227.703125 644.254031 
" style="fill:none;stroke:#000000;stroke-linecap:square;stroke-opacity:0.1;stroke-width:0.8;"/>
     </g>
     <g id="line2d_107">
      <defs>
       <path d="M 0 0 
L -3.5 0 
" id="m1c43f8784b" style="stroke:#000000;stroke-width:0.8;"/>
      </defs>
      <g>
       <use style="stroke:#000000;stroke-width:0.8;" x="43.803125" xlink:href="#m1c43f8784b" y="644.254031"/>
      </g>
     </g>
     <g id="text_7">
      <!-- 0.0 -->
      <defs>
       <path d="M 10.6875 12.40625 
L 21 12.40625 
L 21 0 
L 10.6875 0 
z
" id="DejaVuSans-46"/>
      </defs>
      <g transform="translate(20.9 648.05325)scale(0.1 -0.1)">
       <use xlink:href="#DejaVuSans-48"/>
       <use x="63.623047" xlink:href="#DejaVuSans-46"/>
       <use x="95.410156" xlink:href="#DejaVuSans-48"/>
      </g>
     </g>
    </g>
    <g id="ytick_2">
     <g id="line2d_108">
      <path clip-path="url(#pe7e1085bf4)" d="M 43.803125 519.867225 
L 1227.703125 519.867225 
" style="fill:none;stroke:#000000;stroke-linecap:square;stroke-opacity:0.1;stroke-width:0.8;"/>
     </g>
     <g id="line2d_109">
      <g>
       <use style="stroke:#000000;stroke-width:0.8;" x="43.803125" xlink:href="#m1c43f8784b" y="519.867225"/>
      </g>
     </g>
     <g id="text_8">
      <!-- 1.0 -->
      <g transform="translate(20.9 523.666444)scale(0.1 -0.1)">
       <use xlink:href="#DejaVuSans-49"/>
       <use x="63.623047" xlink:href="#DejaVuSans-46"/>
       <use x="95.410156" xlink:href="#DejaVuSans-48"/>
      </g>
     </g>
    </g>
    <g id="ytick_3">
     <g id="line2d_110">
      <path clip-path="url(#pe7e1085bf4)" d="M 43.803125 395.480419 
L 1227.703125 395.480419 
" style="fill:none;stroke:#000000;stroke-linecap:square;stroke-opacity:0.1;stroke-width:0.8;"/>
     </g>
     <g id="line2d_111">
      <g>
       <use style="stroke:#000000;stroke-width:0.8;" x="43.803125" xlink:href="#m1c43f8784b" y="395.480419"/>
      </g>
     </g>
     <g id="text_9">
      <!-- 2.0 -->
      <g transform="translate(20.9 399.279638)scale(0.1 -0.1)">
       <use xlink:href="#DejaVuSans-50"/>
       <use x="63.623047" xlink:href="#DejaVuSans-46"/>
       <use x="95.410156" xlink:href="#DejaVuSans-48"/>
      </g>
     </g>
    </g>
    <g id="ytick_4">
     <g id="line2d_112">
      <path clip-path="url(#pe7e1085bf4)" d="M 43.803125 271.093613 
L 1227.703125 271.093613 
" style="fill:none;stroke:#000000;stroke-linecap:square;stroke-opacity:0.1;stroke-width:0.8;"/>
     </g>
     <g id="line2d_113">
      <g>
       <use style="stroke:#000000;stroke-width:0.8;" x="43.803125" xlink:href="#m1c43f8784b" y="271.093613"/>
      </g>
     </g>
     <g id="text_10">
      <!-- 3.0 -->
      <defs>
       <path d="M 40.578125 39.3125 
Q 47.65625 37.796875 51.625 33 
Q 55.609375 28.21875 55.609375 21.1875 
Q 55.609375 10.40625 48.1875 4.484375 
Q 40.765625 -1.421875 27.09375 -1.421875 
Q 22.515625 -1.421875 17.65625 -0.515625 
Q 12.796875 0.390625 7.625 2.203125 
L 7.625 11.71875 
Q 11.71875 9.328125 16.59375 8.109375 
Q 21.484375 6.890625 26.8125 6.890625 
Q 36.078125 6.890625 40.9375 10.546875 
Q 45.796875 14.203125 45.796875 21.1875 
Q 45.796875 27.640625 41.28125 31.265625 
Q 36.765625 34.90625 28.71875 34.90625 
L 20.21875 34.90625 
L 20.21875 43.015625 
L 29.109375 43.015625 
Q 36.375 43.015625 40.234375 45.921875 
Q 44.09375 48.828125 44.09375 54.296875 
Q 44.09375 59.90625 40.109375 62.90625 
Q 36.140625 65.921875 28.71875 65.921875 
Q 24.65625 65.921875 20.015625 65.03125 
Q 15.375 64.15625 9.8125 62.3125 
L 9.8125 71.09375 
Q 15.4375 72.65625 20.34375 73.4375 
Q 25.25 74.21875 29.59375 74.21875 
Q 40.828125 74.21875 47.359375 69.109375 
Q 53.90625 64.015625 53.90625 55.328125 
Q 53.90625 49.265625 50.4375 45.09375 
Q 46.96875 40.921875 40.578125 39.3125 
z
" id="DejaVuSans-51"/>
      </defs>
      <g transform="translate(20.9 274.892831)scale(0.1 -0.1)">
       <use xlink:href="#DejaVuSans-51"/>
       <use x="63.623047" xlink:href="#DejaVuSans-46"/>
       <use x="95.410156" xlink:href="#DejaVuSans-48"/>
      </g>
     </g>
    </g>
    <g id="ytick_5">
     <g id="line2d_114">
      <path clip-path="url(#pe7e1085bf4)" d="M 43.803125 146.706806 
L 1227.703125 146.706806 
" style="fill:none;stroke:#000000;stroke-linecap:square;stroke-opacity:0.1;stroke-width:0.8;"/>
     </g>
     <g id="line2d_115">
      <g>
       <use style="stroke:#000000;stroke-width:0.8;" x="43.803125" xlink:href="#m1c43f8784b" y="146.706806"/>
      </g>
     </g>
     <g id="text_11">
      <!-- 4.0 -->
      <g transform="translate(20.9 150.506025)scale(0.1 -0.1)">
       <use xlink:href="#DejaVuSans-52"/>
       <use x="63.623047" xlink:href="#DejaVuSans-46"/>
       <use x="95.410156" xlink:href="#DejaVuSans-48"/>
      </g>
     </g>
    </g>
    <g id="ytick_6">
     <g id="line2d_116">
      <path clip-path="url(#pe7e1085bf4)" d="M 43.803125 22.32 
L 1227.703125 22.32 
" style="fill:none;stroke:#000000;stroke-linecap:square;stroke-opacity:0.1;stroke-width:0.8;"/>
     </g>
     <g id="line2d_117">
      <g>
       <use style="stroke:#000000;stroke-width:0.8;" x="43.803125" xlink:href="#m1c43f8784b" y="22.32"/>
      </g>
     </g>
     <g id="text_12">
      <!-- 5.0 -->
      <g transform="translate(20.9 26.119219)scale(0.1 -0.1)">
       <use xlink:href="#DejaVuSans-53"/>
       <use x="63.623047" xlink:href="#DejaVuSans-46"/>
       <use x="95.410156" xlink:href="#DejaVuSans-48"/>
      </g>
     </g>
    </g>
    <g id="text_13">
     <!-- Real-time Reproductive Number ($R_t$) -->
     <defs>
      <path d="M 44.390625 34.1875 
Q 47.5625 33.109375 50.5625 29.59375 
Q 53.5625 26.078125 56.59375 19.921875 
L 66.609375 0 
L 56 0 
L 46.6875 18.703125 
Q 43.0625 26.03125 39.671875 28.421875 
Q 36.28125 30.8125 30.421875 30.8125 
L 19.671875 30.8125 
L 19.671875 0 
L 9.8125 0 
L 9.8125 72.90625 
L 32.078125 72.90625 
Q 44.578125 72.90625 50.734375 67.671875 
Q 56.890625 62.453125 56.890625 51.90625 
Q 56.890625 45.015625 53.6875 40.46875 
Q 50.484375 35.9375 44.390625 34.1875 
z
M 19.671875 64.796875 
L 19.671875 38.921875 
L 32.078125 38.921875 
Q 39.203125 38.921875 42.84375 42.21875 
Q 46.484375 45.515625 46.484375 51.90625 
Q 46.484375 58.296875 42.84375 61.546875 
Q 39.203125 64.796875 32.078125 64.796875 
z
" id="DejaVuSans-82"/>
      <path d="M 56.203125 29.59375 
L 56.203125 25.203125 
L 14.890625 25.203125 
Q 15.484375 15.921875 20.484375 11.0625 
Q 25.484375 6.203125 34.421875 6.203125 
Q 39.59375 6.203125 44.453125 7.46875 
Q 49.3125 8.734375 54.109375 11.28125 
L 54.109375 2.78125 
Q 49.265625 0.734375 44.1875 -0.34375 
Q 39.109375 -1.421875 33.890625 -1.421875 
Q 20.796875 -1.421875 13.15625 6.1875 
Q 5.515625 13.8125 5.515625 26.8125 
Q 5.515625 40.234375 12.765625 48.109375 
Q 20.015625 56 32.328125 56 
Q 43.359375 56 49.78125 48.890625 
Q 56.203125 41.796875 56.203125 29.59375 
z
M 47.21875 32.234375 
Q 47.125 39.59375 43.09375 43.984375 
Q 39.0625 48.390625 32.421875 48.390625 
Q 24.90625 48.390625 20.390625 44.140625 
Q 15.875 39.890625 15.1875 32.171875 
z
" id="DejaVuSans-101"/>
      <path d="M 34.28125 27.484375 
Q 23.390625 27.484375 19.1875 25 
Q 14.984375 22.515625 14.984375 16.5 
Q 14.984375 11.71875 18.140625 8.90625 
Q 21.296875 6.109375 26.703125 6.109375 
Q 34.1875 6.109375 38.703125 11.40625 
Q 43.21875 16.703125 43.21875 25.484375 
L 43.21875 27.484375 
z
M 52.203125 31.203125 
L 52.203125 0 
L 43.21875 0 
L 43.21875 8.296875 
Q 40.140625 3.328125 35.546875 0.953125 
Q 30.953125 -1.421875 24.3125 -1.421875 
Q 15.921875 -1.421875 10.953125 3.296875 
Q 6 8.015625 6 15.921875 
Q 6 25.140625 12.171875 29.828125 
Q 18.359375 34.515625 30.609375 34.515625 
L 43.21875 34.515625 
L 43.21875 35.40625 
Q 43.21875 41.609375 39.140625 45 
Q 35.0625 48.390625 27.6875 48.390625 
Q 23 48.390625 18.546875 47.265625 
Q 14.109375 46.140625 10.015625 43.890625 
L 10.015625 52.203125 
Q 14.9375 54.109375 19.578125 55.046875 
Q 24.21875 56 28.609375 56 
Q 40.484375 56 46.34375 49.84375 
Q 52.203125 43.703125 52.203125 31.203125 
z
" id="DejaVuSans-97"/>
      <path d="M 9.421875 75.984375 
L 18.40625 75.984375 
L 18.40625 0 
L 9.421875 0 
z
" id="DejaVuSans-108"/>
      <path d="M 18.3125 70.21875 
L 18.3125 54.6875 
L 36.8125 54.6875 
L 36.8125 47.703125 
L 18.3125 47.703125 
L 18.3125 18.015625 
Q 18.3125 11.328125 20.140625 9.421875 
Q 21.96875 7.515625 27.59375 7.515625 
L 36.8125 7.515625 
L 36.8125 0 
L 27.59375 0 
Q 17.1875 0 13.234375 3.875 
Q 9.28125 7.765625 9.28125 18.015625 
L 9.28125 47.703125 
L 2.6875 47.703125 
L 2.6875 54.6875 
L 9.28125 54.6875 
L 9.28125 70.21875 
z
" id="DejaVuSans-116"/>
      <path d="M 9.421875 54.6875 
L 18.40625 54.6875 
L 18.40625 0 
L 9.421875 0 
z
M 9.421875 75.984375 
L 18.40625 75.984375 
L 18.40625 64.59375 
L 9.421875 64.59375 
z
" id="DejaVuSans-105"/>
      <path d="M 52 44.1875 
Q 55.375 50.25 60.0625 53.125 
Q 64.75 56 71.09375 56 
Q 79.640625 56 84.28125 50.015625 
Q 88.921875 44.046875 88.921875 33.015625 
L 88.921875 0 
L 79.890625 0 
L 79.890625 32.71875 
Q 79.890625 40.578125 77.09375 44.375 
Q 74.3125 48.1875 68.609375 48.1875 
Q 61.625 48.1875 57.5625 43.546875 
Q 53.515625 38.921875 53.515625 30.90625 
L 53.515625 0 
L 44.484375 0 
L 44.484375 32.71875 
Q 44.484375 40.625 41.703125 44.40625 
Q 38.921875 48.1875 33.109375 48.1875 
Q 26.21875 48.1875 22.15625 43.53125 
Q 18.109375 38.875 18.109375 30.90625 
L 18.109375 0 
L 9.078125 0 
L 9.078125 54.6875 
L 18.109375 54.6875 
L 18.109375 46.1875 
Q 21.1875 51.21875 25.484375 53.609375 
Q 29.78125 56 35.6875 56 
Q 41.65625 56 45.828125 52.96875 
Q 50 49.953125 52 44.1875 
z
" id="DejaVuSans-109"/>
      <path id="DejaVuSans-32"/>
      <path d="M 18.109375 8.203125 
L 18.109375 -20.796875 
L 9.078125 -20.796875 
L 9.078125 54.6875 
L 18.109375 54.6875 
L 18.109375 46.390625 
Q 20.953125 51.265625 25.265625 53.625 
Q 29.59375 56 35.59375 56 
Q 45.5625 56 51.78125 48.09375 
Q 58.015625 40.1875 58.015625 27.296875 
Q 58.015625 14.40625 51.78125 6.484375 
Q 45.5625 -1.421875 35.59375 -1.421875 
Q 29.59375 -1.421875 25.265625 0.953125 
Q 20.953125 3.328125 18.109375 8.203125 
z
M 48.6875 27.296875 
Q 48.6875 37.203125 44.609375 42.84375 
Q 40.53125 48.484375 33.40625 48.484375 
Q 26.265625 48.484375 22.1875 42.84375 
Q 18.109375 37.203125 18.109375 27.296875 
Q 18.109375 17.390625 22.1875 11.75 
Q 26.265625 6.109375 33.40625 6.109375 
Q 40.53125 6.109375 44.609375 11.75 
Q 48.6875 17.390625 48.6875 27.296875 
z
" id="DejaVuSans-112"/>
      <path d="M 41.109375 46.296875 
Q 39.59375 47.171875 37.8125 47.578125 
Q 36.03125 48 33.890625 48 
Q 26.265625 48 22.1875 43.046875 
Q 18.109375 38.09375 18.109375 28.8125 
L 18.109375 0 
L 9.078125 0 
L 9.078125 54.6875 
L 18.109375 54.6875 
L 18.109375 46.1875 
Q 20.953125 51.171875 25.484375 53.578125 
Q 30.03125 56 36.53125 56 
Q 37.453125 56 38.578125 55.875 
Q 39.703125 55.765625 41.0625 55.515625 
z
" id="DejaVuSans-114"/>
      <path d="M 30.609375 48.390625 
Q 23.390625 48.390625 19.1875 42.75 
Q 14.984375 37.109375 14.984375 27.296875 
Q 14.984375 17.484375 19.15625 11.84375 
Q 23.34375 6.203125 30.609375 6.203125 
Q 37.796875 6.203125 41.984375 11.859375 
Q 46.1875 17.53125 46.1875 27.296875 
Q 46.1875 37.015625 41.984375 42.703125 
Q 37.796875 48.390625 30.609375 48.390625 
z
M 30.609375 56 
Q 42.328125 56 49.015625 48.375 
Q 55.71875 40.765625 55.71875 27.296875 
Q 55.71875 13.875 49.015625 6.21875 
Q 42.328125 -1.421875 30.609375 -1.421875 
Q 18.84375 -1.421875 12.171875 6.21875 
Q 5.515625 13.875 5.515625 27.296875 
Q 5.515625 40.765625 12.171875 48.375 
Q 18.84375 56 30.609375 56 
z
" id="DejaVuSans-111"/>
      <path d="M 45.40625 46.390625 
L 45.40625 75.984375 
L 54.390625 75.984375 
L 54.390625 0 
L 45.40625 0 
L 45.40625 8.203125 
Q 42.578125 3.328125 38.25 0.953125 
Q 33.9375 -1.421875 27.875 -1.421875 
Q 17.96875 -1.421875 11.734375 6.484375 
Q 5.515625 14.40625 5.515625 27.296875 
Q 5.515625 40.1875 11.734375 48.09375 
Q 17.96875 56 27.875 56 
Q 33.9375 56 38.25 53.625 
Q 42.578125 51.265625 45.40625 46.390625 
z
M 14.796875 27.296875 
Q 14.796875 17.390625 18.875 11.75 
Q 22.953125 6.109375 30.078125 6.109375 
Q 37.203125 6.109375 41.296875 11.75 
Q 45.40625 17.390625 45.40625 27.296875 
Q 45.40625 37.203125 41.296875 42.84375 
Q 37.203125 48.484375 30.078125 48.484375 
Q 22.953125 48.484375 18.875 42.84375 
Q 14.796875 37.203125 14.796875 27.296875 
z
" id="DejaVuSans-100"/>
      <path d="M 8.5 21.578125 
L 8.5 54.6875 
L 17.484375 54.6875 
L 17.484375 21.921875 
Q 17.484375 14.15625 20.5 10.265625 
Q 23.53125 6.390625 29.59375 6.390625 
Q 36.859375 6.390625 41.078125 11.03125 
Q 45.3125 15.671875 45.3125 23.6875 
L 45.3125 54.6875 
L 54.296875 54.6875 
L 54.296875 0 
L 45.3125 0 
L 45.3125 8.40625 
Q 42.046875 3.421875 37.71875 1 
Q 33.40625 -1.421875 27.6875 -1.421875 
Q 18.265625 -1.421875 13.375 4.4375 
Q 8.5 10.296875 8.5 21.578125 
z
M 31.109375 56 
z
" id="DejaVuSans-117"/>
      <path d="M 48.78125 52.59375 
L 48.78125 44.1875 
Q 44.96875 46.296875 41.140625 47.34375 
Q 37.3125 48.390625 33.40625 48.390625 
Q 24.65625 48.390625 19.8125 42.84375 
Q 14.984375 37.3125 14.984375 27.296875 
Q 14.984375 17.28125 19.8125 11.734375 
Q 24.65625 6.203125 33.40625 6.203125 
Q 37.3125 6.203125 41.140625 7.25 
Q 44.96875 8.296875 48.78125 10.40625 
L 48.78125 2.09375 
Q 45.015625 0.34375 40.984375 -0.53125 
Q 36.96875 -1.421875 32.421875 -1.421875 
Q 20.0625 -1.421875 12.78125 6.34375 
Q 5.515625 14.109375 5.515625 27.296875 
Q 5.515625 40.671875 12.859375 48.328125 
Q 20.21875 56 33.015625 56 
Q 37.15625 56 41.109375 55.140625 
Q 45.0625 54.296875 48.78125 52.59375 
z
" id="DejaVuSans-99"/>
      <path d="M 2.984375 54.6875 
L 12.5 54.6875 
L 29.59375 8.796875 
L 46.6875 54.6875 
L 56.203125 54.6875 
L 35.6875 0 
L 23.484375 0 
z
" id="DejaVuSans-118"/>
      <path d="M 9.8125 72.90625 
L 23.09375 72.90625 
L 55.421875 11.921875 
L 55.421875 72.90625 
L 64.984375 72.90625 
L 64.984375 0 
L 51.703125 0 
L 19.390625 60.984375 
L 19.390625 0 
L 9.8125 0 
z
" id="DejaVuSans-78"/>
      <path d="M 48.6875 27.296875 
Q 48.6875 37.203125 44.609375 42.84375 
Q 40.53125 48.484375 33.40625 48.484375 
Q 26.265625 48.484375 22.1875 42.84375 
Q 18.109375 37.203125 18.109375 27.296875 
Q 18.109375 17.390625 22.1875 11.75 
Q 26.265625 6.109375 33.40625 6.109375 
Q 40.53125 6.109375 44.609375 11.75 
Q 48.6875 17.390625 48.6875 27.296875 
z
M 18.109375 46.390625 
Q 20.953125 51.265625 25.265625 53.625 
Q 29.59375 56 35.59375 56 
Q 45.5625 56 51.78125 48.09375 
Q 58.015625 40.1875 58.015625 27.296875 
Q 58.015625 14.40625 51.78125 6.484375 
Q 45.5625 -1.421875 35.59375 -1.421875 
Q 29.59375 -1.421875 25.265625 0.953125 
Q 20.953125 3.328125 18.109375 8.203125 
L 18.109375 0 
L 9.078125 0 
L 9.078125 75.984375 
L 18.109375 75.984375 
z
" id="DejaVuSans-98"/>
      <path d="M 31 75.875 
Q 24.46875 64.65625 21.28125 53.65625 
Q 18.109375 42.671875 18.109375 31.390625 
Q 18.109375 20.125 21.3125 9.0625 
Q 24.515625 -2 31 -13.1875 
L 23.1875 -13.1875 
Q 15.875 -1.703125 12.234375 9.375 
Q 8.59375 20.453125 8.59375 31.390625 
Q 8.59375 42.28125 12.203125 53.3125 
Q 15.828125 64.359375 23.1875 75.875 
z
" id="DejaVuSans-40"/>
      <path d="M 25.203125 64.796875 
L 20.21875 38.921875 
L 32.90625 38.921875 
Q 40.375 38.921875 44.984375 43.046875 
Q 49.609375 47.171875 49.609375 53.8125 
Q 49.609375 59.125 46.5 61.953125 
Q 43.40625 64.796875 37.59375 64.796875 
z
M 43.3125 35.015625 
Q 46.4375 34.28125 48.515625 31.390625 
Q 50.59375 28.515625 53.328125 19.921875 
L 59.515625 0 
L 49.125 0 
L 43.40625 18.703125 
Q 41.21875 25.921875 38.328125 28.359375 
Q 35.453125 30.8125 29.5 30.8125 
L 18.609375 30.8125 
L 12.59375 0 
L 2.6875 0 
L 16.890625 72.90625 
L 39.109375 72.90625 
Q 49.21875 72.90625 54.609375 68.328125 
Q 60.015625 63.765625 60.015625 55.171875 
Q 60.015625 47.5625 55.421875 41.984375 
Q 50.828125 36.421875 43.3125 35.015625 
z
" id="DejaVuSans-Oblique-82"/>
      <path d="M 42.28125 54.6875 
L 40.921875 47.703125 
L 23 47.703125 
L 17.1875 18.015625 
Q 16.890625 16.359375 16.75 15.234375 
Q 16.609375 14.109375 16.609375 13.484375 
Q 16.609375 10.359375 18.484375 8.9375 
Q 20.359375 7.515625 24.515625 7.515625 
L 33.59375 7.515625 
L 32.078125 0 
L 23.484375 0 
Q 15.484375 0 11.546875 3.125 
Q 7.625 6.25 7.625 12.59375 
Q 7.625 13.71875 7.765625 15.0625 
Q 7.90625 16.40625 8.203125 18.015625 
L 14.015625 47.703125 
L 6.390625 47.703125 
L 7.8125 54.6875 
L 15.28125 54.6875 
L 18.3125 70.21875 
L 27.296875 70.21875 
L 24.3125 54.6875 
z
" id="DejaVuSans-Oblique-116"/>
      <path d="M 8.015625 75.875 
L 15.828125 75.875 
Q 23.140625 64.359375 26.78125 53.3125 
Q 30.421875 42.28125 30.421875 31.390625 
Q 30.421875 20.453125 26.78125 9.375 
Q 23.140625 -1.703125 15.828125 -13.1875 
L 8.015625 -13.1875 
Q 14.5 -2 17.703125 9.0625 
Q 20.90625 20.125 20.90625 31.390625 
Q 20.90625 42.671875 17.703125 53.65625 
Q 14.5 64.65625 8.015625 75.875 
z
" id="DejaVuSans-41"/>
     </defs>
     <g transform="translate(14.8 424.487016)rotate(-90)scale(0.1 -0.1)">
      <use transform="translate(0 0.015625)" xlink:href="#DejaVuSans-82"/>
      <use transform="translate(69.482422 0.015625)" xlink:href="#DejaVuSans-101"/>
      <use transform="translate(131.005859 0.015625)" xlink:href="#DejaVuSans-97"/>
      <use transform="translate(192.285156 0.015625)" xlink:href="#DejaVuSans-108"/>
      <use transform="translate(220.068359 0.015625)" xlink:href="#DejaVuSans-45"/>
      <use transform="translate(256.152344 0.015625)" xlink:href="#DejaVuSans-116"/>
      <use transform="translate(295.361328 0.015625)" xlink:href="#DejaVuSans-105"/>
      <use transform="translate(323.144531 0.015625)" xlink:href="#DejaVuSans-109"/>
      <use transform="translate(420.556641 0.015625)" xlink:href="#DejaVuSans-101"/>
      <use transform="translate(482.080078 0.015625)" xlink:href="#DejaVuSans-32"/>
      <use transform="translate(513.867188 0.015625)" xlink:href="#DejaVuSans-82"/>
      <use transform="translate(583.349609 0.015625)" xlink:href="#DejaVuSans-101"/>
      <use transform="translate(644.873047 0.015625)" xlink:href="#DejaVuSans-112"/>
      <use transform="translate(708.349609 0.015625)" xlink:href="#DejaVuSans-114"/>
      <use transform="translate(749.462891 0.015625)" xlink:href="#DejaVuSans-111"/>
      <use transform="translate(810.644531 0.015625)" xlink:href="#DejaVuSans-100"/>
      <use transform="translate(874.121094 0.015625)" xlink:href="#DejaVuSans-117"/>
      <use transform="translate(937.5 0.015625)" xlink:href="#DejaVuSans-99"/>
      <use transform="translate(992.480469 0.015625)" xlink:href="#DejaVuSans-116"/>
      <use transform="translate(1031.689453 0.015625)" xlink:href="#DejaVuSans-105"/>
      <use transform="translate(1059.472656 0.015625)" xlink:href="#DejaVuSans-118"/>
      <use transform="translate(1118.652344 0.015625)" xlink:href="#DejaVuSans-101"/>
      <use transform="translate(1180.175781 0.015625)" xlink:href="#DejaVuSans-32"/>
      <use transform="translate(1211.962891 0.015625)" xlink:href="#DejaVuSans-78"/>
      <use transform="translate(1286.767578 0.015625)" xlink:href="#DejaVuSans-117"/>
      <use transform="translate(1350.146484 0.015625)" xlink:href="#DejaVuSans-109"/>
      <use transform="translate(1447.558594 0.015625)" xlink:href="#DejaVuSans-98"/>
      <use transform="translate(1511.035156 0.015625)" xlink:href="#DejaVuSans-101"/>
      <use transform="translate(1572.558594 0.015625)" xlink:href="#DejaVuSans-114"/>
      <use transform="translate(1613.671875 0.015625)" xlink:href="#DejaVuSans-32"/>
      <use transform="translate(1645.458984 0.015625)" xlink:href="#DejaVuSans-40"/>
      <use transform="translate(1684.472656 0.015625)" xlink:href="#DejaVuSans-Oblique-82"/>
      <use transform="translate(1753.955078 -16.390625)scale(0.7)" xlink:href="#DejaVuSans-Oblique-116"/>
      <use transform="translate(1784.135742 0.015625)" xlink:href="#DejaVuSans-41"/>
     </g>
    </g>
   </g>
   <g id="PathCollection_1">
    <defs>
     <path d="M 0 3.162278 
C 0.838646 3.162278 1.643056 2.82908 2.236068 2.236068 
C 2.82908 1.643056 3.162278 0.838646 3.162278 0 
C 3.162278 -0.838646 2.82908 -1.643056 2.236068 -2.236068 
C 1.643056 -2.82908 0.838646 -3.162278 0 -3.162278 
C -0.838646 -3.162278 -1.643056 -2.82908 -2.236068 -2.236068 
C -2.82908 -1.643056 -3.162278 -0.838646 -3.162278 0 
C -3.162278 0.838646 -2.82908 1.643056 -2.236068 2.236068 
C -1.643056 2.82908 -0.838646 3.162278 0 3.162278 
z
" id="C0_0_a810332be9"/>
    </defs>
    <g clip-path="url(#pe7e1085bf4)">
     <use style="fill:#ff0000;stroke:#000000;stroke-width:0.5;" x="55.2973" xlink:href="#C0_0_a810332be9" y="271.093613"/>
    </g>
    <g clip-path="url(#pe7e1085bf4)">
     <use style="fill:#ff0000;stroke:#000000;stroke-width:0.5;" x="66.791475" xlink:href="#C0_0_a810332be9" y="207.656341"/>
    </g>
    <g clip-path="url(#pe7e1085bf4)">
     <use style="fill:#ff0000;stroke:#000000;stroke-width:0.5;" x="78.285649" xlink:href="#C0_0_a810332be9" y="154.170015"/>
    </g>
    <g clip-path="url(#pe7e1085bf4)">
     <use style="fill:#ff0000;stroke:#000000;stroke-width:0.5;" x="89.779824" xlink:href="#C0_0_a810332be9" y="118.097841"/>
    </g>
    <g clip-path="url(#pe7e1085bf4)">
     <use style="fill:#ff0000;stroke:#000000;stroke-width:0.5;" x="101.273999" xlink:href="#C0_0_a810332be9" y="130.536521"/>
    </g>
    <g clip-path="url(#pe7e1085bf4)">
     <use style="fill:#ff0000;stroke:#000000;stroke-width:0.5;" x="112.768174" xlink:href="#C0_0_a810332be9" y="185.266716"/>
    </g>
    <g clip-path="url(#pe7e1085bf4)">
     <use style="fill:#ff0000;stroke:#000000;stroke-width:0.5;" x="124.262348" xlink:href="#C0_0_a810332be9" y="232.533703"/>
    </g>
    <g clip-path="url(#pe7e1085bf4)">
     <use style="fill:#ff0000;stroke:#000000;stroke-width:0.5;" x="135.756523" xlink:href="#C0_0_a810332be9" y="277.312953"/>
    </g>
    <g clip-path="url(#pe7e1085bf4)">
     <use style="fill:#ff0000;stroke:#000000;stroke-width:0.5;" x="147.250698" xlink:href="#C0_0_a810332be9" y="323.336071"/>
    </g>
    <g clip-path="url(#pe7e1085bf4)">
     <use style="fill:#ff0000;stroke:#000000;stroke-width:0.5;" x="158.744873" xlink:href="#C0_0_a810332be9" y="374.334662"/>
    </g>
    <g clip-path="url(#pe7e1085bf4)">
     <use style="fill:#ff0000;stroke:#000000;stroke-width:0.5;" x="170.239047" xlink:href="#C0_0_a810332be9" y="402.943627"/>
    </g>
    <g clip-path="url(#pe7e1085bf4)">
     <use style="fill:#ff0000;stroke:#000000;stroke-width:0.5;" x="181.733222" xlink:href="#C0_0_a810332be9" y="429.064857"/>
    </g>
    <g clip-path="url(#pe7e1085bf4)">
     <use style="fill:#ff0000;stroke:#000000;stroke-width:0.5;" x="193.227397" xlink:href="#C0_0_a810332be9" y="450.210614"/>
    </g>
    <g clip-path="url(#pe7e1085bf4)">
     <use style="fill:#ff0000;stroke:#000000;stroke-width:0.5;" x="204.721572" xlink:href="#C0_0_a810332be9" y="458.91769"/>
    </g>
    <g clip-path="url(#pe7e1085bf4)">
     <use style="fill:#ff2a2a;stroke:#000000;stroke-width:0.5;" x="216.215746" xlink:href="#C0_0_a810332be9" y="470.112503"/>
    </g>
    <g clip-path="url(#pe7e1085bf4)">
     <use style="fill:#ff0b0b;stroke:#000000;stroke-width:0.5;" x="227.709921" xlink:href="#C0_0_a810332be9" y="461.405426"/>
    </g>
    <g clip-path="url(#pe7e1085bf4)">
     <use style="fill:#ff0000;stroke:#000000;stroke-width:0.5;" x="239.204096" xlink:href="#C0_0_a810332be9" y="446.479009"/>
    </g>
    <g clip-path="url(#pe7e1085bf4)">
     <use style="fill:#ff0000;stroke:#000000;stroke-width:0.5;" x="250.698271" xlink:href="#C0_0_a810332be9" y="457.673822"/>
    </g>
    <g clip-path="url(#pe7e1085bf4)">
     <use style="fill:#ff2020;stroke:#000000;stroke-width:0.5;" x="262.192445" xlink:href="#C0_0_a810332be9" y="466.380898"/>
    </g>
    <g clip-path="url(#pe7e1085bf4)">
     <use style="fill:#ff8080;stroke:#000000;stroke-width:0.5;" x="273.68662" xlink:href="#C0_0_a810332be9" y="490.014392"/>
    </g>
    <g clip-path="url(#pe7e1085bf4)">
     <use style="fill:#ffcaca;stroke:#000000;stroke-width:0.5;" x="285.180795" xlink:href="#C0_0_a810332be9" y="507.428545"/>
    </g>
    <g clip-path="url(#pe7e1085bf4)">
     <use style="fill:#d4d4d4;stroke:#000000;stroke-width:0.5;" x="296.67497" xlink:href="#C0_0_a810332be9" y="531.062038"/>
    </g>
    <g clip-path="url(#pe7e1085bf4)">
     <use style="fill:#eaeaea;stroke:#000000;stroke-width:0.5;" x="308.169144" xlink:href="#C0_0_a810332be9" y="527.330434"/>
    </g>
    <g clip-path="url(#pe7e1085bf4)">
     <use style="fill:#ffffff;stroke:#000000;stroke-width:0.5;" x="319.663319" xlink:href="#C0_0_a810332be9" y="522.354961"/>
    </g>
    <g clip-path="url(#pe7e1085bf4)">
     <use style="fill:#ffffff;stroke:#000000;stroke-width:0.5;" x="331.157494" xlink:href="#C0_0_a810332be9" y="518.623357"/>
    </g>
    <g clip-path="url(#pe7e1085bf4)">
     <use style="fill:#eaeaea;stroke:#000000;stroke-width:0.5;" x="342.651669" xlink:href="#C0_0_a810332be9" y="526.086565"/>
    </g>
    <g clip-path="url(#pe7e1085bf4)">
     <use style="fill:#aaaaaa;stroke:#000000;stroke-width:0.5;" x="354.145843" xlink:href="#C0_0_a810332be9" y="542.25685"/>
    </g>
    <g clip-path="url(#pe7e1085bf4)">
     <use style="fill:#8a8a8a;stroke:#000000;stroke-width:0.5;" x="365.640018" xlink:href="#C0_0_a810332be9" y="549.720059"/>
    </g>
    <g clip-path="url(#pe7e1085bf4)">
     <use style="fill:#ffffff;stroke:#000000;stroke-width:0.5;" x="377.134193" xlink:href="#C0_0_a810332be9" y="518.623357"/>
    </g>
    <g clip-path="url(#pe7e1085bf4)">
     <use style="fill:#ffaaaa;stroke:#000000;stroke-width:0.5;" x="388.628368" xlink:href="#C0_0_a810332be9" y="498.721468"/>
    </g>
    <g clip-path="url(#pe7e1085bf4)">
     <use style="fill:#ff3535;stroke:#000000;stroke-width:0.5;" x="400.122542" xlink:href="#C0_0_a810332be9" y="471.356371"/>
    </g>
    <g clip-path="url(#pe7e1085bf4)">
     <use style="fill:#ff4a4a;stroke:#000000;stroke-width:0.5;" x="411.616717" xlink:href="#C0_0_a810332be9" y="477.575711"/>
    </g>
    <g clip-path="url(#pe7e1085bf4)">
     <use style="fill:#ff9f9f;stroke:#000000;stroke-width:0.5;" x="423.110892" xlink:href="#C0_0_a810332be9" y="497.4776"/>
    </g>
    <g clip-path="url(#pe7e1085bf4)">
     <use style="fill:#ffffff;stroke:#000000;stroke-width:0.5;" x="434.605067" xlink:href="#C0_0_a810332be9" y="521.111093"/>
    </g>
    <g clip-path="url(#pe7e1085bf4)">
     <use style="fill:#dfdfdf;stroke:#000000;stroke-width:0.5;" x="446.099242" xlink:href="#C0_0_a810332be9" y="529.81817"/>
    </g>
    <g clip-path="url(#pe7e1085bf4)">
     <use style="fill:#ffeaea;stroke:#000000;stroke-width:0.5;" x="457.593416" xlink:href="#C0_0_a810332be9" y="513.647885"/>
    </g>
    <g clip-path="url(#pe7e1085bf4)">
     <use style="fill:#ff7575;stroke:#000000;stroke-width:0.5;" x="469.087591" xlink:href="#C0_0_a810332be9" y="487.526655"/>
    </g>
    <g clip-path="url(#pe7e1085bf4)">
     <use style="fill:#ff4a4a;stroke:#000000;stroke-width:0.5;" x="480.581766" xlink:href="#C0_0_a810332be9" y="476.331843"/>
    </g>
    <g clip-path="url(#pe7e1085bf4)">
     <use style="fill:#ff6060;stroke:#000000;stroke-width:0.5;" x="492.075941" xlink:href="#C0_0_a810332be9" y="481.307315"/>
    </g>
    <g clip-path="url(#pe7e1085bf4)">
     <use style="fill:#ffb5b5;stroke:#000000;stroke-width:0.5;" x="503.570115" xlink:href="#C0_0_a810332be9" y="502.453072"/>
    </g>
    <g clip-path="url(#pe7e1085bf4)">
     <use style="fill:#ffffff;stroke:#000000;stroke-width:0.5;" x="515.06429" xlink:href="#C0_0_a810332be9" y="521.111093"/>
    </g>
    <g clip-path="url(#pe7e1085bf4)">
     <use style="fill:#ffd4d4;stroke:#000000;stroke-width:0.5;" x="526.558465" xlink:href="#C0_0_a810332be9" y="509.916281"/>
    </g>
    <g clip-path="url(#pe7e1085bf4)">
     <use style="fill:#ff8080;stroke:#000000;stroke-width:0.5;" x="538.05264" xlink:href="#C0_0_a810332be9" y="488.770524"/>
    </g>
    <g clip-path="url(#pe7e1085bf4)">
     <use style="fill:#ff0000;stroke:#000000;stroke-width:0.5;" x="549.546814" xlink:href="#C0_0_a810332be9" y="457.673822"/>
    </g>
    <g clip-path="url(#pe7e1085bf4)">
     <use style="fill:#ff0000;stroke:#000000;stroke-width:0.5;" x="561.040989" xlink:href="#C0_0_a810332be9" y="453.942218"/>
    </g>
    <g clip-path="url(#pe7e1085bf4)">
     <use style="fill:#ff2020;stroke:#000000;stroke-width:0.5;" x="572.535164" xlink:href="#C0_0_a810332be9" y="467.624766"/>
    </g>
    <g clip-path="url(#pe7e1085bf4)">
     <use style="fill:#ff7575;stroke:#000000;stroke-width:0.5;" x="584.029339" xlink:href="#C0_0_a810332be9" y="487.526655"/>
    </g>
    <g clip-path="url(#pe7e1085bf4)">
     <use style="fill:#ffb5b5;stroke:#000000;stroke-width:0.5;" x="595.523513" xlink:href="#C0_0_a810332be9" y="501.209204"/>
    </g>
    <g clip-path="url(#pe7e1085bf4)">
     <use style="fill:#ffffff;stroke:#000000;stroke-width:0.5;" x="607.017688" xlink:href="#C0_0_a810332be9" y="522.354961"/>
    </g>
    <g clip-path="url(#pe7e1085bf4)">
     <use style="fill:#ff9f9f;stroke:#000000;stroke-width:0.5;" x="618.511863" xlink:href="#C0_0_a810332be9" y="497.4776"/>
    </g>
    <g clip-path="url(#pe7e1085bf4)">
     <use style="fill:#ff7575;stroke:#000000;stroke-width:0.5;" x="630.006038" xlink:href="#C0_0_a810332be9" y="487.526655"/>
    </g>
    <g clip-path="url(#pe7e1085bf4)">
     <use style="fill:#ff8a8a;stroke:#000000;stroke-width:0.5;" x="641.500212" xlink:href="#C0_0_a810332be9" y="492.502128"/>
    </g>
    <g clip-path="url(#pe7e1085bf4)">
     <use style="fill:#ffdfdf;stroke:#000000;stroke-width:0.5;" x="652.994387" xlink:href="#C0_0_a810332be9" y="511.160149"/>
    </g>
    <g clip-path="url(#pe7e1085bf4)">
     <use style="fill:#bfbfbf;stroke:#000000;stroke-width:0.5;" x="664.488562" xlink:href="#C0_0_a810332be9" y="537.281378"/>
    </g>
    <g clip-path="url(#pe7e1085bf4)">
     <use style="fill:#8a8a8a;stroke:#000000;stroke-width:0.5;" x="675.982737" xlink:href="#C0_0_a810332be9" y="549.720059"/>
    </g>
    <g clip-path="url(#pe7e1085bf4)">
     <use style="fill:#eaeaea;stroke:#000000;stroke-width:0.5;" x="687.476911" xlink:href="#C0_0_a810332be9" y="526.086565"/>
    </g>
    <g clip-path="url(#pe7e1085bf4)">
     <use style="fill:#ffb5b5;stroke:#000000;stroke-width:0.5;" x="698.971086" xlink:href="#C0_0_a810332be9" y="502.453072"/>
    </g>
    <g clip-path="url(#pe7e1085bf4)">
     <use style="fill:#ff2020;stroke:#000000;stroke-width:0.5;" x="710.465261" xlink:href="#C0_0_a810332be9" y="466.380898"/>
    </g>
    <g clip-path="url(#pe7e1085bf4)">
     <use style="fill:#ff0000;stroke:#000000;stroke-width:0.5;" x="721.959436" xlink:href="#C0_0_a810332be9" y="458.91769"/>
    </g>
    <g clip-path="url(#pe7e1085bf4)">
     <use style="fill:#ff9595;stroke:#000000;stroke-width:0.5;" x="733.45361" xlink:href="#C0_0_a810332be9" y="494.989864"/>
    </g>
    <g clip-path="url(#pe7e1085bf4)">
     <use style="fill:#d4d4d4;stroke:#000000;stroke-width:0.5;" x="744.947785" xlink:href="#C0_0_a810332be9" y="531.062038"/>
    </g>
    <g clip-path="url(#pe7e1085bf4)">
     <use style="fill:#555555;stroke:#000000;stroke-width:0.5;" x="756.44196" xlink:href="#C0_0_a810332be9" y="562.158739"/>
    </g>
    <g clip-path="url(#pe7e1085bf4)">
     <use style="fill:#404040;stroke:#000000;stroke-width:0.5;" x="767.936135" xlink:href="#C0_0_a810332be9" y="567.134212"/>
    </g>
    <g clip-path="url(#pe7e1085bf4)">
     <use style="fill:#606060;stroke:#000000;stroke-width:0.5;" x="779.430309" xlink:href="#C0_0_a810332be9" y="558.427135"/>
    </g>
    <g clip-path="url(#pe7e1085bf4)">
     <use style="fill:#cacaca;stroke:#000000;stroke-width:0.5;" x="790.924484" xlink:href="#C0_0_a810332be9" y="533.549774"/>
    </g>
    <g clip-path="url(#pe7e1085bf4)">
     <use style="fill:#fff4f4;stroke:#000000;stroke-width:0.5;" x="802.418659" xlink:href="#C0_0_a810332be9" y="517.379489"/>
    </g>
    <g clip-path="url(#pe7e1085bf4)">
     <use style="fill:#f4f4f4;stroke:#000000;stroke-width:0.5;" x="813.912834" xlink:href="#C0_0_a810332be9" y="523.598829"/>
    </g>
    <g clip-path="url(#pe7e1085bf4)">
     <use style="fill:#8a8a8a;stroke:#000000;stroke-width:0.5;" x="825.407008" xlink:href="#C0_0_a810332be9" y="548.476191"/>
    </g>
    <g clip-path="url(#pe7e1085bf4)">
     <use style="fill:#959595;stroke:#000000;stroke-width:0.5;" x="836.901183" xlink:href="#C0_0_a810332be9" y="547.232323"/>
    </g>
    <g clip-path="url(#pe7e1085bf4)">
     <use style="fill:#d4d4d4;stroke:#000000;stroke-width:0.5;" x="848.395358" xlink:href="#C0_0_a810332be9" y="531.062038"/>
    </g>
    <g clip-path="url(#pe7e1085bf4)">
     <use style="fill:#ff3535;stroke:#000000;stroke-width:0.5;" x="859.889533" xlink:href="#C0_0_a810332be9" y="472.600239"/>
    </g>
    <g clip-path="url(#pe7e1085bf4)">
     <use style="fill:#ff0000;stroke:#000000;stroke-width:0.5;" x="871.383708" xlink:href="#C0_0_a810332be9" y="412.894572"/>
    </g>
    <g clip-path="url(#pe7e1085bf4)">
     <use style="fill:#ff0000;stroke:#000000;stroke-width:0.5;" x="882.877882" xlink:href="#C0_0_a810332be9" y="380.554002"/>
    </g>
    <g clip-path="url(#pe7e1085bf4)">
     <use style="fill:#ff0000;stroke:#000000;stroke-width:0.5;" x="894.372057" xlink:href="#C0_0_a810332be9" y="416.626176"/>
    </g>
    <g clip-path="url(#pe7e1085bf4)">
     <use style="fill:#ff0000;stroke:#000000;stroke-width:0.5;" x="905.866232" xlink:href="#C0_0_a810332be9" y="429.064857"/>
    </g>
    <g clip-path="url(#pe7e1085bf4)">
     <use style="fill:#ff0000;stroke:#000000;stroke-width:0.5;" x="917.360407" xlink:href="#C0_0_a810332be9" y="451.454482"/>
    </g>
    <g clip-path="url(#pe7e1085bf4)">
     <use style="fill:#ff3535;stroke:#000000;stroke-width:0.5;" x="928.854581" xlink:href="#C0_0_a810332be9" y="472.600239"/>
    </g>
    <g clip-path="url(#pe7e1085bf4)">
     <use style="fill:#ff0000;stroke:#000000;stroke-width:0.5;" x="940.348756" xlink:href="#C0_0_a810332be9" y="439.015801"/>
    </g>
    <g clip-path="url(#pe7e1085bf4)">
     <use style="fill:#ff0000;stroke:#000000;stroke-width:0.5;" x="951.842931" xlink:href="#C0_0_a810332be9" y="427.820988"/>
    </g>
    <g clip-path="url(#pe7e1085bf4)">
     <use style="fill:#ff0000;stroke:#000000;stroke-width:0.5;" x="963.337106" xlink:href="#C0_0_a810332be9" y="412.894572"/>
    </g>
    <g clip-path="url(#pe7e1085bf4)">
     <use style="fill:#ff0000;stroke:#000000;stroke-width:0.5;" x="974.83128" xlink:href="#C0_0_a810332be9" y="431.552593"/>
    </g>
    <g clip-path="url(#pe7e1085bf4)">
     <use style="fill:#ff9595;stroke:#000000;stroke-width:0.5;" x="986.325455" xlink:href="#C0_0_a810332be9" y="493.745996"/>
    </g>
    <g clip-path="url(#pe7e1085bf4)">
     <use style="fill:#ffcaca;stroke:#000000;stroke-width:0.5;" x="997.81963" xlink:href="#C0_0_a810332be9" y="507.428545"/>
    </g>
    <g clip-path="url(#pe7e1085bf4)">
     <use style="fill:#ffd4d4;stroke:#000000;stroke-width:0.5;" x="1009.313805" xlink:href="#C0_0_a810332be9" y="508.672413"/>
    </g>
    <g clip-path="url(#pe7e1085bf4)">
     <use style="fill:#ffb5b5;stroke:#000000;stroke-width:0.5;" x="1020.807979" xlink:href="#C0_0_a810332be9" y="502.453072"/>
    </g>
    <g clip-path="url(#pe7e1085bf4)">
     <use style="fill:#ff0b0b;stroke:#000000;stroke-width:0.5;" x="1032.302154" xlink:href="#C0_0_a810332be9" y="461.405426"/>
    </g>
    <g clip-path="url(#pe7e1085bf4)">
     <use style="fill:#ff0000;stroke:#000000;stroke-width:0.5;" x="1043.796329" xlink:href="#C0_0_a810332be9" y="460.161558"/>
    </g>
    <g clip-path="url(#pe7e1085bf4)">
     <use style="fill:#ff4a4a;stroke:#000000;stroke-width:0.5;" x="1055.290504" xlink:href="#C0_0_a810332be9" y="476.331843"/>
    </g>
    <g clip-path="url(#pe7e1085bf4)">
     <use style="fill:#ff4040;stroke:#000000;stroke-width:0.5;" x="1066.784678" xlink:href="#C0_0_a810332be9" y="473.844107"/>
    </g>
    <g clip-path="url(#pe7e1085bf4)">
     <use style="fill:#ff9595;stroke:#000000;stroke-width:0.5;" x="1078.278853" xlink:href="#C0_0_a810332be9" y="493.745996"/>
    </g>
    <g clip-path="url(#pe7e1085bf4)">
     <use style="fill:#ff0000;stroke:#000000;stroke-width:0.5;" x="1089.773028" xlink:href="#C0_0_a810332be9" y="457.673822"/>
    </g>
    <g clip-path="url(#pe7e1085bf4)">
     <use style="fill:#ff0000;stroke:#000000;stroke-width:0.5;" x="1101.267203" xlink:href="#C0_0_a810332be9" y="414.13844"/>
    </g>
    <g clip-path="url(#pe7e1085bf4)">
     <use style="fill:#ff0000;stroke:#000000;stroke-width:0.5;" x="1112.761377" xlink:href="#C0_0_a810332be9" y="394.236551"/>
    </g>
    <g clip-path="url(#pe7e1085bf4)">
     <use style="fill:#ff0000;stroke:#000000;stroke-width:0.5;" x="1124.255552" xlink:href="#C0_0_a810332be9" y="407.919099"/>
    </g>
    <g clip-path="url(#pe7e1085bf4)">
     <use style="fill:#ff0000;stroke:#000000;stroke-width:0.5;" x="1135.749727" xlink:href="#C0_0_a810332be9" y="446.479009"/>
    </g>
    <g clip-path="url(#pe7e1085bf4)">
     <use style="fill:#ff5555;stroke:#000000;stroke-width:0.5;" x="1147.243902" xlink:href="#C0_0_a810332be9" y="478.819579"/>
    </g>
    <g clip-path="url(#pe7e1085bf4)">
     <use style="fill:#ffeaea;stroke:#000000;stroke-width:0.5;" x="1158.738076" xlink:href="#C0_0_a810332be9" y="514.891753"/>
    </g>
    <g clip-path="url(#pe7e1085bf4)">
     <use style="fill:#eaeaea;stroke:#000000;stroke-width:0.5;" x="1170.232251" xlink:href="#C0_0_a810332be9" y="527.330434"/>
    </g>
    <g clip-path="url(#pe7e1085bf4)">
     <use style="fill:#ffffff;stroke:#000000;stroke-width:0.5;" x="1181.726426" xlink:href="#C0_0_a810332be9" y="519.867225"/>
    </g>
    <g clip-path="url(#pe7e1085bf4)">
     <use style="fill:#ffd4d4;stroke:#000000;stroke-width:0.5;" x="1193.220601" xlink:href="#C0_0_a810332be9" y="509.916281"/>
    </g>
    <g clip-path="url(#pe7e1085bf4)">
     <use style="fill:#ff9595;stroke:#000000;stroke-width:0.5;" x="1204.714775" xlink:href="#C0_0_a810332be9" y="493.745996"/>
    </g>
    <g clip-path="url(#pe7e1085bf4)">
     <use style="fill:#ff6060;stroke:#000000;stroke-width:0.5;" x="1216.20895" xlink:href="#C0_0_a810332be9" y="482.551183"/>
    </g>
   </g>
   <g id="line2d_118">
    <path clip-path="url(#pe7e1085bf4)" d="M 43.803125 519.867225 
L 1227.703125 519.867225 
" style="fill:none;stroke:#000000;stroke-linecap:square;stroke-opacity:0.25;"/>
   </g>
   <g id="patch_3">
    <path d="M 43.803125 22.32 
L 1227.703125 22.32 
" style="fill:none;stroke:#000000;stroke-linecap:square;stroke-linejoin:miter;stroke-width:0.8;"/>
   </g>
   <g id="text_14">
    <!-- Real-time $R_t$ for AZ as of June 26 -->
    <defs>
     <path d="M 37.109375 75.984375 
L 37.109375 68.5 
L 28.515625 68.5 
Q 23.6875 68.5 21.796875 66.546875 
Q 19.921875 64.59375 19.921875 59.515625 
L 19.921875 54.6875 
L 34.71875 54.6875 
L 34.71875 47.703125 
L 19.921875 47.703125 
L 19.921875 0 
L 10.890625 0 
L 10.890625 47.703125 
L 2.296875 47.703125 
L 2.296875 54.6875 
L 10.890625 54.6875 
L 10.890625 58.5 
Q 10.890625 67.625 15.140625 71.796875 
Q 19.390625 75.984375 28.609375 75.984375 
z
" id="DejaVuSans-102"/>
     <path d="M 34.1875 63.1875 
L 20.796875 26.90625 
L 47.609375 26.90625 
z
M 28.609375 72.90625 
L 39.796875 72.90625 
L 67.578125 0 
L 57.328125 0 
L 50.6875 18.703125 
L 17.828125 18.703125 
L 11.1875 0 
L 0.78125 0 
z
" id="DejaVuSans-65"/>
     <path d="M 5.609375 72.90625 
L 62.890625 72.90625 
L 62.890625 65.375 
L 16.796875 8.296875 
L 64.015625 8.296875 
L 64.015625 0 
L 4.5 0 
L 4.5 7.515625 
L 50.59375 64.59375 
L 5.609375 64.59375 
z
" id="DejaVuSans-90"/>
     <path d="M 44.28125 53.078125 
L 44.28125 44.578125 
Q 40.484375 46.53125 36.375 47.5 
Q 32.28125 48.484375 27.875 48.484375 
Q 21.1875 48.484375 17.84375 46.4375 
Q 14.5 44.390625 14.5 40.28125 
Q 14.5 37.15625 16.890625 35.375 
Q 19.28125 33.59375 26.515625 31.984375 
L 29.59375 31.296875 
Q 39.15625 29.25 43.1875 25.515625 
Q 47.21875 21.78125 47.21875 15.09375 
Q 47.21875 7.46875 41.1875 3.015625 
Q 35.15625 -1.421875 24.609375 -1.421875 
Q 20.21875 -1.421875 15.453125 -0.5625 
Q 10.6875 0.296875 5.421875 2 
L 5.421875 11.28125 
Q 10.40625 8.6875 15.234375 7.390625 
Q 20.0625 6.109375 24.8125 6.109375 
Q 31.15625 6.109375 34.5625 8.28125 
Q 37.984375 10.453125 37.984375 14.40625 
Q 37.984375 18.0625 35.515625 20.015625 
Q 33.0625 21.96875 24.703125 23.78125 
L 21.578125 24.515625 
Q 13.234375 26.265625 9.515625 29.90625 
Q 5.8125 33.546875 5.8125 39.890625 
Q 5.8125 47.609375 11.28125 51.796875 
Q 16.75 56 26.8125 56 
Q 31.78125 56 36.171875 55.265625 
Q 40.578125 54.546875 44.28125 53.078125 
z
" id="DejaVuSans-115"/>
     <path d="M 9.8125 72.90625 
L 19.671875 72.90625 
L 19.671875 5.078125 
Q 19.671875 -8.109375 14.671875 -14.0625 
Q 9.671875 -20.015625 -1.421875 -20.015625 
L -5.171875 -20.015625 
L -5.171875 -11.71875 
L -2.09375 -11.71875 
Q 4.4375 -11.71875 7.125 -8.046875 
Q 9.8125 -4.390625 9.8125 5.078125 
z
" id="DejaVuSans-74"/>
     <path d="M 54.890625 33.015625 
L 54.890625 0 
L 45.90625 0 
L 45.90625 32.71875 
Q 45.90625 40.484375 42.875 44.328125 
Q 39.84375 48.1875 33.796875 48.1875 
Q 26.515625 48.1875 22.3125 43.546875 
Q 18.109375 38.921875 18.109375 30.90625 
L 18.109375 0 
L 9.078125 0 
L 9.078125 54.6875 
L 18.109375 54.6875 
L 18.109375 46.1875 
Q 21.34375 51.125 25.703125 53.5625 
Q 30.078125 56 35.796875 56 
Q 45.21875 56 50.046875 50.171875 
Q 54.890625 44.34375 54.890625 33.015625 
z
" id="DejaVuSans-110"/>
    </defs>
    <g transform="translate(537.713125 16.32)scale(0.12 -0.12)">
     <use transform="translate(0 0.015625)" xlink:href="#DejaVuSans-82"/>
     <use transform="translate(69.482422 0.015625)" xlink:href="#DejaVuSans-101"/>
     <use transform="translate(131.005859 0.015625)" xlink:href="#DejaVuSans-97"/>
     <use transform="translate(192.285156 0.015625)" xlink:href="#DejaVuSans-108"/>
     <use transform="translate(220.068359 0.015625)" xlink:href="#DejaVuSans-45"/>
     <use transform="translate(256.152344 0.015625)" xlink:href="#DejaVuSans-116"/>
     <use transform="translate(295.361328 0.015625)" xlink:href="#DejaVuSans-105"/>
     <use transform="translate(323.144531 0.015625)" xlink:href="#DejaVuSans-109"/>
     <use transform="translate(420.556641 0.015625)" xlink:href="#DejaVuSans-101"/>
     <use transform="translate(482.080078 0.015625)" xlink:href="#DejaVuSans-32"/>
     <use transform="translate(513.867188 0.015625)" xlink:href="#DejaVuSans-Oblique-82"/>
     <use transform="translate(583.349609 -16.390625)scale(0.7)" xlink:href="#DejaVuSans-Oblique-116"/>
     <use transform="translate(613.530273 0.015625)" xlink:href="#DejaVuSans-32"/>
     <use transform="translate(645.317383 0.015625)" xlink:href="#DejaVuSans-102"/>
     <use transform="translate(680.522461 0.015625)" xlink:href="#DejaVuSans-111"/>
     <use transform="translate(741.704102 0.015625)" xlink:href="#DejaVuSans-114"/>
     <use transform="translate(782.817383 0.015625)" xlink:href="#DejaVuSans-32"/>
     <use transform="translate(814.604492 0.015625)" xlink:href="#DejaVuSans-65"/>
     <use transform="translate(883.012695 0.015625)" xlink:href="#DejaVuSans-90"/>
     <use transform="translate(951.518555 0.015625)" xlink:href="#DejaVuSans-32"/>
     <use transform="translate(983.305664 0.015625)" xlink:href="#DejaVuSans-97"/>
     <use transform="translate(1044.584961 0.015625)" xlink:href="#DejaVuSans-115"/>
     <use transform="translate(1096.68457 0.015625)" xlink:href="#DejaVuSans-32"/>
     <use transform="translate(1128.47168 0.015625)" xlink:href="#DejaVuSans-111"/>
     <use transform="translate(1189.65332 0.015625)" xlink:href="#DejaVuSans-102"/>
     <use transform="translate(1224.858398 0.015625)" xlink:href="#DejaVuSans-32"/>
     <use transform="translate(1256.645508 0.015625)" xlink:href="#DejaVuSans-74"/>
     <use transform="translate(1286.137695 0.015625)" xlink:href="#DejaVuSans-117"/>
     <use transform="translate(1349.516602 0.015625)" xlink:href="#DejaVuSans-110"/>
     <use transform="translate(1412.895508 0.015625)" xlink:href="#DejaVuSans-101"/>
     <use transform="translate(1474.418945 0.015625)" xlink:href="#DejaVuSans-32"/>
     <use transform="translate(1506.206055 0.015625)" xlink:href="#DejaVuSans-50"/>
     <use transform="translate(1569.829102 0.015625)" xlink:href="#DejaVuSans-54"/>
    </g>
   </g>
   <g id="legend_1">
    <g id="patch_4">
     <path d="M 1150.503125 44.998125 
L 1220.703125 44.998125 
Q 1222.703125 44.998125 1222.703125 42.998125 
L 1222.703125 29.32 
Q 1222.703125 27.32 1220.703125 27.32 
L 1150.503125 27.32 
Q 1148.503125 27.32 1148.503125 29.32 
L 1148.503125 42.998125 
Q 1148.503125 44.998125 1150.503125 44.998125 
z
" style="fill:#ffffff;opacity:0.8;stroke:#cccccc;stroke-linejoin:miter;"/>
    </g>
    <g id="line2d_119">
     <path d="M 1152.503125 35.418437 
L 1172.503125 35.418437 
" style="fill:none;stroke:#000000;stroke-linecap:square;stroke-opacity:0.25;"/>
    </g>
    <g id="line2d_120"/>
    <g id="text_15">
     <!-- $R_t=1.0$ -->
     <defs>
      <path d="M 10.59375 45.40625 
L 73.1875 45.40625 
L 73.1875 37.203125 
L 10.59375 37.203125 
z
M 10.59375 25.484375 
L 73.1875 25.484375 
L 73.1875 17.1875 
L 10.59375 17.1875 
z
" id="DejaVuSans-61"/>
     </defs>
     <g transform="translate(1180.503125 38.918437)scale(0.1 -0.1)">
      <use transform="translate(0 0.78125)" xlink:href="#DejaVuSans-Oblique-82"/>
      <use transform="translate(69.482422 -15.625)scale(0.7)" xlink:href="#DejaVuSans-Oblique-116"/>
      <use transform="translate(119.145508 0.78125)" xlink:href="#DejaVuSans-61"/>
      <use transform="translate(222.416992 0.78125)" xlink:href="#DejaVuSans-49"/>
      <use transform="translate(286.040039 0.78125)" xlink:href="#DejaVuSans-46"/>
      <use transform="translate(317.827148 0.78125)" xlink:href="#DejaVuSans-48"/>
     </g>
    </g>
   </g>
  </g>
  <g id="axes_2">
   <g id="matplotlib.axis_3">
    <g id="ytick_7">
     <g id="line2d_121">
      <defs>
       <path d="M 0 0 
L 3.5 0 
" id="mb87585053b" style="stroke:#000000;stroke-width:0.8;"/>
      </defs>
      <g>
       <use style="stroke:#000000;stroke-width:0.8;" x="1227.703125" xlink:href="#mb87585053b" y="615.984303"/>
      </g>
     </g>
     <g id="text_16">
      <!-- -4 -->
      <g style="fill:#1f77b4;" transform="translate(1234.703125 619.783521)scale(0.1 -0.1)">
       <use xlink:href="#DejaVuSans-45"/>
       <use x="36.083984" xlink:href="#DejaVuSans-52"/>
      </g>
     </g>
    </g>
    <g id="ytick_8">
     <g id="line2d_122">
      <g>
       <use style="stroke:#000000;stroke-width:0.8;" x="1227.703125" xlink:href="#mb87585053b" y="502.905388"/>
      </g>
     </g>
     <g id="text_17">
      <!-- 1,570 -->
      <defs>
       <path d="M 11.71875 12.40625 
L 22.015625 12.40625 
L 22.015625 4 
L 14.015625 -11.625 
L 7.71875 -11.625 
L 11.71875 4 
z
" id="DejaVuSans-44"/>
       <path d="M 8.203125 72.90625 
L 55.078125 72.90625 
L 55.078125 68.703125 
L 28.609375 0 
L 18.3125 0 
L 43.21875 64.59375 
L 8.203125 64.59375 
z
" id="DejaVuSans-55"/>
      </defs>
      <g style="fill:#1f77b4;" transform="translate(1234.703125 506.704607)scale(0.1 -0.1)">
       <use xlink:href="#DejaVuSans-49"/>
       <use x="63.623047" xlink:href="#DejaVuSans-44"/>
       <use x="95.410156" xlink:href="#DejaVuSans-53"/>
       <use x="159.033203" xlink:href="#DejaVuSans-55"/>
       <use x="222.65625" xlink:href="#DejaVuSans-48"/>
      </g>
     </g>
    </g>
    <g id="ytick_9">
     <g id="line2d_123">
      <g>
       <use style="stroke:#000000;stroke-width:0.8;" x="1227.703125" xlink:href="#mb87585053b" y="389.826473"/>
      </g>
     </g>
     <g id="text_18">
      <!-- 3,146 -->
      <g style="fill:#1f77b4;" transform="translate(1234.703125 393.625692)scale(0.1 -0.1)">
       <use xlink:href="#DejaVuSans-51"/>
       <use x="63.623047" xlink:href="#DejaVuSans-44"/>
       <use x="95.410156" xlink:href="#DejaVuSans-49"/>
       <use x="159.033203" xlink:href="#DejaVuSans-52"/>
       <use x="222.65625" xlink:href="#DejaVuSans-54"/>
      </g>
     </g>
    </g>
    <g id="ytick_10">
     <g id="line2d_124">
      <g>
       <use style="stroke:#000000;stroke-width:0.8;" x="1227.703125" xlink:href="#mb87585053b" y="276.747558"/>
      </g>
     </g>
     <g id="text_19">
      <!-- 4,721 -->
      <g style="fill:#1f77b4;" transform="translate(1234.703125 280.546777)scale(0.1 -0.1)">
       <use xlink:href="#DejaVuSans-52"/>
       <use x="63.623047" xlink:href="#DejaVuSans-44"/>
       <use x="95.410156" xlink:href="#DejaVuSans-55"/>
       <use x="159.033203" xlink:href="#DejaVuSans-50"/>
       <use x="222.65625" xlink:href="#DejaVuSans-49"/>
      </g>
     </g>
    </g>
    <g id="ytick_11">
     <g id="line2d_125">
      <g>
       <use style="stroke:#000000;stroke-width:0.8;" x="1227.703125" xlink:href="#mb87585053b" y="163.668644"/>
      </g>
     </g>
     <g id="text_20">
      <!-- 6,296 -->
      <defs>
       <path d="M 10.984375 1.515625 
L 10.984375 10.5 
Q 14.703125 8.734375 18.5 7.8125 
Q 22.3125 6.890625 25.984375 6.890625 
Q 35.75 6.890625 40.890625 13.453125 
Q 46.046875 20.015625 46.78125 33.40625 
Q 43.953125 29.203125 39.59375 26.953125 
Q 35.25 24.703125 29.984375 24.703125 
Q 19.046875 24.703125 12.671875 31.3125 
Q 6.296875 37.9375 6.296875 49.421875 
Q 6.296875 60.640625 12.9375 67.421875 
Q 19.578125 74.21875 30.609375 74.21875 
Q 43.265625 74.21875 49.921875 64.515625 
Q 56.59375 54.828125 56.59375 36.375 
Q 56.59375 19.140625 48.40625 8.859375 
Q 40.234375 -1.421875 26.421875 -1.421875 
Q 22.703125 -1.421875 18.890625 -0.6875 
Q 15.09375 0.046875 10.984375 1.515625 
z
M 30.609375 32.421875 
Q 37.25 32.421875 41.125 36.953125 
Q 45.015625 41.5 45.015625 49.421875 
Q 45.015625 57.28125 41.125 61.84375 
Q 37.25 66.40625 30.609375 66.40625 
Q 23.96875 66.40625 20.09375 61.84375 
Q 16.21875 57.28125 16.21875 49.421875 
Q 16.21875 41.5 20.09375 36.953125 
Q 23.96875 32.421875 30.609375 32.421875 
z
" id="DejaVuSans-57"/>
      </defs>
      <g style="fill:#1f77b4;" transform="translate(1234.703125 167.467862)scale(0.1 -0.1)">
       <use xlink:href="#DejaVuSans-54"/>
       <use x="63.623047" xlink:href="#DejaVuSans-44"/>
       <use x="95.410156" xlink:href="#DejaVuSans-50"/>
       <use x="159.033203" xlink:href="#DejaVuSans-57"/>
       <use x="222.65625" xlink:href="#DejaVuSans-54"/>
      </g>
     </g>
    </g>
    <g id="ytick_12">
     <g id="line2d_126">
      <g>
       <use style="stroke:#000000;stroke-width:0.8;" x="1227.703125" xlink:href="#mb87585053b" y="50.589729"/>
      </g>
     </g>
     <g id="text_21">
      <!-- 7,871 -->
      <defs>
       <path d="M 31.78125 34.625 
Q 24.75 34.625 20.71875 30.859375 
Q 16.703125 27.09375 16.703125 20.515625 
Q 16.703125 13.921875 20.71875 10.15625 
Q 24.75 6.390625 31.78125 6.390625 
Q 38.8125 6.390625 42.859375 10.171875 
Q 46.921875 13.96875 46.921875 20.515625 
Q 46.921875 27.09375 42.890625 30.859375 
Q 38.875 34.625 31.78125 34.625 
z
M 21.921875 38.8125 
Q 15.578125 40.375 12.03125 44.71875 
Q 8.5 49.078125 8.5 55.328125 
Q 8.5 64.0625 14.71875 69.140625 
Q 20.953125 74.21875 31.78125 74.21875 
Q 42.671875 74.21875 48.875 69.140625 
Q 55.078125 64.0625 55.078125 55.328125 
Q 55.078125 49.078125 51.53125 44.71875 
Q 48 40.375 41.703125 38.8125 
Q 48.828125 37.15625 52.796875 32.3125 
Q 56.78125 27.484375 56.78125 20.515625 
Q 56.78125 9.90625 50.3125 4.234375 
Q 43.84375 -1.421875 31.78125 -1.421875 
Q 19.734375 -1.421875 13.25 4.234375 
Q 6.78125 9.90625 6.78125 20.515625 
Q 6.78125 27.484375 10.78125 32.3125 
Q 14.796875 37.15625 21.921875 38.8125 
z
M 18.3125 54.390625 
Q 18.3125 48.734375 21.84375 45.5625 
Q 25.390625 42.390625 31.78125 42.390625 
Q 38.140625 42.390625 41.71875 45.5625 
Q 45.3125 48.734375 45.3125 54.390625 
Q 45.3125 60.0625 41.71875 63.234375 
Q 38.140625 66.40625 31.78125 66.40625 
Q 25.390625 66.40625 21.84375 63.234375 
Q 18.3125 60.0625 18.3125 54.390625 
z
" id="DejaVuSans-56"/>
      </defs>
      <g style="fill:#1f77b4;" transform="translate(1234.703125 54.388947)scale(0.1 -0.1)">
       <use xlink:href="#DejaVuSans-55"/>
       <use x="63.623047" xlink:href="#DejaVuSans-44"/>
       <use x="95.410156" xlink:href="#DejaVuSans-56"/>
       <use x="159.033203" xlink:href="#DejaVuSans-55"/>
       <use x="222.65625" xlink:href="#DejaVuSans-49"/>
      </g>
     </g>
    </g>
    <g id="text_22">
     <!-- Years Until Herd Immunity (at present infection rate) -->
     <defs>
      <path d="M -0.203125 72.90625 
L 10.40625 72.90625 
L 30.609375 42.921875 
L 50.6875 72.90625 
L 61.28125 72.90625 
L 35.5 34.71875 
L 35.5 0 
L 25.59375 0 
L 25.59375 34.71875 
z
" id="DejaVuSans-89"/>
      <path d="M 8.6875 72.90625 
L 18.609375 72.90625 
L 18.609375 28.609375 
Q 18.609375 16.890625 22.84375 11.734375 
Q 27.09375 6.59375 36.625 6.59375 
Q 46.09375 6.59375 50.34375 11.734375 
Q 54.59375 16.890625 54.59375 28.609375 
L 54.59375 72.90625 
L 64.5 72.90625 
L 64.5 27.390625 
Q 64.5 13.140625 57.4375 5.859375 
Q 50.390625 -1.421875 36.625 -1.421875 
Q 22.796875 -1.421875 15.734375 5.859375 
Q 8.6875 13.140625 8.6875 27.390625 
z
" id="DejaVuSans-85"/>
      <path d="M 9.8125 72.90625 
L 19.671875 72.90625 
L 19.671875 43.015625 
L 55.515625 43.015625 
L 55.515625 72.90625 
L 65.375 72.90625 
L 65.375 0 
L 55.515625 0 
L 55.515625 34.71875 
L 19.671875 34.71875 
L 19.671875 0 
L 9.8125 0 
z
" id="DejaVuSans-72"/>
      <path d="M 9.8125 72.90625 
L 19.671875 72.90625 
L 19.671875 0 
L 9.8125 0 
z
" id="DejaVuSans-73"/>
      <path d="M 32.171875 -5.078125 
Q 28.375 -14.84375 24.75 -17.8125 
Q 21.140625 -20.796875 15.09375 -20.796875 
L 7.90625 -20.796875 
L 7.90625 -13.28125 
L 13.1875 -13.28125 
Q 16.890625 -13.28125 18.9375 -11.515625 
Q 21 -9.765625 23.484375 -3.21875 
L 25.09375 0.875 
L 2.984375 54.6875 
L 12.5 54.6875 
L 29.59375 11.921875 
L 46.6875 54.6875 
L 56.203125 54.6875 
z
" id="DejaVuSans-121"/>
     </defs>
     <g style="fill:#1f77b4;" transform="translate(1274.929688 465.666703)rotate(-90)scale(0.1 -0.1)">
      <use xlink:href="#DejaVuSans-89"/>
      <use x="60.880859" xlink:href="#DejaVuSans-101"/>
      <use x="122.404297" xlink:href="#DejaVuSans-97"/>
      <use x="183.683594" xlink:href="#DejaVuSans-114"/>
      <use x="224.796875" xlink:href="#DejaVuSans-115"/>
      <use x="276.896484" xlink:href="#DejaVuSans-32"/>
      <use x="308.683594" xlink:href="#DejaVuSans-85"/>
      <use x="381.876953" xlink:href="#DejaVuSans-110"/>
      <use x="445.255859" xlink:href="#DejaVuSans-116"/>
      <use x="484.464844" xlink:href="#DejaVuSans-105"/>
      <use x="512.248047" xlink:href="#DejaVuSans-108"/>
      <use x="540.03125" xlink:href="#DejaVuSans-32"/>
      <use x="571.818359" xlink:href="#DejaVuSans-72"/>
      <use x="647.013672" xlink:href="#DejaVuSans-101"/>
      <use x="708.537109" xlink:href="#DejaVuSans-114"/>
      <use x="749.634766" xlink:href="#DejaVuSans-100"/>
      <use x="813.111328" xlink:href="#DejaVuSans-32"/>
      <use x="844.898438" xlink:href="#DejaVuSans-73"/>
      <use x="874.390625" xlink:href="#DejaVuSans-109"/>
      <use x="971.802734" xlink:href="#DejaVuSans-109"/>
      <use x="1069.214844" xlink:href="#DejaVuSans-117"/>
      <use x="1132.59375" xlink:href="#DejaVuSans-110"/>
      <use x="1195.972656" xlink:href="#DejaVuSans-105"/>
      <use x="1223.755859" xlink:href="#DejaVuSans-116"/>
      <use x="1262.964844" xlink:href="#DejaVuSans-121"/>
      <use x="1322.144531" xlink:href="#DejaVuSans-32"/>
      <use x="1353.931641" xlink:href="#DejaVuSans-40"/>
      <use x="1392.945312" xlink:href="#DejaVuSans-97"/>
      <use x="1454.224609" xlink:href="#DejaVuSans-116"/>
      <use x="1493.433594" xlink:href="#DejaVuSans-32"/>
      <use x="1525.220703" xlink:href="#DejaVuSans-112"/>
      <use x="1588.697266" xlink:href="#DejaVuSans-114"/>
      <use x="1629.779297" xlink:href="#DejaVuSans-101"/>
      <use x="1691.302734" xlink:href="#DejaVuSans-115"/>
      <use x="1743.402344" xlink:href="#DejaVuSans-101"/>
      <use x="1804.925781" xlink:href="#DejaVuSans-110"/>
      <use x="1868.304688" xlink:href="#DejaVuSans-116"/>
      <use x="1907.513672" xlink:href="#DejaVuSans-32"/>
      <use x="1939.300781" xlink:href="#DejaVuSans-105"/>
      <use x="1967.083984" xlink:href="#DejaVuSans-110"/>
      <use x="2030.462891" xlink:href="#DejaVuSans-102"/>
      <use x="2065.667969" xlink:href="#DejaVuSans-101"/>
      <use x="2127.191406" xlink:href="#DejaVuSans-99"/>
      <use x="2182.171875" xlink:href="#DejaVuSans-116"/>
      <use x="2221.380859" xlink:href="#DejaVuSans-105"/>
      <use x="2249.164062" xlink:href="#DejaVuSans-111"/>
      <use x="2310.345703" xlink:href="#DejaVuSans-110"/>
      <use x="2373.724609" xlink:href="#DejaVuSans-32"/>
      <use x="2405.511719" xlink:href="#DejaVuSans-114"/>
      <use x="2446.625" xlink:href="#DejaVuSans-97"/>
      <use x="2507.904297" xlink:href="#DejaVuSans-116"/>
      <use x="2547.113281" xlink:href="#DejaVuSans-101"/>
      <use x="2608.636719" xlink:href="#DejaVuSans-41"/>
     </g>
    </g>
   </g>
   <g id="patch_5">
    <path d="M 43.803125 644.254031 
L 43.803125 22.32 
" style="fill:none;stroke:#000000;stroke-linecap:square;stroke-linejoin:miter;stroke-width:0.8;"/>
   </g>
   <g id="patch_6">
    <path d="M 1227.703125 644.254031 
L 1227.703125 22.32 
" style="fill:none;stroke:#000000;stroke-linecap:square;stroke-linejoin:miter;stroke-width:0.8;"/>
   </g>
   <g id="patch_7">
    <path d="M 43.803125 644.254031 
L 1227.703125 644.254031 
" style="fill:none;stroke:#000000;stroke-linecap:square;stroke-linejoin:miter;stroke-width:0.8;"/>
   </g>
   <g id="patch_8">
    <path d="M 43.803125 22.32 
L 1227.703125 22.32 
" style="fill:none;stroke:#000000;stroke-linecap:square;stroke-linejoin:miter;stroke-width:0.8;"/>
   </g>
   <g id="line2d_127">
    <path clip-path="url(#pe7e1085bf4)" d="M 55.2973 50.589729 
L 66.791475 474.869551 
L 78.285649 545.582888 
L 89.779824 562.419565 
L 101.273999 587.285761 
L 112.768174 592.725309 
L 124.262348 606.283861 
L 135.756523 603.998731 
L 147.250698 604.131092 
L 158.744873 607.387976 
L 170.239047 609.181033 
L 181.733222 608.038763 
L 193.227397 591.703795 
L 204.721572 611.543061 
L 216.215746 607.726448 
L 227.709921 607.173801 
L 239.204096 610.181895 
L 250.698271 609.681562 
L 262.192445 611.77179 
L 273.68662 611.771987 
L 285.180795 610.248174 
L 296.67497 606.792454 
L 308.169144 608.80657 
L 319.663319 612.423167 
L 331.157494 604.266008 
L 342.651669 612.271926 
L 354.145843 608.55129 
L 365.640018 609.359217 
L 377.134193 605.424208 
L 388.628368 609.048279 
L 400.122542 612.13937 
L 411.616717 612.15471 
L 423.110892 610.963469 
L 434.605067 610.912924 
L 446.099242 607.92253 
L 457.593416 610.251124 
L 469.087591 610.861593 
L 480.581766 612.649929 
L 492.075941 612.200928 
L 503.570115 611.486616 
L 515.06429 611.701971 
L 526.558465 610.348083 
L 538.05264 611.425058 
L 549.546814 611.847115 
L 561.040989 613.762502 
L 572.535164 612.697721 
L 584.029339 613.485588 
L 595.523513 612.202698 
L 607.017688 612.246949 
L 618.511863 613.369551 
L 630.006038 613.486178 
L 641.500212 611.550338 
L 652.994387 614.352124 
L 664.488562 613.693863 
L 675.982737 609.193816 
L 687.476911 611.969642 
L 698.971086 613.124302 
L 710.465261 613.730051 
L 721.959436 614.028992 
L 733.45361 614.015422 
L 744.947785 613.852774 
L 756.44196 612.607448 
L 767.936135 611.452002 
L 779.430309 613.446057 
L 790.924484 612.886526 
L 802.418659 613.596314 
L 813.912834 612.444997 
L 825.407008 613.678129 
L 836.901183 612.53527 
L 848.395358 611.214225 
L 859.889533 611.214422 
L 871.383708 613.940883 
L 882.877882 614.044529 
L 894.372057 614.689416 
L 905.866232 614.868584 
L 917.360407 614.640248 
L 928.854581 610.266661 
L 940.348756 615.295755 
L 951.842931 615.149431 
L 963.337106 614.128705 
L 974.83128 615.582502 
L 986.325455 615.289265 
L 997.81963 615.51288 
L 1009.313805 614.86878 
L 1020.807979 614.474257 
L 1032.302154 615.572669 
L 1043.796329 615.498917 
L 1055.290504 615.61574 
L 1066.784678 615.565589 
L 1078.278853 615.38406 
L 1089.773028 615.187192 
L 1101.267203 615.826179 
L 1112.761377 615.681035 
L 1124.255552 615.850173 
L 1135.749727 615.950278 
L 1147.243902 615.935135 
L 1158.738076 615.86335 
L 1170.232251 615.785664 
L 1181.726426 615.984303 
L 1193.220601 615.672185 
L 1204.714775 615.929825 
L 1216.20895 615.978009 
" style="fill:none;stroke:#1f77b4;stroke-linecap:square;stroke-opacity:0.25;stroke-width:1.5;"/>
   </g>
  </g>
 </g>
 <defs>
  <clipPath id="pe7e1085bf4">
   <rect height="621.934031" width="1183.9" x="43.803125" y="22.32"/>
  </clipPath>
 </defs>
</svg>
