<?xml version="1.0" encoding="utf-8" standalone="no"?>
<!DOCTYPE svg PUBLIC "-//W3C//DTD SVG 1.1//EN"
  "http://www.w3.org/Graphics/SVG/1.1/DTD/svg11.dtd">
<!-- Created with matplotlib (https://matplotlib.org/) -->
<svg height="621.49625pt" version="1.1" viewBox="0 0 1041.886189 621.49625" width="1041.886189pt" xmlns="http://www.w3.org/2000/svg" xmlns:xlink="http://www.w3.org/1999/xlink">
 <metadata>
  <rdf:RDF xmlns:cc="http://creativecommons.org/ns#" xmlns:dc="http://purl.org/dc/elements/1.1/" xmlns:rdf="http://www.w3.org/1999/02/22-rdf-syntax-ns#">
   <cc:Work>
    <dc:type rdf:resource="http://purl.org/dc/dcmitype/StillImage"/>
    <dc:date>2022-01-10T20:45:40.174474</dc:date>
    <dc:format>image/svg+xml</dc:format>
    <dc:creator>
     <cc:Agent>
      <dc:title>Matplotlib v3.3.4, https://matplotlib.org/</dc:title>
     </cc:Agent>
    </dc:creator>
   </cc:Work>
  </rdf:RDF>
 </metadata>
 <defs>
  <style type="text/css">*{stroke-linecap:butt;stroke-linejoin:round;}</style>
 </defs>
 <g id="figure_1">
  <g id="patch_1">
   <path d="M 0 621.49625 
L 1041.886189 621.49625 
L 1041.886189 0 
L 0 0 
z
" style="fill:none;"/>
  </g>
  <g id="axes_1">
   <g id="patch_2">
    <path d="M 26.278125 579.465 
L 1030.678125 579.465 
L 1030.678125 29.07 
L 26.278125 29.07 
z
" style="fill:#ffffff;"/>
   </g>
   <g id="patch_3">
    <path clip-path="url(#pd3305aec1c)" d="M 181.221544 579.465 
L 181.221544 29.07 
L 184.746991 29.07 
L 184.746991 579.465 
z
" style="fill:#7fc97f;opacity:0.25;"/>
   </g>
   <g id="patch_4">
    <path clip-path="url(#pd3305aec1c)" d="M 301.08676 579.465 
L 301.08676 29.07 
L 304.612207 29.07 
L 304.612207 579.465 
z
" style="fill:#beaed4;opacity:0.25;"/>
   </g>
   <g id="patch_5">
    <path clip-path="url(#pd3305aec1c)" d="M 477.359136 579.465 
L 477.359136 29.07 
L 480.884583 29.07 
L 480.884583 579.465 
z
" style="fill:#ffff99;opacity:0.25;"/>
   </g>
   <g id="patch_6">
    <path clip-path="url(#pd3305aec1c)" d="M 646.580617 579.465 
L 646.580617 29.07 
L 650.106065 29.07 
L 650.106065 579.465 
z
" style="fill:#386cb0;opacity:0.25;"/>
   </g>
   <g id="patch_7">
    <path clip-path="url(#pd3305aec1c)" d="M 650.106065 579.465 
L 650.106065 29.07 
L 653.631512 29.07 
L 653.631512 579.465 
z
" style="fill:#386cb0;opacity:0.25;"/>
   </g>
   <g id="patch_8">
    <path clip-path="url(#pd3305aec1c)" d="M 653.631512 579.465 
L 653.631512 29.07 
L 657.15696 29.07 
L 657.15696 579.465 
z
" style="fill:#386cb0;opacity:0.25;"/>
   </g>
   <g id="patch_9">
    <path clip-path="url(#pd3305aec1c)" d="M 657.15696 579.465 
L 657.15696 29.07 
L 660.682407 29.07 
L 660.682407 579.465 
z
" style="fill:#386cb0;opacity:0.25;"/>
   </g>
   <g id="patch_10">
    <path clip-path="url(#pd3305aec1c)" d="M 660.682407 579.465 
L 660.682407 29.07 
L 664.207855 29.07 
L 664.207855 579.465 
z
" style="fill:#386cb0;opacity:0.25;"/>
   </g>
   <g id="patch_11">
    <path clip-path="url(#pd3305aec1c)" d="M 664.207855 579.465 
L 664.207855 29.07 
L 667.733302 29.07 
L 667.733302 579.465 
z
" style="fill:#386cb0;opacity:0.25;"/>
   </g>
   <g id="patch_12">
    <path clip-path="url(#pd3305aec1c)" d="M 667.733302 579.465 
L 667.733302 29.07 
L 671.25875 29.07 
L 671.25875 579.465 
z
" style="fill:#386cb0;opacity:0.25;"/>
   </g>
   <g id="patch_13">
    <path clip-path="url(#pd3305aec1c)" d="M 671.25875 579.465 
L 671.25875 29.07 
L 674.784197 29.07 
L 674.784197 579.465 
z
" style="fill:#386cb0;opacity:0.25;"/>
   </g>
   <g id="patch_14">
    <path clip-path="url(#pd3305aec1c)" d="M 798.174861 579.465 
L 798.174861 29.07 
L 801.700308 29.07 
L 801.700308 579.465 
z
" style="fill:#bf5b17;opacity:0.25;"/>
   </g>
   <g id="patch_15">
    <path clip-path="url(#pd3305aec1c)" d="M 918.040077 579.465 
L 918.040077 29.07 
L 921.565524 29.07 
L 921.565524 579.465 
z
" style="fill:#666666;opacity:0.25;"/>
   </g>
   <g id="matplotlib.axis_1">
    <g id="xtick_1">
     <g id="line2d_1">
      <defs>
       <path d="M 0 0 
L 0 3.5 
" id="m853234135b" style="stroke:#000000;stroke-width:0.8;"/>
      </defs>
      <g>
       <use style="stroke:#000000;stroke-width:0.8;" x="64.881775" xlink:href="#m853234135b" y="579.465"/>
      </g>
     </g>
     <g id="text_1">
      <!-- 2017 -->
      <g transform="translate(67.64115 614.29625)rotate(-90)scale(0.1 -0.1)">
       <defs>
        <path d="M 28.8125 13.8125 
L 60.890625 13.8125 
L 60.890625 0 
L 7.90625 0 
L 7.90625 13.8125 
L 34.515625 37.3125 
Q 38.09375 40.53125 39.796875 43.609375 
Q 41.5 46.6875 41.5 50 
Q 41.5 55.125 38.0625 58.25 
Q 34.625 61.375 28.90625 61.375 
Q 24.515625 61.375 19.28125 59.5 
Q 14.0625 57.625 8.109375 53.90625 
L 8.109375 69.921875 
Q 14.453125 72.015625 20.65625 73.109375 
Q 26.859375 74.21875 32.8125 74.21875 
Q 45.90625 74.21875 53.15625 68.453125 
Q 60.40625 62.703125 60.40625 52.390625 
Q 60.40625 46.4375 57.328125 41.28125 
Q 54.25 36.140625 44.390625 27.484375 
z
" id="DejaVuSans-Bold-50"/>
        <path d="M 46 36.53125 
Q 46 50.203125 43.4375 55.78125 
Q 40.875 61.375 34.8125 61.375 
Q 28.765625 61.375 26.171875 55.78125 
Q 23.578125 50.203125 23.578125 36.53125 
Q 23.578125 22.703125 26.171875 17.03125 
Q 28.765625 11.375 34.8125 11.375 
Q 40.828125 11.375 43.40625 17.03125 
Q 46 22.703125 46 36.53125 
z
M 64.796875 36.375 
Q 64.796875 18.265625 56.984375 8.421875 
Q 49.171875 -1.421875 34.8125 -1.421875 
Q 20.40625 -1.421875 12.59375 8.421875 
Q 4.78125 18.265625 4.78125 36.375 
Q 4.78125 54.546875 12.59375 64.375 
Q 20.40625 74.21875 34.8125 74.21875 
Q 49.171875 74.21875 56.984375 64.375 
Q 64.796875 54.546875 64.796875 36.375 
z
" id="DejaVuSans-Bold-48"/>
        <path d="M 11.71875 12.984375 
L 28.328125 12.984375 
L 28.328125 60.109375 
L 11.28125 56.59375 
L 11.28125 69.390625 
L 28.21875 72.90625 
L 46.09375 72.90625 
L 46.09375 12.984375 
L 62.703125 12.984375 
L 62.703125 0 
L 11.71875 0 
z
" id="DejaVuSans-Bold-49"/>
        <path d="M 6.6875 72.90625 
L 61.625 72.90625 
L 61.625 62.3125 
L 33.203125 0 
L 14.890625 0 
L 41.796875 59.078125 
L 6.6875 59.078125 
z
" id="DejaVuSans-Bold-55"/>
       </defs>
       <use xlink:href="#DejaVuSans-Bold-50"/>
       <use x="69.580078" xlink:href="#DejaVuSans-Bold-48"/>
       <use x="139.160156" xlink:href="#DejaVuSans-Bold-49"/>
       <use x="208.740234" xlink:href="#DejaVuSans-Bold-55"/>
      </g>
     </g>
    </g>
    <g id="xtick_2">
     <g id="line2d_2">
      <g>
       <use style="stroke:#000000;stroke-width:0.8;" x="248.708682" xlink:href="#m853234135b" y="579.465"/>
      </g>
     </g>
     <g id="text_2">
      <!-- 2018 -->
      <g transform="translate(251.468057 614.29625)rotate(-90)scale(0.1 -0.1)">
       <defs>
        <path d="M 34.8125 32.625 
Q 29.546875 32.625 26.703125 29.734375 
Q 23.875 26.859375 23.875 21.484375 
Q 23.875 16.109375 26.703125 13.25 
Q 29.546875 10.40625 34.8125 10.40625 
Q 40.046875 10.40625 42.828125 13.25 
Q 45.609375 16.109375 45.609375 21.484375 
Q 45.609375 26.90625 42.828125 29.765625 
Q 40.046875 32.625 34.8125 32.625 
z
M 21.09375 38.8125 
Q 14.453125 40.828125 11.078125 44.96875 
Q 7.71875 49.125 7.71875 55.328125 
Q 7.71875 64.546875 14.59375 69.375 
Q 21.484375 74.21875 34.8125 74.21875 
Q 48.046875 74.21875 54.921875 69.40625 
Q 61.8125 64.59375 61.8125 55.328125 
Q 61.8125 49.125 58.421875 44.96875 
Q 55.03125 40.828125 48.390625 38.8125 
Q 55.8125 36.765625 59.59375 32.15625 
Q 63.375 27.546875 63.375 20.515625 
Q 63.375 9.671875 56.171875 4.125 
Q 48.96875 -1.421875 34.8125 -1.421875 
Q 20.609375 -1.421875 13.359375 4.125 
Q 6.109375 9.671875 6.109375 20.515625 
Q 6.109375 27.546875 9.890625 32.15625 
Q 13.671875 36.765625 21.09375 38.8125 
z
M 25.484375 53.421875 
Q 25.484375 49.078125 27.90625 46.734375 
Q 30.328125 44.390625 34.8125 44.390625 
Q 39.203125 44.390625 41.59375 46.734375 
Q 44 49.078125 44 53.421875 
Q 44 57.765625 41.59375 60.078125 
Q 39.203125 62.40625 34.8125 62.40625 
Q 30.328125 62.40625 27.90625 60.0625 
Q 25.484375 57.71875 25.484375 53.421875 
z
" id="DejaVuSans-Bold-56"/>
       </defs>
       <use xlink:href="#DejaVuSans-Bold-50"/>
       <use x="69.580078" xlink:href="#DejaVuSans-Bold-48"/>
       <use x="139.160156" xlink:href="#DejaVuSans-Bold-49"/>
       <use x="208.740234" xlink:href="#DejaVuSans-Bold-56"/>
      </g>
     </g>
    </g>
    <g id="xtick_3">
     <g id="line2d_3">
      <g>
       <use style="stroke:#000000;stroke-width:0.8;" x="432.535589" xlink:href="#m853234135b" y="579.465"/>
      </g>
     </g>
     <g id="text_3">
      <!-- 2019 -->
      <g transform="translate(435.294964 614.29625)rotate(-90)scale(0.1 -0.1)">
       <defs>
        <path d="M 10.015625 1.609375 
L 10.015625 15.09375 
Q 14.5 12.984375 18.59375 11.9375 
Q 22.703125 10.890625 26.703125 10.890625 
Q 35.109375 10.890625 39.796875 15.546875 
Q 44.484375 20.21875 45.3125 29.390625 
Q 42 26.953125 38.234375 25.734375 
Q 34.46875 24.515625 30.078125 24.515625 
Q 18.890625 24.515625 12.03125 31.03125 
Q 5.171875 37.546875 5.171875 48.1875 
Q 5.171875 59.96875 12.8125 67.046875 
Q 20.453125 74.125 33.296875 74.125 
Q 47.5625 74.125 55.375 64.5 
Q 63.1875 54.890625 63.1875 37.3125 
Q 63.1875 19.234375 54.046875 8.90625 
Q 44.921875 -1.421875 29 -1.421875 
Q 23.875 -1.421875 19.1875 -0.65625 
Q 14.5 0.09375 10.015625 1.609375 
z
M 33.203125 36.71875 
Q 38.140625 36.71875 40.625 39.90625 
Q 43.109375 43.109375 43.109375 49.515625 
Q 43.109375 55.859375 40.625 59.078125 
Q 38.140625 62.3125 33.203125 62.3125 
Q 28.265625 62.3125 25.78125 59.078125 
Q 23.296875 55.859375 23.296875 49.515625 
Q 23.296875 43.109375 25.78125 39.90625 
Q 28.265625 36.71875 33.203125 36.71875 
z
" id="DejaVuSans-Bold-57"/>
       </defs>
       <use xlink:href="#DejaVuSans-Bold-50"/>
       <use x="69.580078" xlink:href="#DejaVuSans-Bold-48"/>
       <use x="139.160156" xlink:href="#DejaVuSans-Bold-49"/>
       <use x="208.740234" xlink:href="#DejaVuSans-Bold-57"/>
      </g>
     </g>
    </g>
    <g id="xtick_4">
     <g id="line2d_4">
      <g>
       <use style="stroke:#000000;stroke-width:0.8;" x="616.362495" xlink:href="#m853234135b" y="579.465"/>
      </g>
     </g>
     <g id="text_4">
      <!-- 2020 -->
      <g transform="translate(619.12187 614.29625)rotate(-90)scale(0.1 -0.1)">
       <use xlink:href="#DejaVuSans-Bold-50"/>
       <use x="69.580078" xlink:href="#DejaVuSans-Bold-48"/>
       <use x="139.160156" xlink:href="#DejaVuSans-Bold-50"/>
       <use x="208.740234" xlink:href="#DejaVuSans-Bold-48"/>
      </g>
     </g>
    </g>
    <g id="xtick_5">
     <g id="line2d_5">
      <g>
       <use style="stroke:#000000;stroke-width:0.8;" x="800.693038" xlink:href="#m853234135b" y="579.465"/>
      </g>
     </g>
     <g id="text_5">
      <!-- 2021 -->
      <g transform="translate(803.452413 614.29625)rotate(-90)scale(0.1 -0.1)">
       <use xlink:href="#DejaVuSans-Bold-50"/>
       <use x="69.580078" xlink:href="#DejaVuSans-Bold-48"/>
       <use x="139.160156" xlink:href="#DejaVuSans-Bold-50"/>
       <use x="208.740234" xlink:href="#DejaVuSans-Bold-49"/>
      </g>
     </g>
    </g>
    <g id="xtick_6">
     <g id="line2d_6">
      <g>
       <use style="stroke:#000000;stroke-width:0.8;" x="984.519944" xlink:href="#m853234135b" y="579.465"/>
      </g>
     </g>
     <g id="text_6">
      <!-- 2022 -->
      <g transform="translate(987.279319 614.29625)rotate(-90)scale(0.1 -0.1)">
       <use xlink:href="#DejaVuSans-Bold-50"/>
       <use x="69.580078" xlink:href="#DejaVuSans-Bold-48"/>
       <use x="139.160156" xlink:href="#DejaVuSans-Bold-50"/>
       <use x="208.740234" xlink:href="#DejaVuSans-Bold-50"/>
      </g>
     </g>
    </g>
    <g id="xtick_7">
     <g id="line2d_7">
      <defs>
       <path d="M 0 0 
L 0 2 
" id="m9dc99c635e" style="stroke:#000000;stroke-width:0.6;"/>
      </defs>
      <g>
       <use style="stroke:#000000;stroke-width:0.6;" x="34.160018" xlink:href="#m9dc99c635e" y="579.465"/>
      </g>
     </g>
     <g id="text_7">
      <!-- Nov -->
      <g transform="translate(36.919393 604.38375)rotate(-90)scale(0.1 -0.1)">
       <defs>
        <path d="M 9.8125 72.90625 
L 23.09375 72.90625 
L 55.421875 11.921875 
L 55.421875 72.90625 
L 64.984375 72.90625 
L 64.984375 0 
L 51.703125 0 
L 19.390625 60.984375 
L 19.390625 0 
L 9.8125 0 
z
" id="DejaVuSans-78"/>
        <path d="M 30.609375 48.390625 
Q 23.390625 48.390625 19.1875 42.75 
Q 14.984375 37.109375 14.984375 27.296875 
Q 14.984375 17.484375 19.15625 11.84375 
Q 23.34375 6.203125 30.609375 6.203125 
Q 37.796875 6.203125 41.984375 11.859375 
Q 46.1875 17.53125 46.1875 27.296875 
Q 46.1875 37.015625 41.984375 42.703125 
Q 37.796875 48.390625 30.609375 48.390625 
z
M 30.609375 56 
Q 42.328125 56 49.015625 48.375 
Q 55.71875 40.765625 55.71875 27.296875 
Q 55.71875 13.875 49.015625 6.21875 
Q 42.328125 -1.421875 30.609375 -1.421875 
Q 18.84375 -1.421875 12.171875 6.21875 
Q 5.515625 13.875 5.515625 27.296875 
Q 5.515625 40.765625 12.171875 48.375 
Q 18.84375 56 30.609375 56 
z
" id="DejaVuSans-111"/>
        <path d="M 2.984375 54.6875 
L 12.5 54.6875 
L 29.59375 8.796875 
L 46.6875 54.6875 
L 56.203125 54.6875 
L 35.6875 0 
L 23.484375 0 
z
" id="DejaVuSans-118"/>
       </defs>
       <use xlink:href="#DejaVuSans-78"/>
       <use x="74.804688" xlink:href="#DejaVuSans-111"/>
       <use x="135.986328" xlink:href="#DejaVuSans-118"/>
      </g>
     </g>
    </g>
    <g id="xtick_8">
     <g id="line2d_8">
      <g>
       <use style="stroke:#000000;stroke-width:0.6;" x="49.269079" xlink:href="#m9dc99c635e" y="579.465"/>
      </g>
     </g>
     <g id="text_8">
      <!-- Dec -->
      <g transform="translate(52.028454 604.216562)rotate(-90)scale(0.1 -0.1)">
       <defs>
        <path d="M 19.671875 64.796875 
L 19.671875 8.109375 
L 31.59375 8.109375 
Q 46.6875 8.109375 53.6875 14.9375 
Q 60.6875 21.78125 60.6875 36.53125 
Q 60.6875 51.171875 53.6875 57.984375 
Q 46.6875 64.796875 31.59375 64.796875 
z
M 9.8125 72.90625 
L 30.078125 72.90625 
Q 51.265625 72.90625 61.171875 64.09375 
Q 71.09375 55.28125 71.09375 36.53125 
Q 71.09375 17.671875 61.125 8.828125 
Q 51.171875 0 30.078125 0 
L 9.8125 0 
z
" id="DejaVuSans-68"/>
        <path d="M 56.203125 29.59375 
L 56.203125 25.203125 
L 14.890625 25.203125 
Q 15.484375 15.921875 20.484375 11.0625 
Q 25.484375 6.203125 34.421875 6.203125 
Q 39.59375 6.203125 44.453125 7.46875 
Q 49.3125 8.734375 54.109375 11.28125 
L 54.109375 2.78125 
Q 49.265625 0.734375 44.1875 -0.34375 
Q 39.109375 -1.421875 33.890625 -1.421875 
Q 20.796875 -1.421875 13.15625 6.1875 
Q 5.515625 13.8125 5.515625 26.8125 
Q 5.515625 40.234375 12.765625 48.109375 
Q 20.015625 56 32.328125 56 
Q 43.359375 56 49.78125 48.890625 
Q 56.203125 41.796875 56.203125 29.59375 
z
M 47.21875 32.234375 
Q 47.125 39.59375 43.09375 43.984375 
Q 39.0625 48.390625 32.421875 48.390625 
Q 24.90625 48.390625 20.390625 44.140625 
Q 15.875 39.890625 15.1875 32.171875 
z
" id="DejaVuSans-101"/>
        <path d="M 48.78125 52.59375 
L 48.78125 44.1875 
Q 44.96875 46.296875 41.140625 47.34375 
Q 37.3125 48.390625 33.40625 48.390625 
Q 24.65625 48.390625 19.8125 42.84375 
Q 14.984375 37.3125 14.984375 27.296875 
Q 14.984375 17.28125 19.8125 11.734375 
Q 24.65625 6.203125 33.40625 6.203125 
Q 37.3125 6.203125 41.140625 7.25 
Q 44.96875 8.296875 48.78125 10.40625 
L 48.78125 2.09375 
Q 45.015625 0.34375 40.984375 -0.53125 
Q 36.96875 -1.421875 32.421875 -1.421875 
Q 20.0625 -1.421875 12.78125 6.34375 
Q 5.515625 14.109375 5.515625 27.296875 
Q 5.515625 40.671875 12.859375 48.328125 
Q 20.21875 56 33.015625 56 
Q 37.15625 56 41.109375 55.140625 
Q 45.0625 54.296875 48.78125 52.59375 
z
" id="DejaVuSans-99"/>
       </defs>
       <use xlink:href="#DejaVuSans-68"/>
       <use x="77.001953" xlink:href="#DejaVuSans-101"/>
       <use x="138.525391" xlink:href="#DejaVuSans-99"/>
      </g>
     </g>
    </g>
    <g id="xtick_9">
     <g id="line2d_9">
      <g>
       <use style="stroke:#000000;stroke-width:0.6;" x="80.494472" xlink:href="#m9dc99c635e" y="579.465"/>
      </g>
     </g>
     <g id="text_9">
      <!-- Feb -->
      <g transform="translate(83.253847 602.568125)rotate(-90)scale(0.1 -0.1)">
       <defs>
        <path d="M 9.8125 72.90625 
L 51.703125 72.90625 
L 51.703125 64.59375 
L 19.671875 64.59375 
L 19.671875 43.109375 
L 48.578125 43.109375 
L 48.578125 34.8125 
L 19.671875 34.8125 
L 19.671875 0 
L 9.8125 0 
z
" id="DejaVuSans-70"/>
        <path d="M 48.6875 27.296875 
Q 48.6875 37.203125 44.609375 42.84375 
Q 40.53125 48.484375 33.40625 48.484375 
Q 26.265625 48.484375 22.1875 42.84375 
Q 18.109375 37.203125 18.109375 27.296875 
Q 18.109375 17.390625 22.1875 11.75 
Q 26.265625 6.109375 33.40625 6.109375 
Q 40.53125 6.109375 44.609375 11.75 
Q 48.6875 17.390625 48.6875 27.296875 
z
M 18.109375 46.390625 
Q 20.953125 51.265625 25.265625 53.625 
Q 29.59375 56 35.59375 56 
Q 45.5625 56 51.78125 48.09375 
Q 58.015625 40.1875 58.015625 27.296875 
Q 58.015625 14.40625 51.78125 6.484375 
Q 45.5625 -1.421875 35.59375 -1.421875 
Q 29.59375 -1.421875 25.265625 0.953125 
Q 20.953125 3.328125 18.109375 8.203125 
L 18.109375 0 
L 9.078125 0 
L 9.078125 75.984375 
L 18.109375 75.984375 
z
" id="DejaVuSans-98"/>
       </defs>
       <use xlink:href="#DejaVuSans-70"/>
       <use x="52.019531" xlink:href="#DejaVuSans-101"/>
       <use x="113.542969" xlink:href="#DejaVuSans-98"/>
      </g>
     </g>
    </g>
    <g id="xtick_10">
     <g id="line2d_10">
      <g>
       <use style="stroke:#000000;stroke-width:0.6;" x="94.596262" xlink:href="#m9dc99c635e" y="579.465"/>
      </g>
     </g>
     <g id="text_10">
      <!-- Mar -->
      <g transform="translate(97.355637 603.732187)rotate(-90)scale(0.1 -0.1)">
       <defs>
        <path d="M 9.8125 72.90625 
L 24.515625 72.90625 
L 43.109375 23.296875 
L 61.8125 72.90625 
L 76.515625 72.90625 
L 76.515625 0 
L 66.890625 0 
L 66.890625 64.015625 
L 48.09375 14.015625 
L 38.1875 14.015625 
L 19.390625 64.015625 
L 19.390625 0 
L 9.8125 0 
z
" id="DejaVuSans-77"/>
        <path d="M 34.28125 27.484375 
Q 23.390625 27.484375 19.1875 25 
Q 14.984375 22.515625 14.984375 16.5 
Q 14.984375 11.71875 18.140625 8.90625 
Q 21.296875 6.109375 26.703125 6.109375 
Q 34.1875 6.109375 38.703125 11.40625 
Q 43.21875 16.703125 43.21875 25.484375 
L 43.21875 27.484375 
z
M 52.203125 31.203125 
L 52.203125 0 
L 43.21875 0 
L 43.21875 8.296875 
Q 40.140625 3.328125 35.546875 0.953125 
Q 30.953125 -1.421875 24.3125 -1.421875 
Q 15.921875 -1.421875 10.953125 3.296875 
Q 6 8.015625 6 15.921875 
Q 6 25.140625 12.171875 29.828125 
Q 18.359375 34.515625 30.609375 34.515625 
L 43.21875 34.515625 
L 43.21875 35.40625 
Q 43.21875 41.609375 39.140625 45 
Q 35.0625 48.390625 27.6875 48.390625 
Q 23 48.390625 18.546875 47.265625 
Q 14.109375 46.140625 10.015625 43.890625 
L 10.015625 52.203125 
Q 14.9375 54.109375 19.578125 55.046875 
Q 24.21875 56 28.609375 56 
Q 40.484375 56 46.34375 49.84375 
Q 52.203125 43.703125 52.203125 31.203125 
z
" id="DejaVuSans-97"/>
        <path d="M 41.109375 46.296875 
Q 39.59375 47.171875 37.8125 47.578125 
Q 36.03125 48 33.890625 48 
Q 26.265625 48 22.1875 43.046875 
Q 18.109375 38.09375 18.109375 28.8125 
L 18.109375 0 
L 9.078125 0 
L 9.078125 54.6875 
L 18.109375 54.6875 
L 18.109375 46.1875 
Q 20.953125 51.171875 25.484375 53.578125 
Q 30.03125 56 36.53125 56 
Q 37.453125 56 38.578125 55.875 
Q 39.703125 55.765625 41.0625 55.515625 
z
" id="DejaVuSans-114"/>
       </defs>
       <use xlink:href="#DejaVuSans-77"/>
       <use x="86.279297" xlink:href="#DejaVuSans-97"/>
       <use x="147.558594" xlink:href="#DejaVuSans-114"/>
      </g>
     </g>
    </g>
    <g id="xtick_11">
     <g id="line2d_11">
      <g>
       <use style="stroke:#000000;stroke-width:0.6;" x="110.208958" xlink:href="#m9dc99c635e" y="579.465"/>
      </g>
     </g>
     <g id="text_11">
      <!-- Apr -->
      <g transform="translate(112.968333 602.165)rotate(-90)scale(0.1 -0.1)">
       <defs>
        <path d="M 34.1875 63.1875 
L 20.796875 26.90625 
L 47.609375 26.90625 
z
M 28.609375 72.90625 
L 39.796875 72.90625 
L 67.578125 0 
L 57.328125 0 
L 50.6875 18.703125 
L 17.828125 18.703125 
L 11.1875 0 
L 0.78125 0 
z
" id="DejaVuSans-65"/>
        <path d="M 18.109375 8.203125 
L 18.109375 -20.796875 
L 9.078125 -20.796875 
L 9.078125 54.6875 
L 18.109375 54.6875 
L 18.109375 46.390625 
Q 20.953125 51.265625 25.265625 53.625 
Q 29.59375 56 35.59375 56 
Q 45.5625 56 51.78125 48.09375 
Q 58.015625 40.1875 58.015625 27.296875 
Q 58.015625 14.40625 51.78125 6.484375 
Q 45.5625 -1.421875 35.59375 -1.421875 
Q 29.59375 -1.421875 25.265625 0.953125 
Q 20.953125 3.328125 18.109375 8.203125 
z
M 48.6875 27.296875 
Q 48.6875 37.203125 44.609375 42.84375 
Q 40.53125 48.484375 33.40625 48.484375 
Q 26.265625 48.484375 22.1875 42.84375 
Q 18.109375 37.203125 18.109375 27.296875 
Q 18.109375 17.390625 22.1875 11.75 
Q 26.265625 6.109375 33.40625 6.109375 
Q 40.53125 6.109375 44.609375 11.75 
Q 48.6875 17.390625 48.6875 27.296875 
z
" id="DejaVuSans-112"/>
       </defs>
       <use xlink:href="#DejaVuSans-65"/>
       <use x="68.408203" xlink:href="#DejaVuSans-112"/>
       <use x="131.884766" xlink:href="#DejaVuSans-114"/>
      </g>
     </g>
    </g>
    <g id="xtick_12">
     <g id="line2d_12">
      <g>
       <use style="stroke:#000000;stroke-width:0.6;" x="125.318019" xlink:href="#m9dc99c635e" y="579.465"/>
      </g>
     </g>
     <g id="text_12">
      <!-- May -->
      <g transform="translate(128.077394 605.54)rotate(-90)scale(0.1 -0.1)">
       <defs>
        <path d="M 32.171875 -5.078125 
Q 28.375 -14.84375 24.75 -17.8125 
Q 21.140625 -20.796875 15.09375 -20.796875 
L 7.90625 -20.796875 
L 7.90625 -13.28125 
L 13.1875 -13.28125 
Q 16.890625 -13.28125 18.9375 -11.515625 
Q 21 -9.765625 23.484375 -3.21875 
L 25.09375 0.875 
L 2.984375 54.6875 
L 12.5 54.6875 
L 29.59375 11.921875 
L 46.6875 54.6875 
L 56.203125 54.6875 
z
" id="DejaVuSans-121"/>
       </defs>
       <use xlink:href="#DejaVuSans-77"/>
       <use x="86.279297" xlink:href="#DejaVuSans-97"/>
       <use x="147.558594" xlink:href="#DejaVuSans-121"/>
      </g>
     </g>
    </g>
    <g id="xtick_13">
     <g id="line2d_13">
      <g>
       <use style="stroke:#000000;stroke-width:0.6;" x="140.930715" xlink:href="#m9dc99c635e" y="579.465"/>
      </g>
     </g>
     <g id="text_13">
      <!-- Jun -->
      <g transform="translate(143.69009 600.49)rotate(-90)scale(0.1 -0.1)">
       <defs>
        <path d="M 9.8125 72.90625 
L 19.671875 72.90625 
L 19.671875 5.078125 
Q 19.671875 -8.109375 14.671875 -14.0625 
Q 9.671875 -20.015625 -1.421875 -20.015625 
L -5.171875 -20.015625 
L -5.171875 -11.71875 
L -2.09375 -11.71875 
Q 4.4375 -11.71875 7.125 -8.046875 
Q 9.8125 -4.390625 9.8125 5.078125 
z
" id="DejaVuSans-74"/>
        <path d="M 8.5 21.578125 
L 8.5 54.6875 
L 17.484375 54.6875 
L 17.484375 21.921875 
Q 17.484375 14.15625 20.5 10.265625 
Q 23.53125 6.390625 29.59375 6.390625 
Q 36.859375 6.390625 41.078125 11.03125 
Q 45.3125 15.671875 45.3125 23.6875 
L 45.3125 54.6875 
L 54.296875 54.6875 
L 54.296875 0 
L 45.3125 0 
L 45.3125 8.40625 
Q 42.046875 3.421875 37.71875 1 
Q 33.40625 -1.421875 27.6875 -1.421875 
Q 18.265625 -1.421875 13.375 4.4375 
Q 8.5 10.296875 8.5 21.578125 
z
M 31.109375 56 
z
" id="DejaVuSans-117"/>
        <path d="M 54.890625 33.015625 
L 54.890625 0 
L 45.90625 0 
L 45.90625 32.71875 
Q 45.90625 40.484375 42.875 44.328125 
Q 39.84375 48.1875 33.796875 48.1875 
Q 26.515625 48.1875 22.3125 43.546875 
Q 18.109375 38.921875 18.109375 30.90625 
L 18.109375 0 
L 9.078125 0 
L 9.078125 54.6875 
L 18.109375 54.6875 
L 18.109375 46.1875 
Q 21.34375 51.125 25.703125 53.5625 
Q 30.078125 56 35.796875 56 
Q 45.21875 56 50.046875 50.171875 
Q 54.890625 44.34375 54.890625 33.015625 
z
" id="DejaVuSans-110"/>
       </defs>
       <use xlink:href="#DejaVuSans-74"/>
       <use x="29.492188" xlink:href="#DejaVuSans-117"/>
       <use x="92.871094" xlink:href="#DejaVuSans-110"/>
      </g>
     </g>
    </g>
    <g id="xtick_14">
     <g id="line2d_14">
      <g>
       <use style="stroke:#000000;stroke-width:0.6;" x="156.039776" xlink:href="#m9dc99c635e" y="579.465"/>
      </g>
     </g>
     <g id="text_14">
      <!-- Jul -->
      <g transform="translate(158.799151 596.930625)rotate(-90)scale(0.1 -0.1)">
       <defs>
        <path d="M 9.421875 75.984375 
L 18.40625 75.984375 
L 18.40625 0 
L 9.421875 0 
z
" id="DejaVuSans-108"/>
       </defs>
       <use xlink:href="#DejaVuSans-74"/>
       <use x="29.492188" xlink:href="#DejaVuSans-117"/>
       <use x="92.871094" xlink:href="#DejaVuSans-108"/>
      </g>
     </g>
    </g>
    <g id="xtick_15">
     <g id="line2d_15">
      <g>
       <use style="stroke:#000000;stroke-width:0.6;" x="171.652472" xlink:href="#m9dc99c635e" y="579.465"/>
      </g>
     </g>
     <g id="text_15">
      <!-- Aug -->
      <g transform="translate(174.411847 604.391562)rotate(-90)scale(0.1 -0.1)">
       <defs>
        <path d="M 45.40625 27.984375 
Q 45.40625 37.75 41.375 43.109375 
Q 37.359375 48.484375 30.078125 48.484375 
Q 22.859375 48.484375 18.828125 43.109375 
Q 14.796875 37.75 14.796875 27.984375 
Q 14.796875 18.265625 18.828125 12.890625 
Q 22.859375 7.515625 30.078125 7.515625 
Q 37.359375 7.515625 41.375 12.890625 
Q 45.40625 18.265625 45.40625 27.984375 
z
M 54.390625 6.78125 
Q 54.390625 -7.171875 48.1875 -13.984375 
Q 42 -20.796875 29.203125 -20.796875 
Q 24.46875 -20.796875 20.265625 -20.09375 
Q 16.0625 -19.390625 12.109375 -17.921875 
L 12.109375 -9.1875 
Q 16.0625 -11.328125 19.921875 -12.34375 
Q 23.78125 -13.375 27.78125 -13.375 
Q 36.625 -13.375 41.015625 -8.765625 
Q 45.40625 -4.15625 45.40625 5.171875 
L 45.40625 9.625 
Q 42.625 4.78125 38.28125 2.390625 
Q 33.9375 0 27.875 0 
Q 17.828125 0 11.671875 7.65625 
Q 5.515625 15.328125 5.515625 27.984375 
Q 5.515625 40.671875 11.671875 48.328125 
Q 17.828125 56 27.875 56 
Q 33.9375 56 38.28125 53.609375 
Q 42.625 51.21875 45.40625 46.390625 
L 45.40625 54.6875 
L 54.390625 54.6875 
z
" id="DejaVuSans-103"/>
       </defs>
       <use xlink:href="#DejaVuSans-65"/>
       <use x="68.408203" xlink:href="#DejaVuSans-117"/>
       <use x="131.787109" xlink:href="#DejaVuSans-103"/>
      </g>
     </g>
    </g>
    <g id="xtick_16">
     <g id="line2d_16">
      <g>
       <use style="stroke:#000000;stroke-width:0.6;" x="187.265168" xlink:href="#m9dc99c635e" y="579.465"/>
      </g>
     </g>
     <g id="text_16">
      <!-- Sep -->
      <g transform="translate(190.024543 603.715)rotate(-90)scale(0.1 -0.1)">
       <defs>
        <path d="M 53.515625 70.515625 
L 53.515625 60.890625 
Q 47.90625 63.578125 42.921875 64.890625 
Q 37.9375 66.21875 33.296875 66.21875 
Q 25.25 66.21875 20.875 63.09375 
Q 16.5 59.96875 16.5 54.203125 
Q 16.5 49.359375 19.40625 46.890625 
Q 22.3125 44.4375 30.421875 42.921875 
L 36.375 41.703125 
Q 47.40625 39.59375 52.65625 34.296875 
Q 57.90625 29 57.90625 20.125 
Q 57.90625 9.515625 50.796875 4.046875 
Q 43.703125 -1.421875 29.984375 -1.421875 
Q 24.8125 -1.421875 18.96875 -0.25 
Q 13.140625 0.921875 6.890625 3.21875 
L 6.890625 13.375 
Q 12.890625 10.015625 18.65625 8.296875 
Q 24.421875 6.59375 29.984375 6.59375 
Q 38.421875 6.59375 43.015625 9.90625 
Q 47.609375 13.234375 47.609375 19.390625 
Q 47.609375 24.75 44.3125 27.78125 
Q 41.015625 30.8125 33.5 32.328125 
L 27.484375 33.5 
Q 16.453125 35.6875 11.515625 40.375 
Q 6.59375 45.0625 6.59375 53.421875 
Q 6.59375 63.09375 13.40625 68.65625 
Q 20.21875 74.21875 32.171875 74.21875 
Q 37.3125 74.21875 42.625 73.28125 
Q 47.953125 72.359375 53.515625 70.515625 
z
" id="DejaVuSans-83"/>
       </defs>
       <use xlink:href="#DejaVuSans-83"/>
       <use x="63.476562" xlink:href="#DejaVuSans-101"/>
       <use x="125" xlink:href="#DejaVuSans-112"/>
      </g>
     </g>
    </g>
    <g id="xtick_17">
     <g id="line2d_17">
      <g>
       <use style="stroke:#000000;stroke-width:0.6;" x="202.374229" xlink:href="#m9dc99c635e" y="579.465"/>
      </g>
     </g>
     <g id="text_17">
      <!-- Oct -->
      <g transform="translate(205.133604 602.155625)rotate(-90)scale(0.1 -0.1)">
       <defs>
        <path d="M 39.40625 66.21875 
Q 28.65625 66.21875 22.328125 58.203125 
Q 16.015625 50.203125 16.015625 36.375 
Q 16.015625 22.609375 22.328125 14.59375 
Q 28.65625 6.59375 39.40625 6.59375 
Q 50.140625 6.59375 56.421875 14.59375 
Q 62.703125 22.609375 62.703125 36.375 
Q 62.703125 50.203125 56.421875 58.203125 
Q 50.140625 66.21875 39.40625 66.21875 
z
M 39.40625 74.21875 
Q 54.734375 74.21875 63.90625 63.9375 
Q 73.09375 53.65625 73.09375 36.375 
Q 73.09375 19.140625 63.90625 8.859375 
Q 54.734375 -1.421875 39.40625 -1.421875 
Q 24.03125 -1.421875 14.8125 8.828125 
Q 5.609375 19.09375 5.609375 36.375 
Q 5.609375 53.65625 14.8125 63.9375 
Q 24.03125 74.21875 39.40625 74.21875 
z
" id="DejaVuSans-79"/>
        <path d="M 18.3125 70.21875 
L 18.3125 54.6875 
L 36.8125 54.6875 
L 36.8125 47.703125 
L 18.3125 47.703125 
L 18.3125 18.015625 
Q 18.3125 11.328125 20.140625 9.421875 
Q 21.96875 7.515625 27.59375 7.515625 
L 36.8125 7.515625 
L 36.8125 0 
L 27.59375 0 
Q 17.1875 0 13.234375 3.875 
Q 9.28125 7.765625 9.28125 18.015625 
L 9.28125 47.703125 
L 2.6875 47.703125 
L 2.6875 54.6875 
L 9.28125 54.6875 
L 9.28125 70.21875 
z
" id="DejaVuSans-116"/>
       </defs>
       <use xlink:href="#DejaVuSans-79"/>
       <use x="78.710938" xlink:href="#DejaVuSans-99"/>
       <use x="133.691406" xlink:href="#DejaVuSans-116"/>
      </g>
     </g>
    </g>
    <g id="xtick_18">
     <g id="line2d_18">
      <g>
       <use style="stroke:#000000;stroke-width:0.6;" x="217.986925" xlink:href="#m9dc99c635e" y="579.465"/>
      </g>
     </g>
     <g id="text_18">
      <!-- Nov -->
      <g transform="translate(220.7463 604.38375)rotate(-90)scale(0.1 -0.1)">
       <use xlink:href="#DejaVuSans-78"/>
       <use x="74.804688" xlink:href="#DejaVuSans-111"/>
       <use x="135.986328" xlink:href="#DejaVuSans-118"/>
      </g>
     </g>
    </g>
    <g id="xtick_19">
     <g id="line2d_19">
      <g>
       <use style="stroke:#000000;stroke-width:0.6;" x="233.095986" xlink:href="#m9dc99c635e" y="579.465"/>
      </g>
     </g>
     <g id="text_19">
      <!-- Dec -->
      <g transform="translate(235.855361 604.216562)rotate(-90)scale(0.1 -0.1)">
       <use xlink:href="#DejaVuSans-68"/>
       <use x="77.001953" xlink:href="#DejaVuSans-101"/>
       <use x="138.525391" xlink:href="#DejaVuSans-99"/>
      </g>
     </g>
    </g>
    <g id="xtick_20">
     <g id="line2d_20">
      <g>
       <use style="stroke:#000000;stroke-width:0.6;" x="264.321378" xlink:href="#m9dc99c635e" y="579.465"/>
      </g>
     </g>
     <g id="text_20">
      <!-- Feb -->
      <g transform="translate(267.080753 602.568125)rotate(-90)scale(0.1 -0.1)">
       <use xlink:href="#DejaVuSans-70"/>
       <use x="52.019531" xlink:href="#DejaVuSans-101"/>
       <use x="113.542969" xlink:href="#DejaVuSans-98"/>
      </g>
     </g>
    </g>
    <g id="xtick_21">
     <g id="line2d_21">
      <g>
       <use style="stroke:#000000;stroke-width:0.6;" x="278.423168" xlink:href="#m9dc99c635e" y="579.465"/>
      </g>
     </g>
     <g id="text_21">
      <!-- Mar -->
      <g transform="translate(281.182543 603.732187)rotate(-90)scale(0.1 -0.1)">
       <use xlink:href="#DejaVuSans-77"/>
       <use x="86.279297" xlink:href="#DejaVuSans-97"/>
       <use x="147.558594" xlink:href="#DejaVuSans-114"/>
      </g>
     </g>
    </g>
    <g id="xtick_22">
     <g id="line2d_22">
      <g>
       <use style="stroke:#000000;stroke-width:0.6;" x="294.035865" xlink:href="#m9dc99c635e" y="579.465"/>
      </g>
     </g>
     <g id="text_22">
      <!-- Apr -->
      <g transform="translate(296.79524 602.165)rotate(-90)scale(0.1 -0.1)">
       <use xlink:href="#DejaVuSans-65"/>
       <use x="68.408203" xlink:href="#DejaVuSans-112"/>
       <use x="131.884766" xlink:href="#DejaVuSans-114"/>
      </g>
     </g>
    </g>
    <g id="xtick_23">
     <g id="line2d_23">
      <g>
       <use style="stroke:#000000;stroke-width:0.6;" x="309.144925" xlink:href="#m9dc99c635e" y="579.465"/>
      </g>
     </g>
     <g id="text_23">
      <!-- May -->
      <g transform="translate(311.9043 605.54)rotate(-90)scale(0.1 -0.1)">
       <use xlink:href="#DejaVuSans-77"/>
       <use x="86.279297" xlink:href="#DejaVuSans-97"/>
       <use x="147.558594" xlink:href="#DejaVuSans-121"/>
      </g>
     </g>
    </g>
    <g id="xtick_24">
     <g id="line2d_24">
      <g>
       <use style="stroke:#000000;stroke-width:0.6;" x="324.757622" xlink:href="#m9dc99c635e" y="579.465"/>
      </g>
     </g>
     <g id="text_24">
      <!-- Jun -->
      <g transform="translate(327.516997 600.49)rotate(-90)scale(0.1 -0.1)">
       <use xlink:href="#DejaVuSans-74"/>
       <use x="29.492188" xlink:href="#DejaVuSans-117"/>
       <use x="92.871094" xlink:href="#DejaVuSans-110"/>
      </g>
     </g>
    </g>
    <g id="xtick_25">
     <g id="line2d_25">
      <g>
       <use style="stroke:#000000;stroke-width:0.6;" x="339.866682" xlink:href="#m9dc99c635e" y="579.465"/>
      </g>
     </g>
     <g id="text_25">
      <!-- Jul -->
      <g transform="translate(342.626057 596.930625)rotate(-90)scale(0.1 -0.1)">
       <use xlink:href="#DejaVuSans-74"/>
       <use x="29.492188" xlink:href="#DejaVuSans-117"/>
       <use x="92.871094" xlink:href="#DejaVuSans-108"/>
      </g>
     </g>
    </g>
    <g id="xtick_26">
     <g id="line2d_26">
      <g>
       <use style="stroke:#000000;stroke-width:0.6;" x="355.479379" xlink:href="#m9dc99c635e" y="579.465"/>
      </g>
     </g>
     <g id="text_26">
      <!-- Aug -->
      <g transform="translate(358.238754 604.391562)rotate(-90)scale(0.1 -0.1)">
       <use xlink:href="#DejaVuSans-65"/>
       <use x="68.408203" xlink:href="#DejaVuSans-117"/>
       <use x="131.787109" xlink:href="#DejaVuSans-103"/>
      </g>
     </g>
    </g>
    <g id="xtick_27">
     <g id="line2d_27">
      <g>
       <use style="stroke:#000000;stroke-width:0.6;" x="371.092075" xlink:href="#m9dc99c635e" y="579.465"/>
      </g>
     </g>
     <g id="text_27">
      <!-- Sep -->
      <g transform="translate(373.85145 603.715)rotate(-90)scale(0.1 -0.1)">
       <use xlink:href="#DejaVuSans-83"/>
       <use x="63.476562" xlink:href="#DejaVuSans-101"/>
       <use x="125" xlink:href="#DejaVuSans-112"/>
      </g>
     </g>
    </g>
    <g id="xtick_28">
     <g id="line2d_28">
      <g>
       <use style="stroke:#000000;stroke-width:0.6;" x="386.201136" xlink:href="#m9dc99c635e" y="579.465"/>
      </g>
     </g>
     <g id="text_28">
      <!-- Oct -->
      <g transform="translate(388.960511 602.155625)rotate(-90)scale(0.1 -0.1)">
       <use xlink:href="#DejaVuSans-79"/>
       <use x="78.710938" xlink:href="#DejaVuSans-99"/>
       <use x="133.691406" xlink:href="#DejaVuSans-116"/>
      </g>
     </g>
    </g>
    <g id="xtick_29">
     <g id="line2d_29">
      <g>
       <use style="stroke:#000000;stroke-width:0.6;" x="401.813832" xlink:href="#m9dc99c635e" y="579.465"/>
      </g>
     </g>
     <g id="text_29">
      <!-- Nov -->
      <g transform="translate(404.573207 604.38375)rotate(-90)scale(0.1 -0.1)">
       <use xlink:href="#DejaVuSans-78"/>
       <use x="74.804688" xlink:href="#DejaVuSans-111"/>
       <use x="135.986328" xlink:href="#DejaVuSans-118"/>
      </g>
     </g>
    </g>
    <g id="xtick_30">
     <g id="line2d_30">
      <g>
       <use style="stroke:#000000;stroke-width:0.6;" x="416.922893" xlink:href="#m9dc99c635e" y="579.465"/>
      </g>
     </g>
     <g id="text_30">
      <!-- Dec -->
      <g transform="translate(419.682268 604.216562)rotate(-90)scale(0.1 -0.1)">
       <use xlink:href="#DejaVuSans-68"/>
       <use x="77.001953" xlink:href="#DejaVuSans-101"/>
       <use x="138.525391" xlink:href="#DejaVuSans-99"/>
      </g>
     </g>
    </g>
    <g id="xtick_31">
     <g id="line2d_31">
      <g>
       <use style="stroke:#000000;stroke-width:0.6;" x="448.148285" xlink:href="#m9dc99c635e" y="579.465"/>
      </g>
     </g>
     <g id="text_31">
      <!-- Feb -->
      <g transform="translate(450.90766 602.568125)rotate(-90)scale(0.1 -0.1)">
       <use xlink:href="#DejaVuSans-70"/>
       <use x="52.019531" xlink:href="#DejaVuSans-101"/>
       <use x="113.542969" xlink:href="#DejaVuSans-98"/>
      </g>
     </g>
    </g>
    <g id="xtick_32">
     <g id="line2d_32">
      <g>
       <use style="stroke:#000000;stroke-width:0.6;" x="462.250075" xlink:href="#m9dc99c635e" y="579.465"/>
      </g>
     </g>
     <g id="text_32">
      <!-- Mar -->
      <g transform="translate(465.00945 603.732187)rotate(-90)scale(0.1 -0.1)">
       <use xlink:href="#DejaVuSans-77"/>
       <use x="86.279297" xlink:href="#DejaVuSans-97"/>
       <use x="147.558594" xlink:href="#DejaVuSans-114"/>
      </g>
     </g>
    </g>
    <g id="xtick_33">
     <g id="line2d_33">
      <g>
       <use style="stroke:#000000;stroke-width:0.6;" x="477.862771" xlink:href="#m9dc99c635e" y="579.465"/>
      </g>
     </g>
     <g id="text_33">
      <!-- Apr -->
      <g transform="translate(480.622146 602.165)rotate(-90)scale(0.1 -0.1)">
       <use xlink:href="#DejaVuSans-65"/>
       <use x="68.408203" xlink:href="#DejaVuSans-112"/>
       <use x="131.884766" xlink:href="#DejaVuSans-114"/>
      </g>
     </g>
    </g>
    <g id="xtick_34">
     <g id="line2d_34">
      <g>
       <use style="stroke:#000000;stroke-width:0.6;" x="492.971832" xlink:href="#m9dc99c635e" y="579.465"/>
      </g>
     </g>
     <g id="text_34">
      <!-- May -->
      <g transform="translate(495.731207 605.54)rotate(-90)scale(0.1 -0.1)">
       <use xlink:href="#DejaVuSans-77"/>
       <use x="86.279297" xlink:href="#DejaVuSans-97"/>
       <use x="147.558594" xlink:href="#DejaVuSans-121"/>
      </g>
     </g>
    </g>
    <g id="xtick_35">
     <g id="line2d_35">
      <g>
       <use style="stroke:#000000;stroke-width:0.6;" x="508.584528" xlink:href="#m9dc99c635e" y="579.465"/>
      </g>
     </g>
     <g id="text_35">
      <!-- Jun -->
      <g transform="translate(511.343903 600.49)rotate(-90)scale(0.1 -0.1)">
       <use xlink:href="#DejaVuSans-74"/>
       <use x="29.492188" xlink:href="#DejaVuSans-117"/>
       <use x="92.871094" xlink:href="#DejaVuSans-110"/>
      </g>
     </g>
    </g>
    <g id="xtick_36">
     <g id="line2d_36">
      <g>
       <use style="stroke:#000000;stroke-width:0.6;" x="523.693589" xlink:href="#m9dc99c635e" y="579.465"/>
      </g>
     </g>
     <g id="text_36">
      <!-- Jul -->
      <g transform="translate(526.452964 596.930625)rotate(-90)scale(0.1 -0.1)">
       <use xlink:href="#DejaVuSans-74"/>
       <use x="29.492188" xlink:href="#DejaVuSans-117"/>
       <use x="92.871094" xlink:href="#DejaVuSans-108"/>
      </g>
     </g>
    </g>
    <g id="xtick_37">
     <g id="line2d_37">
      <g>
       <use style="stroke:#000000;stroke-width:0.6;" x="539.306285" xlink:href="#m9dc99c635e" y="579.465"/>
      </g>
     </g>
     <g id="text_37">
      <!-- Aug -->
      <g transform="translate(542.06566 604.391562)rotate(-90)scale(0.1 -0.1)">
       <use xlink:href="#DejaVuSans-65"/>
       <use x="68.408203" xlink:href="#DejaVuSans-117"/>
       <use x="131.787109" xlink:href="#DejaVuSans-103"/>
      </g>
     </g>
    </g>
    <g id="xtick_38">
     <g id="line2d_38">
      <g>
       <use style="stroke:#000000;stroke-width:0.6;" x="554.918981" xlink:href="#m9dc99c635e" y="579.465"/>
      </g>
     </g>
     <g id="text_38">
      <!-- Sep -->
      <g transform="translate(557.678356 603.715)rotate(-90)scale(0.1 -0.1)">
       <use xlink:href="#DejaVuSans-83"/>
       <use x="63.476562" xlink:href="#DejaVuSans-101"/>
       <use x="125" xlink:href="#DejaVuSans-112"/>
      </g>
     </g>
    </g>
    <g id="xtick_39">
     <g id="line2d_39">
      <g>
       <use style="stroke:#000000;stroke-width:0.6;" x="570.028042" xlink:href="#m9dc99c635e" y="579.465"/>
      </g>
     </g>
     <g id="text_39">
      <!-- Oct -->
      <g transform="translate(572.787417 602.155625)rotate(-90)scale(0.1 -0.1)">
       <use xlink:href="#DejaVuSans-79"/>
       <use x="78.710938" xlink:href="#DejaVuSans-99"/>
       <use x="133.691406" xlink:href="#DejaVuSans-116"/>
      </g>
     </g>
    </g>
    <g id="xtick_40">
     <g id="line2d_40">
      <g>
       <use style="stroke:#000000;stroke-width:0.6;" x="585.640738" xlink:href="#m9dc99c635e" y="579.465"/>
      </g>
     </g>
     <g id="text_40">
      <!-- Nov -->
      <g transform="translate(588.400113 604.38375)rotate(-90)scale(0.1 -0.1)">
       <use xlink:href="#DejaVuSans-78"/>
       <use x="74.804688" xlink:href="#DejaVuSans-111"/>
       <use x="135.986328" xlink:href="#DejaVuSans-118"/>
      </g>
     </g>
    </g>
    <g id="xtick_41">
     <g id="line2d_41">
      <g>
       <use style="stroke:#000000;stroke-width:0.6;" x="600.749799" xlink:href="#m9dc99c635e" y="579.465"/>
      </g>
     </g>
     <g id="text_41">
      <!-- Dec -->
      <g transform="translate(603.509174 604.216562)rotate(-90)scale(0.1 -0.1)">
       <use xlink:href="#DejaVuSans-68"/>
       <use x="77.001953" xlink:href="#DejaVuSans-101"/>
       <use x="138.525391" xlink:href="#DejaVuSans-99"/>
      </g>
     </g>
    </g>
    <g id="xtick_42">
     <g id="line2d_42">
      <g>
       <use style="stroke:#000000;stroke-width:0.6;" x="631.975192" xlink:href="#m9dc99c635e" y="579.465"/>
      </g>
     </g>
     <g id="text_42">
      <!-- Feb -->
      <g transform="translate(634.734567 602.568125)rotate(-90)scale(0.1 -0.1)">
       <use xlink:href="#DejaVuSans-70"/>
       <use x="52.019531" xlink:href="#DejaVuSans-101"/>
       <use x="113.542969" xlink:href="#DejaVuSans-98"/>
      </g>
     </g>
    </g>
    <g id="xtick_43">
     <g id="line2d_43">
      <g>
       <use style="stroke:#000000;stroke-width:0.6;" x="646.580617" xlink:href="#m9dc99c635e" y="579.465"/>
      </g>
     </g>
     <g id="text_43">
      <!-- Mar -->
      <g transform="translate(649.339992 603.732187)rotate(-90)scale(0.1 -0.1)">
       <use xlink:href="#DejaVuSans-77"/>
       <use x="86.279297" xlink:href="#DejaVuSans-97"/>
       <use x="147.558594" xlink:href="#DejaVuSans-114"/>
      </g>
     </g>
    </g>
    <g id="xtick_44">
     <g id="line2d_44">
      <g>
       <use style="stroke:#000000;stroke-width:0.6;" x="662.193313" xlink:href="#m9dc99c635e" y="579.465"/>
      </g>
     </g>
     <g id="text_44">
      <!-- Apr -->
      <g transform="translate(664.952688 602.165)rotate(-90)scale(0.1 -0.1)">
       <use xlink:href="#DejaVuSans-65"/>
       <use x="68.408203" xlink:href="#DejaVuSans-112"/>
       <use x="131.884766" xlink:href="#DejaVuSans-114"/>
      </g>
     </g>
    </g>
    <g id="xtick_45">
     <g id="line2d_45">
      <g>
       <use style="stroke:#000000;stroke-width:0.6;" x="677.302374" xlink:href="#m9dc99c635e" y="579.465"/>
      </g>
     </g>
     <g id="text_45">
      <!-- May -->
      <g transform="translate(680.061749 605.54)rotate(-90)scale(0.1 -0.1)">
       <use xlink:href="#DejaVuSans-77"/>
       <use x="86.279297" xlink:href="#DejaVuSans-97"/>
       <use x="147.558594" xlink:href="#DejaVuSans-121"/>
      </g>
     </g>
    </g>
    <g id="xtick_46">
     <g id="line2d_46">
      <g>
       <use style="stroke:#000000;stroke-width:0.6;" x="692.91507" xlink:href="#m9dc99c635e" y="579.465"/>
      </g>
     </g>
     <g id="text_46">
      <!-- Jun -->
      <g transform="translate(695.674445 600.49)rotate(-90)scale(0.1 -0.1)">
       <use xlink:href="#DejaVuSans-74"/>
       <use x="29.492188" xlink:href="#DejaVuSans-117"/>
       <use x="92.871094" xlink:href="#DejaVuSans-110"/>
      </g>
     </g>
    </g>
    <g id="xtick_47">
     <g id="line2d_47">
      <g>
       <use style="stroke:#000000;stroke-width:0.6;" x="708.024131" xlink:href="#m9dc99c635e" y="579.465"/>
      </g>
     </g>
     <g id="text_47">
      <!-- Jul -->
      <g transform="translate(710.783506 596.930625)rotate(-90)scale(0.1 -0.1)">
       <use xlink:href="#DejaVuSans-74"/>
       <use x="29.492188" xlink:href="#DejaVuSans-117"/>
       <use x="92.871094" xlink:href="#DejaVuSans-108"/>
      </g>
     </g>
    </g>
    <g id="xtick_48">
     <g id="line2d_48">
      <g>
       <use style="stroke:#000000;stroke-width:0.6;" x="723.636827" xlink:href="#m9dc99c635e" y="579.465"/>
      </g>
     </g>
     <g id="text_48">
      <!-- Aug -->
      <g transform="translate(726.396202 604.391562)rotate(-90)scale(0.1 -0.1)">
       <use xlink:href="#DejaVuSans-65"/>
       <use x="68.408203" xlink:href="#DejaVuSans-117"/>
       <use x="131.787109" xlink:href="#DejaVuSans-103"/>
      </g>
     </g>
    </g>
    <g id="xtick_49">
     <g id="line2d_49">
      <g>
       <use style="stroke:#000000;stroke-width:0.6;" x="739.249523" xlink:href="#m9dc99c635e" y="579.465"/>
      </g>
     </g>
     <g id="text_49">
      <!-- Sep -->
      <g transform="translate(742.008898 603.715)rotate(-90)scale(0.1 -0.1)">
       <use xlink:href="#DejaVuSans-83"/>
       <use x="63.476562" xlink:href="#DejaVuSans-101"/>
       <use x="125" xlink:href="#DejaVuSans-112"/>
      </g>
     </g>
    </g>
    <g id="xtick_50">
     <g id="line2d_50">
      <g>
       <use style="stroke:#000000;stroke-width:0.6;" x="754.358584" xlink:href="#m9dc99c635e" y="579.465"/>
      </g>
     </g>
     <g id="text_50">
      <!-- Oct -->
      <g transform="translate(757.117959 602.155625)rotate(-90)scale(0.1 -0.1)">
       <use xlink:href="#DejaVuSans-79"/>
       <use x="78.710938" xlink:href="#DejaVuSans-99"/>
       <use x="133.691406" xlink:href="#DejaVuSans-116"/>
      </g>
     </g>
    </g>
    <g id="xtick_51">
     <g id="line2d_51">
      <g>
       <use style="stroke:#000000;stroke-width:0.6;" x="769.97128" xlink:href="#m9dc99c635e" y="579.465"/>
      </g>
     </g>
     <g id="text_51">
      <!-- Nov -->
      <g transform="translate(772.730655 604.38375)rotate(-90)scale(0.1 -0.1)">
       <use xlink:href="#DejaVuSans-78"/>
       <use x="74.804688" xlink:href="#DejaVuSans-111"/>
       <use x="135.986328" xlink:href="#DejaVuSans-118"/>
      </g>
     </g>
    </g>
    <g id="xtick_52">
     <g id="line2d_52">
      <g>
       <use style="stroke:#000000;stroke-width:0.6;" x="785.080341" xlink:href="#m9dc99c635e" y="579.465"/>
      </g>
     </g>
     <g id="text_52">
      <!-- Dec -->
      <g transform="translate(787.839716 604.216562)rotate(-90)scale(0.1 -0.1)">
       <use xlink:href="#DejaVuSans-68"/>
       <use x="77.001953" xlink:href="#DejaVuSans-101"/>
       <use x="138.525391" xlink:href="#DejaVuSans-99"/>
      </g>
     </g>
    </g>
    <g id="xtick_53">
     <g id="line2d_53">
      <g>
       <use style="stroke:#000000;stroke-width:0.6;" x="816.305734" xlink:href="#m9dc99c635e" y="579.465"/>
      </g>
     </g>
     <g id="text_53">
      <!-- Feb -->
      <g transform="translate(819.065109 602.568125)rotate(-90)scale(0.1 -0.1)">
       <use xlink:href="#DejaVuSans-70"/>
       <use x="52.019531" xlink:href="#DejaVuSans-101"/>
       <use x="113.542969" xlink:href="#DejaVuSans-98"/>
      </g>
     </g>
    </g>
    <g id="xtick_54">
     <g id="line2d_54">
      <g>
       <use style="stroke:#000000;stroke-width:0.6;" x="830.407524" xlink:href="#m9dc99c635e" y="579.465"/>
      </g>
     </g>
     <g id="text_54">
      <!-- Mar -->
      <g transform="translate(833.166899 603.732187)rotate(-90)scale(0.1 -0.1)">
       <use xlink:href="#DejaVuSans-77"/>
       <use x="86.279297" xlink:href="#DejaVuSans-97"/>
       <use x="147.558594" xlink:href="#DejaVuSans-114"/>
      </g>
     </g>
    </g>
    <g id="xtick_55">
     <g id="line2d_55">
      <g>
       <use style="stroke:#000000;stroke-width:0.6;" x="846.02022" xlink:href="#m9dc99c635e" y="579.465"/>
      </g>
     </g>
     <g id="text_55">
      <!-- Apr -->
      <g transform="translate(848.779595 602.165)rotate(-90)scale(0.1 -0.1)">
       <use xlink:href="#DejaVuSans-65"/>
       <use x="68.408203" xlink:href="#DejaVuSans-112"/>
       <use x="131.884766" xlink:href="#DejaVuSans-114"/>
      </g>
     </g>
    </g>
    <g id="xtick_56">
     <g id="line2d_56">
      <g>
       <use style="stroke:#000000;stroke-width:0.6;" x="861.129281" xlink:href="#m9dc99c635e" y="579.465"/>
      </g>
     </g>
     <g id="text_56">
      <!-- May -->
      <g transform="translate(863.888656 605.54)rotate(-90)scale(0.1 -0.1)">
       <use xlink:href="#DejaVuSans-77"/>
       <use x="86.279297" xlink:href="#DejaVuSans-97"/>
       <use x="147.558594" xlink:href="#DejaVuSans-121"/>
      </g>
     </g>
    </g>
    <g id="xtick_57">
     <g id="line2d_57">
      <g>
       <use style="stroke:#000000;stroke-width:0.6;" x="876.741977" xlink:href="#m9dc99c635e" y="579.465"/>
      </g>
     </g>
     <g id="text_57">
      <!-- Jun -->
      <g transform="translate(879.501352 600.49)rotate(-90)scale(0.1 -0.1)">
       <use xlink:href="#DejaVuSans-74"/>
       <use x="29.492188" xlink:href="#DejaVuSans-117"/>
       <use x="92.871094" xlink:href="#DejaVuSans-110"/>
      </g>
     </g>
    </g>
    <g id="xtick_58">
     <g id="line2d_58">
      <g>
       <use style="stroke:#000000;stroke-width:0.6;" x="891.851038" xlink:href="#m9dc99c635e" y="579.465"/>
      </g>
     </g>
     <g id="text_58">
      <!-- Jul -->
      <g transform="translate(894.610413 596.930625)rotate(-90)scale(0.1 -0.1)">
       <use xlink:href="#DejaVuSans-74"/>
       <use x="29.492188" xlink:href="#DejaVuSans-117"/>
       <use x="92.871094" xlink:href="#DejaVuSans-108"/>
      </g>
     </g>
    </g>
    <g id="xtick_59">
     <g id="line2d_59">
      <g>
       <use style="stroke:#000000;stroke-width:0.6;" x="907.463734" xlink:href="#m9dc99c635e" y="579.465"/>
      </g>
     </g>
     <g id="text_59">
      <!-- Aug -->
      <g transform="translate(910.223109 604.391562)rotate(-90)scale(0.1 -0.1)">
       <use xlink:href="#DejaVuSans-65"/>
       <use x="68.408203" xlink:href="#DejaVuSans-117"/>
       <use x="131.787109" xlink:href="#DejaVuSans-103"/>
      </g>
     </g>
    </g>
    <g id="xtick_60">
     <g id="line2d_60">
      <g>
       <use style="stroke:#000000;stroke-width:0.6;" x="923.07643" xlink:href="#m9dc99c635e" y="579.465"/>
      </g>
     </g>
     <g id="text_60">
      <!-- Sep -->
      <g transform="translate(925.835805 603.715)rotate(-90)scale(0.1 -0.1)">
       <use xlink:href="#DejaVuSans-83"/>
       <use x="63.476562" xlink:href="#DejaVuSans-101"/>
       <use x="125" xlink:href="#DejaVuSans-112"/>
      </g>
     </g>
    </g>
    <g id="xtick_61">
     <g id="line2d_61">
      <g>
       <use style="stroke:#000000;stroke-width:0.6;" x="938.185491" xlink:href="#m9dc99c635e" y="579.465"/>
      </g>
     </g>
     <g id="text_61">
      <!-- Oct -->
      <g transform="translate(940.944866 602.155625)rotate(-90)scale(0.1 -0.1)">
       <use xlink:href="#DejaVuSans-79"/>
       <use x="78.710938" xlink:href="#DejaVuSans-99"/>
       <use x="133.691406" xlink:href="#DejaVuSans-116"/>
      </g>
     </g>
    </g>
    <g id="xtick_62">
     <g id="line2d_62">
      <g>
       <use style="stroke:#000000;stroke-width:0.6;" x="953.798187" xlink:href="#m9dc99c635e" y="579.465"/>
      </g>
     </g>
     <g id="text_62">
      <!-- Nov -->
      <g transform="translate(956.557562 604.38375)rotate(-90)scale(0.1 -0.1)">
       <use xlink:href="#DejaVuSans-78"/>
       <use x="74.804688" xlink:href="#DejaVuSans-111"/>
       <use x="135.986328" xlink:href="#DejaVuSans-118"/>
      </g>
     </g>
    </g>
    <g id="xtick_63">
     <g id="line2d_63">
      <g>
       <use style="stroke:#000000;stroke-width:0.6;" x="968.907248" xlink:href="#m9dc99c635e" y="579.465"/>
      </g>
     </g>
     <g id="text_63">
      <!-- Dec -->
      <g transform="translate(971.666623 604.216562)rotate(-90)scale(0.1 -0.1)">
       <use xlink:href="#DejaVuSans-68"/>
       <use x="77.001953" xlink:href="#DejaVuSans-101"/>
       <use x="138.525391" xlink:href="#DejaVuSans-99"/>
      </g>
     </g>
    </g>
    <g id="xtick_64">
     <g id="line2d_64">
      <g>
       <use style="stroke:#000000;stroke-width:0.6;" x="1000.13264" xlink:href="#m9dc99c635e" y="579.465"/>
      </g>
     </g>
     <g id="text_64">
      <!-- Feb -->
      <g transform="translate(1002.892015 602.568125)rotate(-90)scale(0.1 -0.1)">
       <use xlink:href="#DejaVuSans-70"/>
       <use x="52.019531" xlink:href="#DejaVuSans-101"/>
       <use x="113.542969" xlink:href="#DejaVuSans-98"/>
      </g>
     </g>
    </g>
    <g id="xtick_65">
     <g id="line2d_65">
      <g>
       <use style="stroke:#000000;stroke-width:0.6;" x="1014.23443" xlink:href="#m9dc99c635e" y="579.465"/>
      </g>
     </g>
     <g id="text_65">
      <!-- Mar -->
      <g transform="translate(1016.993805 603.732187)rotate(-90)scale(0.1 -0.1)">
       <use xlink:href="#DejaVuSans-77"/>
       <use x="86.279297" xlink:href="#DejaVuSans-97"/>
       <use x="147.558594" xlink:href="#DejaVuSans-114"/>
      </g>
     </g>
    </g>
    <g id="xtick_66">
     <g id="line2d_66">
      <g>
       <use style="stroke:#000000;stroke-width:0.6;" x="1029.847127" xlink:href="#m9dc99c635e" y="579.465"/>
      </g>
     </g>
     <g id="text_66">
      <!-- Apr -->
      <g transform="translate(1032.606502 602.165)rotate(-90)scale(0.1 -0.1)">
       <use xlink:href="#DejaVuSans-65"/>
       <use x="68.408203" xlink:href="#DejaVuSans-112"/>
       <use x="131.884766" xlink:href="#DejaVuSans-114"/>
      </g>
     </g>
    </g>
   </g>
   <g id="matplotlib.axis_2">
    <g id="ytick_1"/>
    <g id="ytick_2"/>
    <g id="ytick_3"/>
    <g id="ytick_4"/>
    <g id="ytick_5"/>
    <g id="ytick_6"/>
    <g id="ytick_7"/>
    <g id="ytick_8"/>
    <g id="ytick_9"/>
    <g id="ytick_10"/>
    <g id="ytick_11"/>
    <g id="ytick_12"/>
    <g id="ytick_13"/>
    <g id="text_67">
     <!-- Log (Relative Strength) -->
     <g transform="translate(14.798438 362.069062)rotate(-90)scale(0.1 -0.1)">
      <defs>
       <path d="M 9.8125 72.90625 
L 19.671875 72.90625 
L 19.671875 8.296875 
L 55.171875 8.296875 
L 55.171875 0 
L 9.8125 0 
z
" id="DejaVuSans-76"/>
       <path id="DejaVuSans-32"/>
       <path d="M 31 75.875 
Q 24.46875 64.65625 21.28125 53.65625 
Q 18.109375 42.671875 18.109375 31.390625 
Q 18.109375 20.125 21.3125 9.0625 
Q 24.515625 -2 31 -13.1875 
L 23.1875 -13.1875 
Q 15.875 -1.703125 12.234375 9.375 
Q 8.59375 20.453125 8.59375 31.390625 
Q 8.59375 42.28125 12.203125 53.3125 
Q 15.828125 64.359375 23.1875 75.875 
z
" id="DejaVuSans-40"/>
       <path d="M 44.390625 34.1875 
Q 47.5625 33.109375 50.5625 29.59375 
Q 53.5625 26.078125 56.59375 19.921875 
L 66.609375 0 
L 56 0 
L 46.6875 18.703125 
Q 43.0625 26.03125 39.671875 28.421875 
Q 36.28125 30.8125 30.421875 30.8125 
L 19.671875 30.8125 
L 19.671875 0 
L 9.8125 0 
L 9.8125 72.90625 
L 32.078125 72.90625 
Q 44.578125 72.90625 50.734375 67.671875 
Q 56.890625 62.453125 56.890625 51.90625 
Q 56.890625 45.015625 53.6875 40.46875 
Q 50.484375 35.9375 44.390625 34.1875 
z
M 19.671875 64.796875 
L 19.671875 38.921875 
L 32.078125 38.921875 
Q 39.203125 38.921875 42.84375 42.21875 
Q 46.484375 45.515625 46.484375 51.90625 
Q 46.484375 58.296875 42.84375 61.546875 
Q 39.203125 64.796875 32.078125 64.796875 
z
" id="DejaVuSans-82"/>
       <path d="M 9.421875 54.6875 
L 18.40625 54.6875 
L 18.40625 0 
L 9.421875 0 
z
M 9.421875 75.984375 
L 18.40625 75.984375 
L 18.40625 64.59375 
L 9.421875 64.59375 
z
" id="DejaVuSans-105"/>
       <path d="M 54.890625 33.015625 
L 54.890625 0 
L 45.90625 0 
L 45.90625 32.71875 
Q 45.90625 40.484375 42.875 44.328125 
Q 39.84375 48.1875 33.796875 48.1875 
Q 26.515625 48.1875 22.3125 43.546875 
Q 18.109375 38.921875 18.109375 30.90625 
L 18.109375 0 
L 9.078125 0 
L 9.078125 75.984375 
L 18.109375 75.984375 
L 18.109375 46.1875 
Q 21.34375 51.125 25.703125 53.5625 
Q 30.078125 56 35.796875 56 
Q 45.21875 56 50.046875 50.171875 
Q 54.890625 44.34375 54.890625 33.015625 
z
" id="DejaVuSans-104"/>
       <path d="M 8.015625 75.875 
L 15.828125 75.875 
Q 23.140625 64.359375 26.78125 53.3125 
Q 30.421875 42.28125 30.421875 31.390625 
Q 30.421875 20.453125 26.78125 9.375 
Q 23.140625 -1.703125 15.828125 -13.1875 
L 8.015625 -13.1875 
Q 14.5 -2 17.703125 9.0625 
Q 20.90625 20.125 20.90625 31.390625 
Q 20.90625 42.671875 17.703125 53.65625 
Q 14.5 64.65625 8.015625 75.875 
z
" id="DejaVuSans-41"/>
      </defs>
      <use xlink:href="#DejaVuSans-76"/>
      <use x="53.962891" xlink:href="#DejaVuSans-111"/>
      <use x="115.144531" xlink:href="#DejaVuSans-103"/>
      <use x="178.621094" xlink:href="#DejaVuSans-32"/>
      <use x="210.408203" xlink:href="#DejaVuSans-40"/>
      <use x="249.421875" xlink:href="#DejaVuSans-82"/>
      <use x="314.404297" xlink:href="#DejaVuSans-101"/>
      <use x="375.927734" xlink:href="#DejaVuSans-108"/>
      <use x="403.710938" xlink:href="#DejaVuSans-97"/>
      <use x="464.990234" xlink:href="#DejaVuSans-116"/>
      <use x="504.199219" xlink:href="#DejaVuSans-105"/>
      <use x="531.982422" xlink:href="#DejaVuSans-118"/>
      <use x="591.162109" xlink:href="#DejaVuSans-101"/>
      <use x="652.685547" xlink:href="#DejaVuSans-32"/>
      <use x="684.472656" xlink:href="#DejaVuSans-83"/>
      <use x="747.949219" xlink:href="#DejaVuSans-116"/>
      <use x="787.158203" xlink:href="#DejaVuSans-114"/>
      <use x="826.021484" xlink:href="#DejaVuSans-101"/>
      <use x="887.544922" xlink:href="#DejaVuSans-110"/>
      <use x="950.923828" xlink:href="#DejaVuSans-103"/>
      <use x="1014.400391" xlink:href="#DejaVuSans-116"/>
      <use x="1053.609375" xlink:href="#DejaVuSans-104"/>
      <use x="1116.988281" xlink:href="#DejaVuSans-41"/>
     </g>
    </g>
   </g>
   <g id="line2d_67">
    <path clip-path="url(#pd3305aec1c)" d="M 71.93267 382.475925 
L 75.458118 360.172982 
L 82.509013 360.172982 
L 86.034461 408.222783 
L 89.559908 382.475925 
L 93.085356 438.674853 
L 96.610803 394.853733 
L 100.136251 408.222783 
L 103.661698 422.755769 
L 107.187146 408.222783 
L 110.712593 408.222783 
L 114.238041 350.047217 
L 117.763488 422.755769 
L 121.288936 456.272584 
L 124.814383 475.945174 
L 128.339831 408.222783 
L 131.865278 408.222783 
L 135.390726 456.272584 
L 138.916173 438.674853 
L 142.441621 408.222783 
L 145.967068 394.853733 
L 149.492516 456.272584 
L 153.017964 475.945174 
L 156.543411 475.945174 
L 160.068859 498.248117 
L 163.594306 498.248117 
L 167.119754 422.755769 
L 170.645201 456.272584 
L 174.170649 554.447045 
L 177.696096 475.945174 
L 181.221544 438.674853 
L 184.746991 322.902661 
L 188.272439 382.475925 
L 191.797886 394.853733 
L 198.848781 394.853733 
L 202.374229 422.755769 
L 205.899676 360.172982 
L 209.425124 370.952462 
L 212.950571 422.755769 
L 216.476019 438.674853 
L 220.001467 394.853733 
L 223.526914 408.222783 
L 227.052362 475.945174 
L 230.577809 408.222783 
L 234.103257 370.952462 
L 237.628704 422.755769 
L 241.154152 408.222783 
L 244.679599 523.994976 
L 248.205047 408.222783 
L 251.730494 382.475925 
L 255.255942 422.755769 
L 258.781389 422.755769 
L 262.306837 394.853733 
L 265.832284 438.674853 
L 272.883179 438.674853 
L 276.408627 422.755769 
L 279.934074 408.222783 
L 283.459522 422.755769 
L 290.510417 422.755769 
L 294.035865 408.222783 
L 297.561312 438.674853 
L 301.08676 438.674853 
L 304.612207 360.172982 
L 308.137655 422.755769 
L 311.663102 408.222783 
L 315.18855 422.755769 
L 318.713997 456.272584 
L 322.239445 475.945174 
L 325.764892 456.272584 
L 329.29034 394.853733 
L 332.815787 438.674853 
L 336.341235 498.248117 
L 339.866682 456.272584 
L 346.917577 456.272584 
L 350.443025 475.945174 
L 353.968472 498.248117 
L 357.49392 456.272584 
L 361.019368 422.755769 
L 364.544815 456.272584 
L 368.070263 382.475925 
L 371.59571 408.222783 
L 375.121158 394.853733 
L 378.646605 422.755769 
L 382.172053 394.853733 
L 385.6975 422.755769 
L 389.222948 408.222783 
L 392.748395 456.272584 
L 396.273843 408.222783 
L 399.79929 422.755769 
L 403.324738 394.853733 
L 406.850185 475.945174 
L 410.375633 456.272584 
L 413.90108 422.755769 
L 417.426528 394.853733 
L 420.951975 456.272584 
L 424.477423 456.272584 
L 428.002871 554.447045 
L 431.528318 438.674853 
L 435.053766 438.674853 
L 438.579213 394.853733 
L 442.104661 438.674853 
L 445.630108 382.475925 
L 449.155556 360.172982 
L 452.681003 438.674853 
L 456.206451 408.222783 
L 459.731898 394.853733 
L 463.257346 422.755769 
L 466.782793 370.952462 
L 470.308241 422.755769 
L 473.833688 370.952462 
L 477.359136 408.222783 
L 480.884583 360.172982 
L 484.410031 360.172982 
L 487.935478 394.853733 
L 491.460926 475.945174 
L 494.986374 382.475925 
L 498.511821 370.952462 
L 502.037269 370.952462 
L 505.562716 438.674853 
L 509.088164 394.853733 
L 512.613611 498.248117 
L 516.139059 422.755769 
L 519.664506 456.272584 
L 523.189954 438.674853 
L 526.715401 456.272584 
L 530.240849 523.994976 
L 533.766296 456.272584 
L 537.291744 408.222783 
L 540.817191 394.853733 
L 544.342639 394.853733 
L 547.868086 422.755769 
L 551.393534 370.952462 
L 554.918981 408.222783 
L 558.444429 456.272584 
L 561.969876 394.853733 
L 565.495324 360.172982 
L 569.020772 350.047217 
L 572.546219 408.222783 
L 576.071667 394.853733 
L 579.597114 394.853733 
L 583.122562 438.674853 
L 586.648009 382.475925 
L 590.173457 370.952462 
L 593.698904 408.222783 
L 597.224352 456.272584 
L 600.749799 382.475925 
L 604.275247 438.674853 
L 607.800694 422.755769 
L 611.326142 475.945174 
L 614.851589 523.994976 
L 618.377037 382.475925 
L 621.902484 394.853733 
L 625.427932 382.475925 
L 628.953379 382.475925 
L 632.478827 438.674853 
L 636.004275 394.853733 
L 639.529722 394.853733 
L 643.05517 382.475925 
L 646.580617 340.500392 
L 650.106065 285.632339 
L 653.631512 81.232511 
L 657.15696 54.087955 
L 660.682407 83.209149 
L 664.207855 126.039026 
L 667.733302 118.502832 
L 671.25875 128.628597 
L 674.784197 133.931391 
L 678.309645 173.234483 
L 681.835092 203.00621 
L 685.36054 195.051184 
L 688.885987 203.00621 
L 692.411435 215.697678 
L 695.936882 224.7282 
L 702.987778 285.632339 
L 706.513225 299.559067 
L 710.038673 322.902661 
L 713.56412 260.842641 
L 717.089568 285.632339 
L 720.615015 292.450591 
L 724.140463 279.08154 
L 727.66591 299.559067 
L 731.191358 314.753534 
L 734.716805 266.703733 
L 738.242253 292.450591 
L 741.7677 285.632339 
L 745.293148 255.180269 
L 748.818595 279.08154 
L 752.344043 285.632339 
L 755.86949 299.559067 
L 759.394938 299.559067 
L 762.920385 306.983576 
L 766.445833 331.46987 
L 769.97128 285.632339 
L 773.496728 306.983576 
L 777.022176 299.559067 
L 780.547623 306.983576 
L 784.073071 279.08154 
L 787.598518 314.753534 
L 791.123966 306.983576 
L 794.649413 322.902661 
L 798.174861 322.902661 
L 801.700308 224.7282 
L 805.225756 272.778001 
L 808.751203 314.753534 
L 812.276651 306.983576 
L 815.802098 340.500392 
L 819.327546 306.983576 
L 822.852993 306.983576 
L 826.378441 322.902661 
L 829.903888 322.902661 
L 833.429336 370.952462 
L 836.954783 360.172982 
L 840.480231 382.475925 
L 844.005679 370.952462 
L 847.531126 408.222783 
L 851.056574 350.047217 
L 854.582021 350.047217 
L 858.107469 299.559067 
L 861.632916 322.902661 
L 865.158364 340.500392 
L 868.683811 382.475925 
L 872.209259 360.172982 
L 875.734706 382.475925 
L 882.785601 382.475925 
L 886.311049 394.853733 
L 889.836496 360.172982 
L 893.361944 438.674853 
L 896.887391 360.172982 
L 900.412839 382.475925 
L 903.938286 370.952462 
L 907.463734 438.674853 
L 910.989182 394.853733 
L 914.514629 408.222783 
L 918.040077 394.853733 
L 921.565524 331.46987 
L 925.090972 422.755769 
L 928.616419 408.222783 
L 932.141867 382.475925 
L 935.667314 350.047217 
L 939.192762 382.475925 
L 942.718209 408.222783 
L 946.243657 382.475925 
L 949.769104 422.755769 
L 953.294552 408.222783 
L 956.819999 408.222783 
L 960.345447 422.755769 
L 963.870894 408.222783 
L 970.921789 408.222783 
L 974.447237 394.853733 
L 977.972684 422.755769 
L 981.498132 438.674853 
L 985.02358 360.172982 
L 985.02358 360.172982 
" style="fill:none;stroke:#1f77b4;stroke-linecap:square;stroke-width:1.5;"/>
   </g>
   <g id="patch_16">
    <path d="M 26.278125 579.465 
L 26.278125 29.07 
" style="fill:none;stroke:#000000;stroke-linecap:square;stroke-linejoin:miter;stroke-width:0.8;"/>
   </g>
   <g id="patch_17">
    <path d="M 1030.678125 579.465 
L 1030.678125 29.07 
" style="fill:none;stroke:#000000;stroke-linecap:square;stroke-linejoin:miter;stroke-width:0.8;"/>
   </g>
   <g id="patch_18">
    <path d="M 26.278125 579.465 
L 1030.678125 579.465 
" style="fill:none;stroke:#000000;stroke-linecap:square;stroke-linejoin:miter;stroke-width:0.8;"/>
   </g>
   <g id="patch_19">
    <path d="M 26.278125 29.07 
L 1030.678125 29.07 
" style="fill:none;stroke:#000000;stroke-linecap:square;stroke-linejoin:miter;stroke-width:0.8;"/>
   </g>
   <g id="legend_1">
    <g id="patch_20">
     <path d="M 855.760938 140.095 
L 1023.678125 140.095 
Q 1025.678125 140.095 1025.678125 138.095 
L 1025.678125 36.07 
Q 1025.678125 34.07 1023.678125 34.07 
L 855.760938 34.07 
Q 853.760938 34.07 853.760938 36.07 
L 853.760938 138.095 
Q 853.760938 140.095 855.760938 140.095 
z
" style="fill:#ffffff;opacity:0.8;stroke:#cccccc;stroke-linejoin:miter;"/>
    </g>
    <g id="line2d_68">
     <path d="M 857.760938 42.168437 
L 877.760938 42.168437 
" style="fill:none;stroke:#1f77b4;stroke-linecap:square;stroke-width:1.5;"/>
    </g>
    <g id="line2d_69"/>
    <g id="text_68">
     <!-- relative_strength -->
     <g transform="translate(885.760938 45.668437)scale(0.1 -0.1)">
      <defs>
       <path d="M 50.984375 -16.609375 
L 50.984375 -23.578125 
L -0.984375 -23.578125 
L -0.984375 -16.609375 
z
" id="DejaVuSans-95"/>
       <path d="M 44.28125 53.078125 
L 44.28125 44.578125 
Q 40.484375 46.53125 36.375 47.5 
Q 32.28125 48.484375 27.875 48.484375 
Q 21.1875 48.484375 17.84375 46.4375 
Q 14.5 44.390625 14.5 40.28125 
Q 14.5 37.15625 16.890625 35.375 
Q 19.28125 33.59375 26.515625 31.984375 
L 29.59375 31.296875 
Q 39.15625 29.25 43.1875 25.515625 
Q 47.21875 21.78125 47.21875 15.09375 
Q 47.21875 7.46875 41.1875 3.015625 
Q 35.15625 -1.421875 24.609375 -1.421875 
Q 20.21875 -1.421875 15.453125 -0.5625 
Q 10.6875 0.296875 5.421875 2 
L 5.421875 11.28125 
Q 10.40625 8.6875 15.234375 7.390625 
Q 20.0625 6.109375 24.8125 6.109375 
Q 31.15625 6.109375 34.5625 8.28125 
Q 37.984375 10.453125 37.984375 14.40625 
Q 37.984375 18.0625 35.515625 20.015625 
Q 33.0625 21.96875 24.703125 23.78125 
L 21.578125 24.515625 
Q 13.234375 26.265625 9.515625 29.90625 
Q 5.8125 33.546875 5.8125 39.890625 
Q 5.8125 47.609375 11.28125 51.796875 
Q 16.75 56 26.8125 56 
Q 31.78125 56 36.171875 55.265625 
Q 40.578125 54.546875 44.28125 53.078125 
z
" id="DejaVuSans-115"/>
      </defs>
      <use xlink:href="#DejaVuSans-114"/>
      <use x="38.863281" xlink:href="#DejaVuSans-101"/>
      <use x="100.386719" xlink:href="#DejaVuSans-108"/>
      <use x="128.169922" xlink:href="#DejaVuSans-97"/>
      <use x="189.449219" xlink:href="#DejaVuSans-116"/>
      <use x="228.658203" xlink:href="#DejaVuSans-105"/>
      <use x="256.441406" xlink:href="#DejaVuSans-118"/>
      <use x="315.621094" xlink:href="#DejaVuSans-101"/>
      <use x="377.144531" xlink:href="#DejaVuSans-95"/>
      <use x="427.144531" xlink:href="#DejaVuSans-115"/>
      <use x="479.244141" xlink:href="#DejaVuSans-116"/>
      <use x="518.453125" xlink:href="#DejaVuSans-114"/>
      <use x="557.316406" xlink:href="#DejaVuSans-101"/>
      <use x="618.839844" xlink:href="#DejaVuSans-110"/>
      <use x="682.21875" xlink:href="#DejaVuSans-103"/>
      <use x="745.695312" xlink:href="#DejaVuSans-116"/>
      <use x="784.904297" xlink:href="#DejaVuSans-104"/>
     </g>
    </g>
    <g id="patch_21">
     <path d="M 857.760938 60.624687 
L 877.760938 60.624687 
L 877.760938 53.624687 
L 857.760938 53.624687 
z
" style="fill:#7fc97f;opacity:0.25;"/>
    </g>
    <g id="text_69">
     <!-- Hurricane Harvey -->
     <g transform="translate(885.760938 60.624687)scale(0.1 -0.1)">
      <defs>
       <path d="M 9.8125 72.90625 
L 19.671875 72.90625 
L 19.671875 43.015625 
L 55.515625 43.015625 
L 55.515625 72.90625 
L 65.375 72.90625 
L 65.375 0 
L 55.515625 0 
L 55.515625 34.71875 
L 19.671875 34.71875 
L 19.671875 0 
L 9.8125 0 
z
" id="DejaVuSans-72"/>
      </defs>
      <use xlink:href="#DejaVuSans-72"/>
      <use x="75.195312" xlink:href="#DejaVuSans-117"/>
      <use x="138.574219" xlink:href="#DejaVuSans-114"/>
      <use x="177.9375" xlink:href="#DejaVuSans-114"/>
      <use x="219.050781" xlink:href="#DejaVuSans-105"/>
      <use x="246.833984" xlink:href="#DejaVuSans-99"/>
      <use x="301.814453" xlink:href="#DejaVuSans-97"/>
      <use x="363.09375" xlink:href="#DejaVuSans-110"/>
      <use x="426.472656" xlink:href="#DejaVuSans-101"/>
      <use x="487.996094" xlink:href="#DejaVuSans-32"/>
      <use x="519.783203" xlink:href="#DejaVuSans-72"/>
      <use x="594.978516" xlink:href="#DejaVuSans-97"/>
      <use x="656.257812" xlink:href="#DejaVuSans-114"/>
      <use x="697.371094" xlink:href="#DejaVuSans-118"/>
      <use x="756.550781" xlink:href="#DejaVuSans-101"/>
      <use x="818.074219" xlink:href="#DejaVuSans-121"/>
     </g>
    </g>
    <g id="patch_22">
     <path d="M 857.760938 75.302812 
L 877.760938 75.302812 
L 877.760938 68.302812 
L 857.760938 68.302812 
z
" style="fill:#beaed4;opacity:0.25;"/>
    </g>
    <g id="text_70">
     <!-- Vehicle-ramming Attack -->
     <g transform="translate(885.760938 75.302812)scale(0.1 -0.1)">
      <defs>
       <path d="M 28.609375 0 
L 0.78125 72.90625 
L 11.078125 72.90625 
L 34.1875 11.53125 
L 57.328125 72.90625 
L 67.578125 72.90625 
L 39.796875 0 
z
" id="DejaVuSans-86"/>
       <path d="M 4.890625 31.390625 
L 31.203125 31.390625 
L 31.203125 23.390625 
L 4.890625 23.390625 
z
" id="DejaVuSans-45"/>
       <path d="M 52 44.1875 
Q 55.375 50.25 60.0625 53.125 
Q 64.75 56 71.09375 56 
Q 79.640625 56 84.28125 50.015625 
Q 88.921875 44.046875 88.921875 33.015625 
L 88.921875 0 
L 79.890625 0 
L 79.890625 32.71875 
Q 79.890625 40.578125 77.09375 44.375 
Q 74.3125 48.1875 68.609375 48.1875 
Q 61.625 48.1875 57.5625 43.546875 
Q 53.515625 38.921875 53.515625 30.90625 
L 53.515625 0 
L 44.484375 0 
L 44.484375 32.71875 
Q 44.484375 40.625 41.703125 44.40625 
Q 38.921875 48.1875 33.109375 48.1875 
Q 26.21875 48.1875 22.15625 43.53125 
Q 18.109375 38.875 18.109375 30.90625 
L 18.109375 0 
L 9.078125 0 
L 9.078125 54.6875 
L 18.109375 54.6875 
L 18.109375 46.1875 
Q 21.1875 51.21875 25.484375 53.609375 
Q 29.78125 56 35.6875 56 
Q 41.65625 56 45.828125 52.96875 
Q 50 49.953125 52 44.1875 
z
" id="DejaVuSans-109"/>
       <path d="M 9.078125 75.984375 
L 18.109375 75.984375 
L 18.109375 31.109375 
L 44.921875 54.6875 
L 56.390625 54.6875 
L 27.390625 29.109375 
L 57.625 0 
L 45.90625 0 
L 18.109375 26.703125 
L 18.109375 0 
L 9.078125 0 
z
" id="DejaVuSans-107"/>
      </defs>
      <use xlink:href="#DejaVuSans-86"/>
      <use x="60.658203" xlink:href="#DejaVuSans-101"/>
      <use x="122.181641" xlink:href="#DejaVuSans-104"/>
      <use x="185.560547" xlink:href="#DejaVuSans-105"/>
      <use x="213.34375" xlink:href="#DejaVuSans-99"/>
      <use x="268.324219" xlink:href="#DejaVuSans-108"/>
      <use x="296.107422" xlink:href="#DejaVuSans-101"/>
      <use x="357.630859" xlink:href="#DejaVuSans-45"/>
      <use x="393.714844" xlink:href="#DejaVuSans-114"/>
      <use x="434.828125" xlink:href="#DejaVuSans-97"/>
      <use x="496.107422" xlink:href="#DejaVuSans-109"/>
      <use x="593.519531" xlink:href="#DejaVuSans-109"/>
      <use x="690.931641" xlink:href="#DejaVuSans-105"/>
      <use x="718.714844" xlink:href="#DejaVuSans-110"/>
      <use x="782.09375" xlink:href="#DejaVuSans-103"/>
      <use x="845.570312" xlink:href="#DejaVuSans-32"/>
      <use x="877.357422" xlink:href="#DejaVuSans-65"/>
      <use x="944.015625" xlink:href="#DejaVuSans-116"/>
      <use x="983.224609" xlink:href="#DejaVuSans-116"/>
      <use x="1022.433594" xlink:href="#DejaVuSans-97"/>
      <use x="1083.712891" xlink:href="#DejaVuSans-99"/>
      <use x="1138.693359" xlink:href="#DejaVuSans-107"/>
     </g>
    </g>
    <g id="patch_23">
     <path d="M 857.760938 89.980937 
L 877.760938 89.980937 
L 877.760938 82.980937 
L 857.760938 82.980937 
z
" style="fill:#ffff99;opacity:0.25;"/>
    </g>
    <g id="text_71">
     <!-- Black Hole Image -->
     <g transform="translate(885.760938 89.980937)scale(0.1 -0.1)">
      <defs>
       <path d="M 19.671875 34.8125 
L 19.671875 8.109375 
L 35.5 8.109375 
Q 43.453125 8.109375 47.28125 11.40625 
Q 51.125 14.703125 51.125 21.484375 
Q 51.125 28.328125 47.28125 31.5625 
Q 43.453125 34.8125 35.5 34.8125 
z
M 19.671875 64.796875 
L 19.671875 42.828125 
L 34.28125 42.828125 
Q 41.5 42.828125 45.03125 45.53125 
Q 48.578125 48.25 48.578125 53.8125 
Q 48.578125 59.328125 45.03125 62.0625 
Q 41.5 64.796875 34.28125 64.796875 
z
M 9.8125 72.90625 
L 35.015625 72.90625 
Q 46.296875 72.90625 52.390625 68.21875 
Q 58.5 63.53125 58.5 54.890625 
Q 58.5 48.1875 55.375 44.234375 
Q 52.25 40.28125 46.1875 39.3125 
Q 53.46875 37.75 57.5 32.78125 
Q 61.53125 27.828125 61.53125 20.40625 
Q 61.53125 10.640625 54.890625 5.3125 
Q 48.25 0 35.984375 0 
L 9.8125 0 
z
" id="DejaVuSans-66"/>
       <path d="M 9.8125 72.90625 
L 19.671875 72.90625 
L 19.671875 0 
L 9.8125 0 
z
" id="DejaVuSans-73"/>
      </defs>
      <use xlink:href="#DejaVuSans-66"/>
      <use x="68.603516" xlink:href="#DejaVuSans-108"/>
      <use x="96.386719" xlink:href="#DejaVuSans-97"/>
      <use x="157.666016" xlink:href="#DejaVuSans-99"/>
      <use x="212.646484" xlink:href="#DejaVuSans-107"/>
      <use x="270.556641" xlink:href="#DejaVuSans-32"/>
      <use x="302.34375" xlink:href="#DejaVuSans-72"/>
      <use x="377.539062" xlink:href="#DejaVuSans-111"/>
      <use x="438.720703" xlink:href="#DejaVuSans-108"/>
      <use x="466.503906" xlink:href="#DejaVuSans-101"/>
      <use x="528.027344" xlink:href="#DejaVuSans-32"/>
      <use x="559.814453" xlink:href="#DejaVuSans-73"/>
      <use x="589.306641" xlink:href="#DejaVuSans-109"/>
      <use x="686.71875" xlink:href="#DejaVuSans-97"/>
      <use x="747.998047" xlink:href="#DejaVuSans-103"/>
      <use x="811.474609" xlink:href="#DejaVuSans-101"/>
     </g>
    </g>
    <g id="patch_24">
     <path d="M 857.760938 104.659062 
L 877.760938 104.659062 
L 877.760938 97.659062 
L 857.760938 97.659062 
z
" style="fill:#386cb0;opacity:0.25;"/>
    </g>
    <g id="text_72">
     <!-- Coronavirus Pandemic -->
     <g transform="translate(885.760938 104.659062)scale(0.1 -0.1)">
      <defs>
       <path d="M 64.40625 67.28125 
L 64.40625 56.890625 
Q 59.421875 61.53125 53.78125 63.8125 
Q 48.140625 66.109375 41.796875 66.109375 
Q 29.296875 66.109375 22.65625 58.46875 
Q 16.015625 50.828125 16.015625 36.375 
Q 16.015625 21.96875 22.65625 14.328125 
Q 29.296875 6.6875 41.796875 6.6875 
Q 48.140625 6.6875 53.78125 8.984375 
Q 59.421875 11.28125 64.40625 15.921875 
L 64.40625 5.609375 
Q 59.234375 2.09375 53.4375 0.328125 
Q 47.65625 -1.421875 41.21875 -1.421875 
Q 24.65625 -1.421875 15.125 8.703125 
Q 5.609375 18.84375 5.609375 36.375 
Q 5.609375 53.953125 15.125 64.078125 
Q 24.65625 74.21875 41.21875 74.21875 
Q 47.75 74.21875 53.53125 72.484375 
Q 59.328125 70.75 64.40625 67.28125 
z
" id="DejaVuSans-67"/>
       <path d="M 19.671875 64.796875 
L 19.671875 37.40625 
L 32.078125 37.40625 
Q 38.96875 37.40625 42.71875 40.96875 
Q 46.484375 44.53125 46.484375 51.125 
Q 46.484375 57.671875 42.71875 61.234375 
Q 38.96875 64.796875 32.078125 64.796875 
z
M 9.8125 72.90625 
L 32.078125 72.90625 
Q 44.34375 72.90625 50.609375 67.359375 
Q 56.890625 61.8125 56.890625 51.125 
Q 56.890625 40.328125 50.609375 34.8125 
Q 44.34375 29.296875 32.078125 29.296875 
L 19.671875 29.296875 
L 19.671875 0 
L 9.8125 0 
z
" id="DejaVuSans-80"/>
       <path d="M 45.40625 46.390625 
L 45.40625 75.984375 
L 54.390625 75.984375 
L 54.390625 0 
L 45.40625 0 
L 45.40625 8.203125 
Q 42.578125 3.328125 38.25 0.953125 
Q 33.9375 -1.421875 27.875 -1.421875 
Q 17.96875 -1.421875 11.734375 6.484375 
Q 5.515625 14.40625 5.515625 27.296875 
Q 5.515625 40.1875 11.734375 48.09375 
Q 17.96875 56 27.875 56 
Q 33.9375 56 38.25 53.625 
Q 42.578125 51.265625 45.40625 46.390625 
z
M 14.796875 27.296875 
Q 14.796875 17.390625 18.875 11.75 
Q 22.953125 6.109375 30.078125 6.109375 
Q 37.203125 6.109375 41.296875 11.75 
Q 45.40625 17.390625 45.40625 27.296875 
Q 45.40625 37.203125 41.296875 42.84375 
Q 37.203125 48.484375 30.078125 48.484375 
Q 22.953125 48.484375 18.875 42.84375 
Q 14.796875 37.203125 14.796875 27.296875 
z
" id="DejaVuSans-100"/>
      </defs>
      <use xlink:href="#DejaVuSans-67"/>
      <use x="69.824219" xlink:href="#DejaVuSans-111"/>
      <use x="131.005859" xlink:href="#DejaVuSans-114"/>
      <use x="169.869141" xlink:href="#DejaVuSans-111"/>
      <use x="231.050781" xlink:href="#DejaVuSans-110"/>
      <use x="294.429688" xlink:href="#DejaVuSans-97"/>
      <use x="355.708984" xlink:href="#DejaVuSans-118"/>
      <use x="414.888672" xlink:href="#DejaVuSans-105"/>
      <use x="442.671875" xlink:href="#DejaVuSans-114"/>
      <use x="483.785156" xlink:href="#DejaVuSans-117"/>
      <use x="547.164062" xlink:href="#DejaVuSans-115"/>
      <use x="599.263672" xlink:href="#DejaVuSans-32"/>
      <use x="631.050781" xlink:href="#DejaVuSans-80"/>
      <use x="686.853516" xlink:href="#DejaVuSans-97"/>
      <use x="748.132812" xlink:href="#DejaVuSans-110"/>
      <use x="811.511719" xlink:href="#DejaVuSans-100"/>
      <use x="874.988281" xlink:href="#DejaVuSans-101"/>
      <use x="936.511719" xlink:href="#DejaVuSans-109"/>
      <use x="1033.923828" xlink:href="#DejaVuSans-105"/>
      <use x="1061.707031" xlink:href="#DejaVuSans-99"/>
     </g>
    </g>
    <g id="patch_25">
     <path d="M 857.760938 119.337187 
L 877.760938 119.337187 
L 877.760938 112.337187 
L 857.760938 112.337187 
z
" style="fill:#bf5b17;opacity:0.25;"/>
    </g>
    <g id="text_73">
     <!-- US Capitol Attack -->
     <g transform="translate(885.760938 119.337187)scale(0.1 -0.1)">
      <defs>
       <path d="M 8.6875 72.90625 
L 18.609375 72.90625 
L 18.609375 28.609375 
Q 18.609375 16.890625 22.84375 11.734375 
Q 27.09375 6.59375 36.625 6.59375 
Q 46.09375 6.59375 50.34375 11.734375 
Q 54.59375 16.890625 54.59375 28.609375 
L 54.59375 72.90625 
L 64.5 72.90625 
L 64.5 27.390625 
Q 64.5 13.140625 57.4375 5.859375 
Q 50.390625 -1.421875 36.625 -1.421875 
Q 22.796875 -1.421875 15.734375 5.859375 
Q 8.6875 13.140625 8.6875 27.390625 
z
" id="DejaVuSans-85"/>
      </defs>
      <use xlink:href="#DejaVuSans-85"/>
      <use x="73.193359" xlink:href="#DejaVuSans-83"/>
      <use x="136.669922" xlink:href="#DejaVuSans-32"/>
      <use x="168.457031" xlink:href="#DejaVuSans-67"/>
      <use x="238.28125" xlink:href="#DejaVuSans-97"/>
      <use x="299.560547" xlink:href="#DejaVuSans-112"/>
      <use x="363.037109" xlink:href="#DejaVuSans-105"/>
      <use x="390.820312" xlink:href="#DejaVuSans-116"/>
      <use x="430.029297" xlink:href="#DejaVuSans-111"/>
      <use x="491.210938" xlink:href="#DejaVuSans-108"/>
      <use x="518.994141" xlink:href="#DejaVuSans-32"/>
      <use x="550.78125" xlink:href="#DejaVuSans-65"/>
      <use x="617.439453" xlink:href="#DejaVuSans-116"/>
      <use x="656.648438" xlink:href="#DejaVuSans-116"/>
      <use x="695.857422" xlink:href="#DejaVuSans-97"/>
      <use x="757.136719" xlink:href="#DejaVuSans-99"/>
      <use x="812.117188" xlink:href="#DejaVuSans-107"/>
     </g>
    </g>
    <g id="patch_26">
     <path d="M 857.760938 134.015312 
L 877.760938 134.015312 
L 877.760938 127.015312 
L 857.760938 127.015312 
z
" style="fill:#666666;opacity:0.25;"/>
    </g>
    <g id="text_74">
     <!-- US Afghanistan Withdrawal -->
     <g transform="translate(885.760938 134.015312)scale(0.1 -0.1)">
      <defs>
       <path d="M 37.109375 75.984375 
L 37.109375 68.5 
L 28.515625 68.5 
Q 23.6875 68.5 21.796875 66.546875 
Q 19.921875 64.59375 19.921875 59.515625 
L 19.921875 54.6875 
L 34.71875 54.6875 
L 34.71875 47.703125 
L 19.921875 47.703125 
L 19.921875 0 
L 10.890625 0 
L 10.890625 47.703125 
L 2.296875 47.703125 
L 2.296875 54.6875 
L 10.890625 54.6875 
L 10.890625 58.5 
Q 10.890625 67.625 15.140625 71.796875 
Q 19.390625 75.984375 28.609375 75.984375 
z
" id="DejaVuSans-102"/>
       <path d="M 3.328125 72.90625 
L 13.28125 72.90625 
L 28.609375 11.28125 
L 43.890625 72.90625 
L 54.984375 72.90625 
L 70.3125 11.28125 
L 85.59375 72.90625 
L 95.609375 72.90625 
L 77.296875 0 
L 64.890625 0 
L 49.515625 63.28125 
L 33.984375 0 
L 21.578125 0 
z
" id="DejaVuSans-87"/>
       <path d="M 4.203125 54.6875 
L 13.1875 54.6875 
L 24.421875 12.015625 
L 35.59375 54.6875 
L 46.1875 54.6875 
L 57.421875 12.015625 
L 68.609375 54.6875 
L 77.59375 54.6875 
L 63.28125 0 
L 52.6875 0 
L 40.921875 44.828125 
L 29.109375 0 
L 18.5 0 
z
" id="DejaVuSans-119"/>
      </defs>
      <use xlink:href="#DejaVuSans-85"/>
      <use x="73.193359" xlink:href="#DejaVuSans-83"/>
      <use x="136.669922" xlink:href="#DejaVuSans-32"/>
      <use x="168.457031" xlink:href="#DejaVuSans-65"/>
      <use x="233.240234" xlink:href="#DejaVuSans-102"/>
      <use x="268.445312" xlink:href="#DejaVuSans-103"/>
      <use x="331.921875" xlink:href="#DejaVuSans-104"/>
      <use x="395.300781" xlink:href="#DejaVuSans-97"/>
      <use x="456.580078" xlink:href="#DejaVuSans-110"/>
      <use x="519.958984" xlink:href="#DejaVuSans-105"/>
      <use x="547.742188" xlink:href="#DejaVuSans-115"/>
      <use x="599.841797" xlink:href="#DejaVuSans-116"/>
      <use x="639.050781" xlink:href="#DejaVuSans-97"/>
      <use x="700.330078" xlink:href="#DejaVuSans-110"/>
      <use x="763.708984" xlink:href="#DejaVuSans-32"/>
      <use x="795.496094" xlink:href="#DejaVuSans-87"/>
      <use x="892.123047" xlink:href="#DejaVuSans-105"/>
      <use x="919.90625" xlink:href="#DejaVuSans-116"/>
      <use x="959.115234" xlink:href="#DejaVuSans-104"/>
      <use x="1022.494141" xlink:href="#DejaVuSans-100"/>
      <use x="1085.970703" xlink:href="#DejaVuSans-114"/>
      <use x="1127.083984" xlink:href="#DejaVuSans-97"/>
      <use x="1188.363281" xlink:href="#DejaVuSans-119"/>
      <use x="1270.150391" xlink:href="#DejaVuSans-97"/>
      <use x="1331.429688" xlink:href="#DejaVuSans-108"/>
     </g>
    </g>
   </g>
  </g>
  <g id="text_75">
   <!-- Relative Search Strength for the term "unprecedented" -->
   <g transform="translate(346.626563 16.318125)scale(0.12 -0.12)">
    <defs>
     <path d="M 17.921875 72.90625 
L 17.921875 45.796875 
L 9.625 45.796875 
L 9.625 72.90625 
z
M 36.375 72.90625 
L 36.375 45.796875 
L 28.078125 45.796875 
L 28.078125 72.90625 
z
" id="DejaVuSans-34"/>
    </defs>
    <use xlink:href="#DejaVuSans-82"/>
    <use x="64.982422" xlink:href="#DejaVuSans-101"/>
    <use x="126.505859" xlink:href="#DejaVuSans-108"/>
    <use x="154.289062" xlink:href="#DejaVuSans-97"/>
    <use x="215.568359" xlink:href="#DejaVuSans-116"/>
    <use x="254.777344" xlink:href="#DejaVuSans-105"/>
    <use x="282.560547" xlink:href="#DejaVuSans-118"/>
    <use x="341.740234" xlink:href="#DejaVuSans-101"/>
    <use x="403.263672" xlink:href="#DejaVuSans-32"/>
    <use x="435.050781" xlink:href="#DejaVuSans-83"/>
    <use x="498.527344" xlink:href="#DejaVuSans-101"/>
    <use x="560.050781" xlink:href="#DejaVuSans-97"/>
    <use x="621.330078" xlink:href="#DejaVuSans-114"/>
    <use x="660.193359" xlink:href="#DejaVuSans-99"/>
    <use x="715.173828" xlink:href="#DejaVuSans-104"/>
    <use x="778.552734" xlink:href="#DejaVuSans-32"/>
    <use x="810.339844" xlink:href="#DejaVuSans-83"/>
    <use x="873.816406" xlink:href="#DejaVuSans-116"/>
    <use x="913.025391" xlink:href="#DejaVuSans-114"/>
    <use x="951.888672" xlink:href="#DejaVuSans-101"/>
    <use x="1013.412109" xlink:href="#DejaVuSans-110"/>
    <use x="1076.791016" xlink:href="#DejaVuSans-103"/>
    <use x="1140.267578" xlink:href="#DejaVuSans-116"/>
    <use x="1179.476562" xlink:href="#DejaVuSans-104"/>
    <use x="1242.855469" xlink:href="#DejaVuSans-32"/>
    <use x="1274.642578" xlink:href="#DejaVuSans-102"/>
    <use x="1309.847656" xlink:href="#DejaVuSans-111"/>
    <use x="1371.029297" xlink:href="#DejaVuSans-114"/>
    <use x="1412.142578" xlink:href="#DejaVuSans-32"/>
    <use x="1443.929688" xlink:href="#DejaVuSans-116"/>
    <use x="1483.138672" xlink:href="#DejaVuSans-104"/>
    <use x="1546.517578" xlink:href="#DejaVuSans-101"/>
    <use x="1608.041016" xlink:href="#DejaVuSans-32"/>
    <use x="1639.828125" xlink:href="#DejaVuSans-116"/>
    <use x="1679.037109" xlink:href="#DejaVuSans-101"/>
    <use x="1740.560547" xlink:href="#DejaVuSans-114"/>
    <use x="1779.923828" xlink:href="#DejaVuSans-109"/>
    <use x="1877.335938" xlink:href="#DejaVuSans-32"/>
    <use x="1909.123047" xlink:href="#DejaVuSans-34"/>
    <use x="1955.119141" xlink:href="#DejaVuSans-117"/>
    <use x="2018.498047" xlink:href="#DejaVuSans-110"/>
    <use x="2081.876953" xlink:href="#DejaVuSans-112"/>
    <use x="2145.353516" xlink:href="#DejaVuSans-114"/>
    <use x="2184.216797" xlink:href="#DejaVuSans-101"/>
    <use x="2245.740234" xlink:href="#DejaVuSans-99"/>
    <use x="2300.720703" xlink:href="#DejaVuSans-101"/>
    <use x="2362.244141" xlink:href="#DejaVuSans-100"/>
    <use x="2425.720703" xlink:href="#DejaVuSans-101"/>
    <use x="2487.244141" xlink:href="#DejaVuSans-110"/>
    <use x="2550.623047" xlink:href="#DejaVuSans-116"/>
    <use x="2589.832031" xlink:href="#DejaVuSans-101"/>
    <use x="2651.355469" xlink:href="#DejaVuSans-100"/>
    <use x="2714.832031" xlink:href="#DejaVuSans-34"/>
   </g>
  </g>
 </g>
 <defs>
  <clipPath id="pd3305aec1c">
   <rect height="550.395" width="1004.4" x="26.278125" y="29.07"/>
  </clipPath>
 </defs>
</svg>
